<?xml version="1.0" encoding="UTF-8" standalone="no"?>
<!-- Created with Inkscape (http://www.inkscape.org/) -->

<svg
   xmlns:dc="http://purl.org/dc/elements/1.1/"
   xmlns:cc="http://creativecommons.org/ns#"
   xmlns:rdf="http://www.w3.org/1999/02/22-rdf-syntax-ns#"
   xmlns:svg="http://www.w3.org/2000/svg"
   xmlns="http://www.w3.org/2000/svg"
   xmlns:sodipodi="http://sodipodi.sourceforge.net/DTD/sodipodi-0.dtd"
   xmlns:inkscape="http://www.inkscape.org/namespaces/inkscape"
   width="210mm"
   height="297mm"
   viewBox="0 0 744.09448819 1052.3622047"
   id="svg2"
   version="1.1"
   inkscape:version="0.92.2 5c3e80d, 2017-08-06"
   sodipodi:docname="freemen icon 03 (collapsed to one layer).svg">
  <defs
     id="defs4" />
  <sodipodi:namedview
     id="base"
     pagecolor="#ffffff"
     bordercolor="#666666"
     borderopacity="1.0"
     inkscape:pageopacity="0.0"
     inkscape:pageshadow="2"
     inkscape:zoom="0.7"
     inkscape:cx="533.98107"
     inkscape:cy="595.52888"
     inkscape:document-units="px"
     inkscape:current-layer="g4244"
     showgrid="false"
     showguides="true"
     inkscape:guide-bbox="true"
     inkscape:snap-grids="false"
     inkscape:snap-others="true"
     inkscape:snap-object-midpoints="true"
     inkscape:snap-text-baseline="true"
     inkscape:snap-center="true"
     inkscape:snap-midpoints="true"
     inkscape:snap-bbox="true"
     inkscape:bbox-paths="true"
     inkscape:bbox-nodes="true"
     inkscape:snap-bbox-edge-midpoints="true"
     inkscape:snap-bbox-midpoints="true"
     inkscape:object-paths="true"
     inkscape:snap-intersection-paths="true"
     inkscape:object-nodes="true"
     inkscape:snap-smooth-nodes="true"
     inkscape:snap-page="true">
    <sodipodi:guide
       position="340.61081,376.28183"
       orientation="0,1"
       id="guide4219" />
    <sodipodi:guide
       position="371.98868,394.59085"
       orientation="1,0"
       id="guide4221" />
    <sodipodi:guide
       position="296.42857,651.42859"
       orientation="0,1"
       id="guide4357" />
    <sodipodi:guide
       position="297.5,285.35715"
       orientation="0,1"
       id="guide4369" />
    <sodipodi:guide
       position="243.12211,649.4284"
       orientation="1,0"
       id="guide4446" />
    <sodipodi:guide
       position="500.99793,649.42839"
       orientation="1,0"
       id="guide4448" />
    <sodipodi:guide
       position="228.29986,568.46981"
       orientation="-165.91756,287.37763"
       id="guide4450" />
  </sodipodi:namedview>
  <metadata
     id="metadata7">
    <rdf:RDF>
      <cc:Work
         rdf:about="">
        <dc:format>image/svg+xml</dc:format>
        <dc:type
           rdf:resource="http://purl.org/dc/dcmitype/StillImage" />
        <dc:title></dc:title>
      </cc:Work>
    </rdf:RDF>
  </metadata>
  <g
     style="display:inline"
     inkscape:label="worm"
     id="g4244"
     inkscape:groupmode="layer">
    <path
       style="fill:#000000"
       d="m 358.90357,734.62077 c -12.99027,-2.49156 -26.34917,-9.59063 -33.48641,-17.79506 -4.89414,-5.62592 -9.95108,-16.37518 -11.96752,-25.43869 -2.15259,-9.67547 -1.45801,-17.89445 2.54191,-30.07862 8.14759,-24.81839 31.56894,-64.35042 35.03086,-59.12729 2.13406,3.21974 0.63128,37.79355 -1.74607,40.1709 -2.20694,2.20694 -2.62732,-0.16462 -2.34987,-13.25664 0.34816,-16.42835 -0.59911,-18.28843 -5.56119,-10.92017 -1.86796,2.77377 -5.87894,9.73391 -8.91329,15.46697 -6.77079,12.7927 -6.72154,15.32965 0.41964,21.61556 3.68183,3.24088 4.30555,4.22925 3.13579,4.96915 -2.72586,1.72418 -3.40703,1.11392 -7.87379,-7.05419 -2.76486,-5.05594 -2.92002,-5.17096 -4.07193,-3.01861 -1.90327,3.5563 -0.40213,8.63244 3.46544,11.71844 3.30577,2.63774 3.73237,4.30859 1.10004,4.30859 -0.71611,0 -2.37628,-2.025 -3.68926,-4.5 -1.31299,-2.475 -2.71695,-4.5 -3.11991,-4.5 -0.92639,0 -2.28125,5.00691 -1.89418,7 0.16021,0.825 1.46272,2.7375 2.89445,4.25 1.87667,1.98254 2.17947,2.75 1.08503,2.75 -0.83496,0 -2.12019,-1.125 -2.85607,-2.5 -0.73588,-1.375 -1.65043,-2.5 -2.03234,-2.5 -0.3819,0 -1.2841,2.77894 -2.00489,6.17541 -3.51062,16.54283 5.05058,36.60688 20.03723,46.95928 6.25482,4.32067 17.17264,8.62829 24.51971,9.67422 4.2205,0.60083 5.03135,1.06849 5.31495,3.06538 0.50559,3.55987 -0.727,3.9562 -7.97833,2.56537 z m 18.14367,-1.45879 c 0,-1.63948 0.14235,-2.98087 0.31634,-2.98087 3.61733,0 13.83242,-2.93859 19.3159,-5.55664 12.57659,-6.0046 21.4297,-18.19113 25.46876,-35.05837 5.51568,-23.0337 -2.22958,-45.77729 -34.22181,-100.49068 -10.74632,-18.37845 -10.87919,-18.68332 -10.87919,-24.96169 v -6.35599 l 6.09565,9.96168 c 36.1073,59.0076 50.42292,92.06699 48.56395,112.14986 -1.85043,19.99071 -11.85893,38.45597 -25.63546,47.29634 -5.47237,3.51161 -16.72747,7.38971 -24.27414,8.364 -4.74149,0.61213 -4.75,0.60789 -4.75,-2.36764 z M 363.97219,549.18111 c -14.30398,-22.0058 -38.30241,-64.75929 -46.33454,-82.54554 -12.00741,-26.58904 -16.21175,-43.2632 -15.24343,-60.45446 0.70037,-12.43414 2.32543,-18.91909 7.22829,-28.84518 6.79892,-13.76474 19.75595,-24.29474 36.97894,-30.05227 34.19869,-11.4324 58.29493,-4.13686 81.58603,24.70154 14.18228,17.56012 35.65845,55.19512 39.05489,68.44007 1.75082,6.8276 0.5318,7.45917 -7.06764,3.66168 -3.43512,-1.71655 -6.36585,-2.96008 -6.51273,-2.76342 -0.14688,0.19667 -1.48935,3.77217 -2.98327,7.94555 -3.03216,8.47062 -5.08397,11.91203 -7.10209,11.91203 -0.74646,0 -3.70075,-2.94519 -6.5651,-6.54486 -2.86435,-3.59968 -5.45722,-6.29555 -5.76193,-5.99084 -0.30472,0.30472 -2.17289,3.54497 -4.15149,7.20057 -4.56547,8.43499 -6.43097,9.7351 -9.09018,6.33513 -2.47273,-3.16154 -6.36795,-15.31158 -7.93858,-24.76219 -1.39245,-8.37843 -1.77117,-20.82209 -0.66733,-21.92594 1.35203,-1.35202 2.51325,1.94515 6.22877,17.68596 3.70081,15.67848 4.80687,19.00217 6.3236,19.00217 0.95834,0 10.78279,-19.76841 11.53866,-23.21768 0.40179,-1.83346 -0.47788,-3.02281 -4.47284,-6.04752 -2.73514,-2.07087 -4.97298,-4.44749 -4.97298,-5.28139 0,-3.47215 3.31646,-2.31809 12.80373,4.45543 11.47184,8.19042 18.83833,11.8491 20.50388,10.18355 1.19218,-1.19218 -4.90994,-14.05918 -14.44237,-30.45337 -3.98532,-6.8541 -5.90516,-9.17558 -8.47662,-10.25 -4.31971,-1.80489 -9.55659,-1.7635 -14.04286,0.11098 -5.04081,2.10618 -6.54724,1.93198 -6.16531,-0.71297 0.41141,-2.84915 5.00369,-3.86488 13.80195,-3.05277 l 6.48239,0.59835 -1.56057,-2.4163 c -0.85832,-1.32897 -3.28797,-3.27674 -5.39923,-4.32837 -3.92414,-1.95465 -4.69546,-1.89452 -13.75499,1.07224 -1.27271,0.41678 -1.75,0.0299 -1.75,-1.41855 0,-2.51123 3.87498,-3.39908 11.10037,-2.54334 l 5.23928,0.62052 -2.91983,-3.66051 c -3.20287,-4.01535 -7.85496,-5.56615 -11.24878,-3.74984 -2.71248,1.45168 -4.43326,1.38224 -3.92683,-0.15846 0.22599,-0.6875 2.59626,-1.475 5.26728,-1.75 l 4.85639,-0.5 -9.27462,-8.21208 c -12.89603,-11.4186 -16.4341,-12.72248 -34.59326,-12.74857 -11.65912,-0.0168 -15.33011,0.36337 -21.95493,2.27343 -30.23792,8.71812 -46.04571,31.45439 -44.25124,63.64633 1.41487,25.38232 14.01616,54.99997 46.93274,110.30919 10.79938,18.14604 10.87014,18.30667 10.57279,24 l -0.29936,5.7317 z m 80.63769,-99.25 c 2.61241,-3.09816 5.43736,-8.61785 5.43736,-10.62408 0,-1.03853 -9.48982,-8.12592 -10.88039,-8.12592 -0.48167,0 -1.86243,2.63833 -3.06836,5.86296 -2.07448,5.5471 -2.10683,6.06825 -0.60054,9.67331 3.12408,7.47699 4.96857,8.12753 9.11193,3.21373 z"
       id="path4248"
       inkscape:connector-curvature="0"
       sodipodi:nodetypes="ssssssssssssssssscssssssssssssssscssssssssssssscsssssssssssssssssssscssssscsssscsssssscsssssss" />
    <path
       style="display:inline;fill:none;fill-rule:evenodd;stroke:#000000;stroke-width:3.99999928;stroke-linecap:round;stroke-linejoin:miter;stroke-miterlimit:4;stroke-dasharray:none;stroke-opacity:1"
       d="m 371.98868,338.17538 0,-51.02928"
       id="path4233"
       inkscape:connector-curvature="0"
       sodipodi:nodetypes="cc" />
    <path
       style="display:inline;fill:none;fill-rule:evenodd;stroke:#000000;stroke-width:4;stroke-linecap:round;stroke-linejoin:miter;stroke-miterlimit:4;stroke-dasharray:none;stroke-opacity:1"
       d="m 371.98867,418.73198 0,348.27529"
       id="path4235"
       inkscape:connector-curvature="0" />
    <path
       style="display:inline;fill:none;fill-rule:evenodd;stroke:#000000;stroke-width:4;stroke-linecap:round;stroke-linejoin:miter;stroke-miterlimit:4;stroke-dasharray:none;stroke-opacity:1"
       d="m 371.98868,354.21201 0,30.23421"
       id="path4367"
       inkscape:connector-curvature="0"
       sodipodi:nodetypes="cc" />
    <path
       inkscape:connector-curvature="0"
       id="path4402"
       d="m 243.12211,400.93363 55.50901,-10e-6"
       style="display:inline;fill:none;fill-rule:evenodd;stroke:#000000;stroke-width:3.99999976;stroke-linecap:round;stroke-linejoin:miter;stroke-miterlimit:4;stroke-dasharray:none;stroke-opacity:1"
       sodipodi:nodetypes="cc" />
    <path
       inkscape:connector-curvature="0"
       id="path4404"
       d="m 314.66092,400.93363 40.05973,1e-5"
       style="display:inline;fill:none;fill-rule:evenodd;stroke:#000000;stroke-width:3.99999976;stroke-linecap:round;stroke-linejoin:miter;stroke-miterlimit:4;stroke-dasharray:none;stroke-opacity:1"
       sodipodi:nodetypes="cc" />
    <path
       inkscape:connector-curvature="0"
       id="path4406"
       d="m 453.82642,400.93363 47.17151,0"
       style="display:inline;fill:none;fill-rule:evenodd;stroke:#000000;stroke-width:4;stroke-linecap:round;stroke-linejoin:miter;stroke-miterlimit:4;stroke-dasharray:none;stroke-opacity:1"
       sodipodi:nodetypes="cc" />
    <circle
       style="display:inline;opacity:1;fill:#000000;fill-opacity:1;stroke:#000000;stroke-width:4;stroke-linecap:round;stroke-linejoin:miter;stroke-miterlimit:4;stroke-dasharray:none;stroke-dashoffset:0;stroke-opacity:1"
       id="circle4444"
       cx="371.98868"
       cy="-400.93362"
       r="8.3337564"
       transform="scale(1,-1)" />
  </g>
</svg>
