<?xml version="1.0" standalone="no"?><!DOCTYPE svg PUBLIC "-//W3C//DTD SVG 1.1//EN" "http://www.w3.org/Graphics/SVG/1.1/DTD/svg11.dtd"><svg class="icon" height="512" viewBox="0 0 1024 1024" version="1.1" xmlns="http://www.w3.org/2000/svg"><path d="M855.04 174.08c-7.68-10.24-23.04-12.8-35.84-5.12l-281.6 204.8c-7.68 5.12-10.24 12.8-10.24 20.48 0 7.68 2.56 15.36 10.24 20.48l74.24 56.32-240.64 161.28c-7.68-2.56-15.36-5.12-23.04-5.12-28.16 0-51.2 23.04-51.2 51.2s23.04 51.2 51.2 51.2 51.2-23.04 51.2-51.2v-2.56l271.36-179.2c7.68-5.12 10.24-12.8 10.24-20.48 0-7.68-2.56-15.36-10.24-20.48l-74.24-56.32 253.44-184.32c10.24-12.8 12.8-28.16 5.12-40.96zM348.16 573.44c12.8 0 25.6-10.24 25.6-25.6v-102.4c0-15.36-12.8-25.6-25.6-25.6s-25.6 10.24-25.6 25.6v102.4c0 15.36 10.24 25.6 25.6 25.6zM227.84 519.68c-10.24-10.24-25.6-10.24-35.84 0s-10.24 25.6 0 35.84l35.84 35.84c10.24 10.24 25.6 10.24 35.84 0s10.24-25.6 0-35.84l-35.84-35.84zM227.84 760.32l-35.84 35.84c-10.24 10.24-10.24 25.6 0 35.84s25.6 10.24 35.84 0l35.84-35.84c10.24-10.24 10.24-25.6 0-35.84s-25.6-10.24-35.84 0zM468.48 760.32c-10.24-10.24-25.6-10.24-35.84 0s-10.24 25.6 0 35.84l35.84 35.84c10.24 10.24 25.6 10.24 35.84 0s10.24-25.6 0-35.84l-35.84-35.84zM348.16 778.24c-12.8 0-25.6 10.24-25.6 25.6v102.4c0 15.36 12.8 25.6 25.6 25.6s25.6-10.24 25.6-25.6v-102.4c0-12.8-12.8-25.6-25.6-25.6zM578.56 650.24h-102.4c-12.8 0-25.6 10.24-25.6 25.6s12.8 25.6 25.6 25.6h102.4c12.8 0 25.6-10.24 25.6-25.6s-12.8-25.6-25.6-25.6zM245.76 675.84c0-15.36-12.8-25.6-25.6-25.6h-102.4c-12.8 0-25.6 10.24-25.6 25.6s12.8 25.6 25.6 25.6h102.4c12.8 0 25.6-10.24 25.6-25.6z" /></svg>