<?xml version="1.0" encoding="utf-8"?>
<!-- Generator: Adobe Illustrator 16.0.0, SVG Export Plug-In . SVG Version: 6.00 Build 0)  -->
<!DOCTYPE svg PUBLIC "-//W3C//DTD SVG 1.1//EN" "http://www.w3.org/Graphics/SVG/1.1/DTD/svg11.dtd">
<svg version="1.1" id="Small" xmlns="http://www.w3.org/2000/svg" xmlns:xlink="http://www.w3.org/1999/xlink" x="0px" y="0px"
	 width="234px" height="378px" viewBox="0 0 234 378" enable-background="new 0 0 234 378" xml:space="preserve">
<g>
	<path fill="none" stroke="#FF0000" stroke-width="0.001" stroke-miterlimit="10" d="M53.982,26.64C53.788,16.867,45.819,9,36,9
		c-9.819,0-17.788,7.867-17.982,17.64"/>
	<path fill="none" stroke="#FF0000" stroke-width="0.001" stroke-miterlimit="10" d="M18.018,27.36C18.212,37.133,26.181,45,36,45
		c9.819,0,17.788-7.867,17.982-17.64"/>
</g>
<g>
	<path fill="none" stroke="#FF0000" stroke-width="0.001" stroke-miterlimit="10" d="M107.982,26.64C107.788,16.867,99.819,9,90,9
		c-9.819,0-17.788,7.867-17.982,17.64"/>
	<path fill="none" stroke="#FF0000" stroke-width="0.001" stroke-miterlimit="10" d="M72.018,27.36C72.212,37.133,80.181,45,90,45
		c9.819,0,17.788-7.867,17.982-17.64"/>
</g>
<g>
	<path fill="none" stroke="#FF0000" stroke-width="0.001" stroke-miterlimit="10" d="M161.982,26.64C161.787,16.867,153.818,9,144,9
		c-9.82,0-17.789,7.867-17.982,17.64"/>
	<path fill="none" stroke="#FF0000" stroke-width="0.001" stroke-miterlimit="10" d="M126.018,27.36
		C126.211,37.133,134.182,45,144,45s17.787-7.867,17.98-17.64"/>
</g>
<g>
	<path fill="none" stroke="#FF0000" stroke-width="0.001" stroke-miterlimit="10" d="M215.982,26.64C215.787,16.867,207.818,9,198,9
		c-9.82,0-17.789,7.867-17.982,17.64"/>
	<path fill="none" stroke="#FF0000" stroke-width="0.001" stroke-miterlimit="10" d="M180.018,27.36
		C180.211,37.133,188.182,45,198,45s17.787-7.867,17.98-17.64"/>
</g>
<g>
	<path fill="none" stroke="#FF0000" stroke-width="0.001" stroke-miterlimit="10" d="M53.982,80.64C53.788,70.867,45.819,63,36,63
		c-9.819,0-17.788,7.867-17.982,17.64"/>
	<path fill="none" stroke="#FF0000" stroke-width="0.001" stroke-miterlimit="10" d="M18.018,81.36C18.212,91.133,26.181,99,36,99
		c9.819,0,17.788-7.867,17.982-17.64"/>
</g>
<g>
	<path fill="none" stroke="#FF0000" stroke-width="0.001" stroke-miterlimit="10" d="M107.982,80.64C107.788,70.867,99.819,63,90,63
		c-9.819,0-17.788,7.867-17.982,17.64"/>
	<path fill="none" stroke="#FF0000" stroke-width="0.001" stroke-miterlimit="10" d="M72.018,81.36C72.212,91.133,80.181,99,90,99
		c9.819,0,17.788-7.867,17.982-17.64"/>
</g>
<g>
	<path fill="none" stroke="#FF0000" stroke-width="0.001" stroke-miterlimit="10" d="M161.982,80.64
		C161.787,70.867,153.818,63,144,63c-9.82,0-17.789,7.867-17.982,17.64"/>
	<path fill="none" stroke="#FF0000" stroke-width="0.001" stroke-miterlimit="10" d="M126.018,81.36
		C126.211,91.133,134.182,99,144,99s17.787-7.867,17.98-17.64"/>
</g>
<g>
	<path fill="none" stroke="#FF0000" stroke-width="0.001" stroke-miterlimit="10" d="M215.982,80.64
		C215.787,70.867,207.818,63,198,63c-9.82,0-17.789,7.867-17.982,17.64"/>
	<path fill="none" stroke="#FF0000" stroke-width="0.001" stroke-miterlimit="10" d="M180.018,81.36
		C180.211,91.133,188.182,99,198,99s17.787-7.867,17.98-17.64"/>
</g>
<g>
	<path fill="none" stroke="#FF0000" stroke-width="0.001" stroke-miterlimit="10" d="M53.982,134.64
		C53.788,124.867,45.819,117,36,117c-9.819,0-17.788,7.867-17.982,17.64"/>
	<path fill="none" stroke="#FF0000" stroke-width="0.001" stroke-miterlimit="10" d="M18.018,135.36
		C18.212,145.133,26.181,153,36,153c9.819,0,17.788-7.866,17.982-17.64"/>
</g>
<g>
	<path fill="none" stroke="#FF0000" stroke-width="0.001" stroke-miterlimit="10" d="M107.982,134.64
		C107.788,124.867,99.819,117,90,117c-9.819,0-17.788,7.867-17.982,17.64"/>
	<path fill="none" stroke="#FF0000" stroke-width="0.001" stroke-miterlimit="10" d="M72.018,135.36
		C72.212,145.133,80.181,153,90,153c9.819,0,17.788-7.866,17.982-17.64"/>
</g>
<g>
	<path fill="none" stroke="#FF0000" stroke-width="0.001" stroke-miterlimit="10" d="M161.982,134.64
		C161.789,124.867,153.818,117,144,117s-17.787,7.867-17.982,17.64"/>
	<path fill="none" stroke="#FF0000" stroke-width="0.001" stroke-miterlimit="10" d="M126.018,135.36
		C126.211,145.133,134.182,153,144,153s17.787-7.866,17.98-17.64"/>
</g>
<g>
	<path fill="none" stroke="#FF0000" stroke-width="0.001" stroke-miterlimit="10" d="M215.982,134.64
		C215.789,124.867,207.818,117,198,117s-17.787,7.867-17.982,17.64"/>
	<path fill="none" stroke="#FF0000" stroke-width="0.001" stroke-miterlimit="10" d="M180.018,135.36
		C180.211,145.133,188.182,153,198,153s17.787-7.866,17.98-17.64"/>
</g>
<g>
	<path fill="none" stroke="#FF0000" stroke-width="0.001" stroke-miterlimit="10" d="M53.982,188.64
		C53.788,178.867,45.819,171,36,171c-9.819,0-17.788,7.866-17.982,17.64"/>
	<path fill="none" stroke="#FF0000" stroke-width="0.001" stroke-miterlimit="10" d="M18.018,189.36
		C18.212,199.133,26.181,207,36,207c9.819,0,17.788-7.866,17.982-17.64"/>
</g>
<g>
	<path fill="none" stroke="#FF0000" stroke-width="0.001" stroke-miterlimit="10" d="M107.982,188.64
		C107.788,178.867,99.819,171,90,171c-9.819,0-17.788,7.866-17.982,17.64"/>
	<path fill="none" stroke="#FF0000" stroke-width="0.001" stroke-miterlimit="10" d="M72.018,189.36
		C72.212,199.133,80.181,207,90,207c9.819,0,17.788-7.866,17.982-17.64"/>
</g>
<g>
	<path fill="none" stroke="#FF0000" stroke-width="0.001" stroke-miterlimit="10" d="M161.982,188.64
		C161.789,178.867,153.818,171,144,171s-17.787,7.866-17.982,17.64"/>
	<path fill="none" stroke="#FF0000" stroke-width="0.001" stroke-miterlimit="10" d="M126.018,189.36
		C126.211,199.133,134.182,207,144,207s17.787-7.866,17.98-17.64"/>
</g>
<g>
	<path fill="none" stroke="#FF0000" stroke-width="0.001" stroke-miterlimit="10" d="M215.982,188.64
		C215.789,178.867,207.818,171,198,171s-17.787,7.866-17.982,17.64"/>
	<path fill="none" stroke="#FF0000" stroke-width="0.001" stroke-miterlimit="10" d="M180.018,189.36
		C180.211,199.133,188.182,207,198,207s17.787-7.866,17.98-17.64"/>
</g>
<g>
	<path fill="none" stroke="#FF0000" stroke-width="0.001" stroke-miterlimit="10" d="M53.982,242.641
		C53.788,232.867,45.819,225,36,225c-9.819,0-17.788,7.866-17.982,17.641"/>
	<path fill="none" stroke="#FF0000" stroke-width="0.001" stroke-miterlimit="10" d="M18.018,243.359
		C18.212,253.133,26.181,261,36,261c9.819,0,17.788-7.866,17.982-17.641"/>
</g>
<g>
	<path fill="none" stroke="#FF0000" stroke-width="0.001" stroke-miterlimit="10" d="M107.982,242.641
		C107.788,232.867,99.819,225,90,225c-9.819,0-17.788,7.866-17.982,17.641"/>
	<path fill="none" stroke="#FF0000" stroke-width="0.001" stroke-miterlimit="10" d="M72.018,243.359
		C72.212,253.133,80.181,261,90,261c9.819,0,17.788-7.866,17.982-17.641"/>
</g>
<g>
	<path fill="none" stroke="#FF0000" stroke-width="0.001" stroke-miterlimit="10" d="M161.982,242.641
		C161.789,232.868,153.818,225,144,225s-17.787,7.866-17.982,17.641"/>
	<path fill="none" stroke="#FF0000" stroke-width="0.001" stroke-miterlimit="10" d="M126.018,243.359
		C126.211,253.132,134.182,261,144,261s17.787-7.866,17.98-17.641"/>
</g>
<g>
	<path fill="none" stroke="#FF0000" stroke-width="0.001" stroke-miterlimit="10" d="M215.982,242.641
		C215.789,232.868,207.818,225,198,225s-17.787,7.866-17.982,17.641"/>
	<path fill="none" stroke="#FF0000" stroke-width="0.001" stroke-miterlimit="10" d="M180.018,243.359
		C180.211,253.132,188.182,261,198,261s17.787-7.866,17.98-17.641"/>
</g>
<g>
	<path fill="none" stroke="#FF0000" stroke-width="0.001" stroke-miterlimit="10" d="M53.982,296.641
		C53.788,286.867,45.819,279,36,279c-9.819,0-17.788,7.866-17.982,17.641"/>
	<path fill="none" stroke="#FF0000" stroke-width="0.001" stroke-miterlimit="10" d="M18.018,297.359
		C18.212,307.133,26.181,315,36,315c9.819,0,17.788-7.866,17.982-17.641"/>
</g>
<g>
	<path fill="none" stroke="#FF0000" stroke-width="0.001" stroke-miterlimit="10" d="M107.982,296.641
		C107.788,286.867,99.819,279,90,279c-9.819,0-17.788,7.866-17.982,17.641"/>
	<path fill="none" stroke="#FF0000" stroke-width="0.001" stroke-miterlimit="10" d="M72.018,297.359
		C72.212,307.133,80.181,315,90,315c9.819,0,17.788-7.866,17.982-17.641"/>
</g>
<g>
	<path fill="none" stroke="#FF0000" stroke-width="0.001" stroke-miterlimit="10" d="M161.982,296.641
		C161.789,286.868,153.818,279,144,279s-17.787,7.866-17.982,17.641"/>
	<path fill="none" stroke="#FF0000" stroke-width="0.001" stroke-miterlimit="10" d="M126.018,297.359
		C126.211,307.132,134.182,315,144,315s17.787-7.866,17.98-17.641"/>
</g>
<g>
	<path fill="none" stroke="#FF0000" stroke-width="0.001" stroke-miterlimit="10" d="M215.982,296.641
		C215.789,286.868,207.818,279,198,279s-17.787,7.866-17.982,17.641"/>
	<path fill="none" stroke="#FF0000" stroke-width="0.001" stroke-miterlimit="10" d="M180.018,297.359
		C180.211,307.132,188.182,315,198,315s17.787-7.866,17.98-17.641"/>
</g>
<g>
	<path fill="none" stroke="#FF0000" stroke-width="0.001" stroke-miterlimit="10" d="M53.982,350.641
		C53.788,340.867,45.819,333,36,333c-9.819,0-17.788,7.866-17.982,17.641"/>
	<path fill="none" stroke="#FF0000" stroke-width="0.001" stroke-miterlimit="10" d="M18.018,351.359
		C18.212,361.133,26.181,369,36,369c9.819,0,17.788-7.866,17.982-17.641"/>
</g>
<g>
	<path fill="none" stroke="#FF0000" stroke-width="0.001" stroke-miterlimit="10" d="M107.982,350.641
		C107.788,340.867,99.819,333,90,333c-9.819,0-17.788,7.866-17.982,17.641"/>
	<path fill="none" stroke="#FF0000" stroke-width="0.001" stroke-miterlimit="10" d="M72.018,351.359
		C72.212,361.133,80.181,369,90,369c9.819,0,17.788-7.866,17.982-17.641"/>
</g>
<g>
	<path fill="none" stroke="#FF0000" stroke-width="0.001" stroke-miterlimit="10" d="M161.982,350.641
		C161.789,340.868,153.818,333,144,333s-17.787,7.866-17.982,17.641"/>
	<path fill="none" stroke="#FF0000" stroke-width="0.001" stroke-miterlimit="10" d="M126.018,351.359
		C126.211,361.132,134.182,369,144,369s17.787-7.866,17.98-17.641"/>
</g>
<g>
	<path fill="none" stroke="#FF0000" stroke-width="0.001" stroke-miterlimit="10" d="M215.982,350.641
		C215.789,340.868,207.818,333,198,333s-17.787,7.866-17.982,17.641"/>
	<path fill="none" stroke="#FF0000" stroke-width="0.001" stroke-miterlimit="10" d="M180.018,351.359
		C180.211,361.132,188.182,369,198,369s17.787-7.866,17.98-17.641"/>
</g>
</svg>
