<?xml version="1.0" encoding="UTF-8" standalone="no"?>
<!-- Created with Inkscape (http://www.inkscape.org/) -->

<svg
   xmlns:dc="http://purl.org/dc/elements/1.1/"
   xmlns:cc="http://creativecommons.org/ns#"
   xmlns:rdf="http://www.w3.org/1999/02/22-rdf-syntax-ns#"
   xmlns:svg="http://www.w3.org/2000/svg"
   xmlns="http://www.w3.org/2000/svg"
   xmlns:sodipodi="http://sodipodi.sourceforge.net/DTD/sodipodi-0.dtd"
   xmlns:inkscape="http://www.inkscape.org/namespaces/inkscape"
   width="33.302223mm"
   height="49.679398mm"
   viewBox="0 0 118 176.02936"
   id="svg4401"
   version="1.1"
   inkscape:version="0.91 r13725"
   sodipodi:docname="lion head.svg">
  <defs
     id="defs4403" />
  <sodipodi:namedview
     id="base"
     pagecolor="#ffffff"
     bordercolor="#666666"
     borderopacity="1.0"
     inkscape:pageopacity="0.0"
     inkscape:pageshadow="2"
     inkscape:zoom="1.4"
     inkscape:cx="142.87566"
     inkscape:cy="101.09718"
     inkscape:document-units="px"
     inkscape:current-layer="layer1"
     showgrid="false"
     fit-margin-top="0"
     fit-margin-left="0"
     fit-margin-right="0"
     fit-margin-bottom="0" />
  <metadata
     id="metadata4406">
    <rdf:RDF>
      <cc:Work
         rdf:about="">
        <dc:format>image/svg+xml</dc:format>
        <dc:type
           rdf:resource="http://purl.org/dc/dcmitype/StillImage" />
        <dc:title></dc:title>
      </cc:Work>
    </rdf:RDF>
  </metadata>
  <g
     inkscape:label="Layer 1"
     inkscape:groupmode="layer"
     id="layer1"
     transform="translate(-225.14289,-324.55221)">
    <path
       style="fill:#000000"
       d="m 277.89289,499.95887 c -3.56579,-1.3602 -3.55747,-2.6199 0.19402,-29.38234 1.61906,-11.55 3.4818,-25.725 4.13944,-31.5 0.65764,-5.775 1.54719,-10.89179 1.97676,-11.37064 0.94085,-1.04876 1.30941,1.69035 3.95199,29.37064 1.12891,11.825 2.48799,23.94515 3.02017,26.93366 1.5654,8.79049 1.26004,13.83947 -0.90714,14.99931 -2.98862,1.59947 -9.38469,2.09014 -12.37524,0.94937 z m 17.69489,-23.88234 c 1.23675,-13.6479 1.68602,-42.83724 0.77726,-50.5 -0.52181,-4.4 -0.80951,-8.16325 -0.63934,-8.36278 1.45523,-1.70622 10.02336,21.20925 12.51901,33.4821 1.23604,6.07846 1.22051,6.1686 -2.32557,13.5 -1.96345,4.05937 -5.22377,9.85568 -7.24515,12.88068 l -3.67523,5.5 0.58902,-6.5 z m -26.8912,0.79782 c -2.02621,-2.3638 -5.25236,-7.46771 -7.16921,-11.34201 -3.25322,-6.57533 -3.41575,-7.35408 -2.44183,-11.69992 1.1355,-5.06679 11.7283,-34.79378 12.72086,-35.69902 0.33583,-0.30628 0.35727,8.89313 0.0476,20.44313 -0.30961,11.55 -0.18502,25.725 0.27688,31.5 0.4619,5.775 0.70704,10.63402 0.54474,10.79782 -0.16229,0.16379 -1.95288,-1.63621 -3.97909,-4 z m 40.40321,-36.01056 c -0.0237,-0.15799 -0.22431,-12.66226 -0.44578,-27.78726 -0.30936,-21.12662 -0.13488,-27.03648 0.75285,-25.5 0.63554,1.1 4.18126,10.775 7.87938,21.5 7.75192,22.48152 7.84881,21.21445 -2.1409,27.99833 -3.30135,2.24191 -6.02185,3.94692 -6.04555,3.78893 z m -57.28358,-5.88025 c -2.56826,-1.70115 -5.65848,-4.48179 -6.86714,-6.17921 l -2.19758,-3.08621 2.80691,-8.07079 c 3.14747,-9.05001 10.55073,-25.31537 13.10444,-28.79115 1.63696,-2.22803 1.66141,-2.17775 1.07988,2.22035 -1.54853,11.71153 -2.51406,33.19378 -1.78657,39.75 0.93686,8.44312 0.6372,8.646 -6.13994,4.15701 z m 29.82629,-12.29292 c -1.65021,-0.7192 -3.6392,-2.07736 -4.41998,-3.01815 -1.25176,-1.50827 -1.13348,-1.99646 1.00038,-4.129 3.44674,-3.44462 7.69231,-3.99776 11.66999,-1.52045 3.99528,2.48828 4.03797,3.41939 0.32692,7.13043 -3.25269,3.25269 -4.23646,3.429 -8.57731,1.53717 z m -12.20466,-11.11914 c -2.55327,-2.55327 -3.29681,-3.97889 -2.73816,-5.25 3.16397,-7.19916 0.79869,-15.48438 -8.10338,-28.38488 -3.55244,-5.14804 -6.93354,-10.79502 -7.51354,-12.54884 -1.53121,-4.63007 0.88205,-8.89005 5.81173,-10.25909 4.64531,-1.29007 4.85548,-1.28889 9.69373,0.0544 3.51267,0.97524 3.732,1.20893 2,2.13099 -2.5409,1.35269 -6.44533,4.90488 -6.44533,5.86385 0,0.414 2.55077,-0.78326 5.66838,-2.66059 11.18969,-6.73808 19.56923,-6.25005 39.24566,2.28569 3.47144,1.50592 -0.44503,-1.95798 -4.60302,-4.07113 l -4.55143,-2.31311 3.13908,-1.30025 c 4.26824,-1.76796 11.10298,-0.75815 13.30918,1.96639 2.6276,3.24495 3.22368,8.25648 1.40121,11.78074 -0.86236,1.66763 -4.01647,6.4448 -7.00911,10.61592 -7.17482,10.0002 -8.1268,13.00298 -6.63274,20.92122 1.35275,7.1693 0.45975,10.69268 -3.34133,13.18323 -2.30273,1.50882 -2.73217,1.47695 -6.58493,-0.48858 -6.42779,-3.27921 -7.62297,-10.34946 -1.89347,-11.20105 1.18353,-0.17591 3.04291,-1.51788 4.13197,-2.98215 1.83011,-2.46064 1.88691,-3.15622 0.74978,-9.18279 -1.31841,-6.98728 -0.95329,-8.6549 1.89493,-8.6549 1.91405,0 7.07584,-3.60042 7.07584,-4.9355 0,-0.93971 -8.89751,1.77591 -10.87983,3.32065 -1.06967,0.83354 -1.23901,2.9073 -0.75337,9.22539 0.70334,9.1502 0.22228,10.09505 -5.62278,11.04357 -2.21363,0.35923 -4.57881,-0.0344 -6.65381,-1.10746 -3.18355,-1.64628 -3.21178,-1.72544 -2.53815,-7.11703 1.00302,-8.02788 -0.46414,-10.73573 -7.2169,-13.31987 -6.94723,-2.65855 -7.18243,-2.64053 -4.38603,0.3361 1.26376,1.34521 3.7047,2.58271 5.42431,2.75 l 3.12656,0.30415 0.13141,7.71978 c 0.16418,9.64403 0.43437,10.3168 4.71015,11.72793 4.29786,1.41842 4.90375,2.83567 2.94303,6.88412 -1.34343,2.77386 -6.70905,7.16817 -8.75262,7.16817 -0.40259,0 -2.30924,-1.57727 -4.23702,-3.50505 z m 51.55009,-23.67223 c 0.25678,-11.19841 -0.0268,-19.05695 -0.81466,-22.57758 -0.6647,-2.97017 -1.0109,-5.59795 -0.76934,-5.83951 0.24155,-0.24156 3.79982,2.83086 7.90725,6.82759 7.29874,7.10204 15.83171,18.80192 15.83171,21.70748 0,2.27514 -9.21064,10.35992 -15.80962,13.87715 -3.28369,1.75018 -6.14333,3.18215 -6.35477,3.18215 -0.21144,0 -0.2072,-7.72977 0.009,-17.17728 z m -81.89785,10.62302 c -8.43961,-4.50298 -13.94719,-9.07049 -13.94719,-11.56658 0,-2.87544 6.35441,-12.35081 12.84888,-19.15957 9.20705,-9.65263 8.65112,-10.51223 8.65112,13.37673 0,11.49526 -0.225,20.88815 -0.5,20.87308 -0.275,-0.0151 -3.44877,-1.60071 -7.05281,-3.52366 z m 96.62296,-34.92464 c -9.84775,-8.07203 -13.20327,-9.50975 -25.45101,-10.90489 l -10.61914,-1.20963 5,-1.19135 c 13.76884,-3.28071 31.40235,-4.32398 33.2165,-1.96523 1.31117,1.70477 5.61127,18.2667 5.12302,19.73143 -0.22531,0.67593 -3.31911,-1.22236 -7.26937,-4.46033 z m -109.57015,0.87324 c 0,-2.64904 3.10143,-13.80072 4.21185,-15.14434 2.10955,-2.5526 37.78815,-0.85549 37.78815,1.79745 0,0.38596 -3.7523,0.89869 -8.33845,1.1394 -6.98097,0.36641 -9.58477,1.02954 -15.99414,4.07333 -4.21062,1.99962 -9.6519,5.0091 -12.09172,6.68774 -5.10435,3.51189 -5.57569,3.63416 -5.57569,1.44642 z m 47.63481,-15.0779 c -2.67586,-1.38883 -8.52586,-3.17984 -13,-3.98002 -4.47415,-0.80019 -9.93481,-1.77832 -12.13481,-2.17364 l -4,-0.71875 8.5,-2.64187 c 13.68728,-4.25412 13.89258,-4.24807 18.33616,0.54075 6.51751,7.0239 9.92208,11.66244 8.49787,11.57788 -0.73372,-0.0436 -3.52337,-1.21552 -6.19922,-2.60435 z m 7.48229,-4.06644 c -1.82169,-3.7125 -4.89756,-9.37322 -6.83526,-12.57938 -2.69281,-4.45558 -3.24689,-6.10525 -2.3511,-7 1.55404,-1.55223 24.53039,-1.61084 26.07393,-0.0665 0.80481,0.80522 0.11075,2.79803 -2.5639,7.36164 -2.0171,3.44165 -4.97092,9.1323 -6.56406,12.6459 -1.59314,3.51359 -3.24556,6.38835 -3.67203,6.38835 -0.42648,0 -2.26589,-3.0375 -4.08758,-6.75 z m 14.8829,-0.34558 7.5,-7.0085 6.05951,0.56037 c 3.33273,0.30821 8.04979,1.13662 10.48236,1.84091 l 4.42286,1.28054 -5.98237,1.32803 c -3.2903,0.73041 -10.89545,3.07542 -16.90034,5.21113 -6.00489,2.1357 -11.40489,3.86351 -12,3.83956 -0.59511,-0.0239 2.29298,-3.19736 6.41798,-7.05204 z"
       id="path4471"
       inkscape:connector-curvature="0" />
  </g>
</svg>
