<?xml version="1.0" encoding="UTF-8" standalone="no"?>
<!-- Created with Inkscape (http://www.inkscape.org/) -->

<svg
   xmlns:dc="http://purl.org/dc/elements/1.1/"
   xmlns:cc="http://creativecommons.org/ns#"
   xmlns:rdf="http://www.w3.org/1999/02/22-rdf-syntax-ns#"
   xmlns:svg="http://www.w3.org/2000/svg"
   xmlns="http://www.w3.org/2000/svg"
   xmlns:sodipodi="http://sodipodi.sourceforge.net/DTD/sodipodi-0.dtd"
   xmlns:inkscape="http://www.inkscape.org/namespaces/inkscape"
   width="60.113335mm"
   height="67.168892mm"
   viewBox="0 0 213 238.00001"
   id="svg4645"
   version="1.1"
   inkscape:version="0.91 r13725"
   sodipodi:docname="lion head - inverse.svg">
  <defs
     id="defs4647" />
  <sodipodi:namedview
     id="base"
     pagecolor="#ffffff"
     bordercolor="#666666"
     borderopacity="1.0"
     inkscape:pageopacity="0.0"
     inkscape:pageshadow="2"
     inkscape:zoom="1.979899"
     inkscape:cx="140.06813"
     inkscape:cy="119.0915"
     inkscape:document-units="px"
     inkscape:current-layer="layer1"
     showgrid="false"
     fit-margin-top="0"
     fit-margin-left="0"
     fit-margin-right="0"
     fit-margin-bottom="0" />
  <metadata
     id="metadata4650">
    <rdf:RDF>
      <cc:Work
         rdf:about="">
        <dc:format>image/svg+xml</dc:format>
        <dc:type
           rdf:resource="http://purl.org/dc/dcmitype/StillImage" />
        <dc:title></dc:title>
      </cc:Work>
    </rdf:RDF>
  </metadata>
  <g
     inkscape:label="Layer 1"
     inkscape:groupmode="layer"
     id="layer1"
     transform="translate(-207.19141,-378.72986)">
    <path
       style="fill:#000000"
       d="m 207.19141,497.72986 0,-119 106.5,0 106.5,0 0,119 0,119 -106.5,0 -106.5,0 0,-119 z m 128.7204,93.83176 c 10.06513,-5.67744 16.06994,-15.38636 18.59837,-30.07095 1.5687,-9.11061 4.33317,-14.96898 7.98619,-16.92402 1.86276,-0.99692 1.79895,-0.74899 -0.51504,2.00103 -3.32595,3.95266 -5.98484,12.93309 -5.5914,18.88498 l 0.30148,4.56079 3.47839,-5.3918 c 1.91311,-2.96548 5.90718,-8.76679 8.8757,-12.89179 7.69127,-10.68762 12.10609,-21.63559 12.13404,-30.09028 0.0269,-8.14911 -8.2403,-19.38479 -18.73005,-25.45527 l -3.24192,-1.87612 -4.01452,3.92006 c -5.77579,5.63992 -8.33494,13.02208 -7.62721,22.00161 0.30344,3.85 0.84242,8.68628 1.19773,10.74729 1.4836,8.60574 -2.27583,11.75271 -14.04004,11.75271 -8.07092,0 -8.29375,0.94973 -1.90942,8.13815 5.73447,6.45671 7.3773,10.2859 7.3773,17.19537 0,6.34947 -4.56754,16.4647 -10.63595,23.55427 -3.42356,3.99967 -3.53243,4.30335 -1.30024,3.6269 1.33991,-0.40604 4.78537,-2.06337 7.65659,-3.68293 z m -18.78219,0.25496 c 6.63298,-4.65275 8.90638,-13.56635 5.26939,-20.66038 -2.52321,-4.92159 -4.81615,-7.00726 -14.2076,-12.92332 -15.35768,-9.67443 -16.52818,-11.93024 -11.35691,-21.88724 3.05882,-5.88959 3.7732,-8.42415 4.14566,-14.70846 0.50551,-8.52916 -0.51277,-11.47169 -4.49359,-12.9852 -5.20671,-1.97959 -13.65004,2.93285 -17.28404,10.05608 -2.75632,5.40284 -4.35169,16.0173 -3.54275,23.57102 0.37995,3.54793 1.0146,6.45078 1.41034,6.45078 0.39573,0 1.33573,-1.6875 2.08889,-3.75 l 1.36937,-3.75 1.38214,6.16672 c 1.80482,8.05265 6.39041,13.26734 17.40704,19.7951 10.72778,6.35661 12.87385,8.50768 12.87385,12.90383 0,4.0149 -3.96212,8.02785 -9.02384,9.13959 -2.50579,0.55036 -2.85552,0.93519 -1.89819,2.08871 2.84086,3.42302 11.30784,3.68609 15.86024,0.49277 z m 15.5967,-24.70252 c -1.00378,-6.69365 -5.13373,-11.30163 -15.87318,-17.71043 -10.57615,-6.31135 -12.50613,-8.52509 -10.76461,-12.34732 0.60658,-1.3313 1.10288,-2.69413 1.10288,-3.02849 0,-1.23192 -4.25111,3.28695 -5.6658,6.02267 -3.10163,5.99788 0.55126,11.06629 13.33503,18.50246 8.32507,4.8426 13.82584,10.76064 14.86344,15.99092 l 0.73123,3.68599 1.45185,-3.44834 c 0.94701,-2.24927 1.23185,-4.91544 0.81916,-7.66746 z m -64.24216,-6.39984 c 4.16853,-3.27896 5.06336,-7.66482 3.6596,-17.93696 -1.29821,-9.4998 -0.85009,-22.15961 1.00082,-28.27441 1.14527,-3.7836 7.90491,-14.18952 15.11804,-23.27299 7.47024,-9.40727 6.63049,-12.84619 -3.24568,-13.29159 -9.36541,-0.42236 -14.41888,2.06171 -24.02273,11.80855 -4.29154,4.35544 -7.8028,8.35056 -7.8028,8.87805 0,0.5275 2.56901,-0.58789 5.7089,-2.47864 5.20542,-3.13454 12.19853,-5.84227 13.0052,-5.0356 0.17961,0.1796 -1.44618,1.4997 -3.61286,2.93354 -5.64824,3.73782 -8.80309,8.37249 -10.71585,15.74223 -1.44578,5.57052 -1.51021,7.59501 -0.47555,14.94346 0.65823,4.675 2.5228,12.37841 4.14348,17.11869 1.62067,4.74028 2.94668,9.77726 2.94668,11.19329 0,3.22281 -3.34697,5.68802 -7.72251,5.68802 -3.8015,0 -4.25379,1.22352 -1.02749,2.77951 3.78722,1.8265 10.20745,1.4351 13.04275,-0.79515 z m 52.40642,-18.97039 c -1.5895,-4.21106 -0.11121,-5.26303 7.86416,-5.59625 8.33889,-0.34841 11.43667,-2.68913 11.43667,-8.64169 0,-8.64425 -5.29732,-12.81608 -16.15113,-12.71959 -7.21773,0.0642 -12.66403,1.65226 -14.21771,4.14576 -0.78494,1.25974 -0.59563,2.99532 0.72832,6.67708 1.40215,3.89926 1.54471,5.43123 0.65933,7.08557 -1.66512,3.11131 -0.54886,5.1643 4.74198,8.72128 5.92762,3.98509 6.32889,4.01173 4.93838,0.32784 z m 18.78067,-33.6989 c 1.00322,-8.0295 2.01203,-10.18053 7.30927,-15.58517 3.80362,-3.88075 4.47771,-5.08335 3.61551,-6.45021 -0.58288,-0.92406 -5.72951,-4.22895 -11.43696,-7.34419 -5.70745,-3.11523 -10.54754,-6.17514 -10.75575,-6.79978 -0.25472,-0.76414 1.69357,-1.15458 5.95476,-1.19335 8.91889,-0.0812 14.25526,-1.17922 14.60701,-3.00569 0.26168,-1.35879 -1.83448,-3.57103 -14.38807,-15.18489 l -3.11439,-2.88125 -4.69643,4.06473 c -2.58304,2.2356 -5.28218,4.06473 -5.9981,4.06473 -0.71593,0 -3.00043,-1.35 -5.07669,-3 -2.07626,-1.65 -4.12272,-3 -4.54771,-3 -1.07802,0 -9.86671,7.12257 -13.29466,10.77432 -1.58348,1.68686 -2.68574,3.8468 -2.48874,4.87681 0.30833,1.61208 1.50482,1.88086 9.34236,2.09867 4.94381,0.13739 10.04096,0.49343 11.327,0.7912 2.02414,0.46867 2.15848,0.75816 1,2.15497 -0.73604,0.88746 -4.96829,3.95561 -9.40501,6.81812 -7.86306,5.07313 -12.43324,9.4838 -12.43324,11.99929 0,0.68402 2.44239,3.33027 5.42753,5.88056 3.54766,3.03086 5.84279,5.9304 6.62643,8.37147 1.7452,5.43634 3.83858,7.4755 6.90229,6.72351 5.14025,-1.26168 7.04375,-3.27412 7.04375,-7.44687 0,-6.7528 -1.3234,-8.61697 -8.57377,-12.07726 -4.82857,-2.30446 -6.29958,-3.4309 -5.30396,-4.06152 0.75775,-0.47995 8.05273,-0.87954 16.21106,-0.88796 16.91194,-0.0175 17.58787,0.46722 8.09895,5.80737 -3.24724,1.82747 -6.26729,3.85247 -6.71122,4.5 -1.23524,1.80176 0.0808,9.80085 1.95272,11.86935 1.70876,1.88815 6.18325,3.55818 9.961,3.71778 1.86183,0.0787 2.22559,-0.63665 2.84506,-5.59474 z m 52.18921,-5.06507 c 1.2016,-2.87555 1.46568,-6.20978 1.13251,-14.29853 -0.23897,-5.80169 -0.73338,-11.03213 -1.09868,-11.62321 -0.46683,-0.75535 -2.37854,-0.67128 -6.43354,0.2829 -3.17314,0.74668 -7.34434,1.33425 -9.26934,1.30572 -3.31544,-0.0491 -3.23814,-0.12214 1.46578,-1.38457 3.05538,-0.82 5.89063,-2.40791 7.36978,-4.12752 2.07268,-2.40965 2.33049,-3.507 1.87064,-7.9625 -0.6142,-5.95099 -4.65389,-14.59182 -7.87744,-16.84968 -1.21445,-0.85063 -2.32288,-1.43183 -2.46317,-1.29153 -0.14029,0.14029 0.12245,1.92895 0.58386,3.9748 1.07794,4.77943 -0.38557,11.29605 -3.43464,15.29359 -1.30448,1.71027 -5.2244,4.47219 -8.71094,6.13761 -7.95884,3.80172 -9.40171,5.36214 -7.61128,8.2314 0.71908,1.15236 5.42733,4.99585 10.46278,8.5411 5.03546,3.54524 10.17158,7.92516 11.41361,9.73316 6.24391,9.08911 9.9878,10.28872 12.60007,4.03726 z m -150.66905,0.22458 c 3.29943,-1.69531 5.99155,-4.7305 10.47501,-11.80986 5.89857,-9.31383 10.27484,-13.03724 19.5084,-16.59808 9.93978,-3.83318 13.8293,-6.21488 21.30041,-13.04306 7.61506,-6.95974 7.45278,-10.93308 -0.65111,-15.94156 -3.99575,-2.46951 -8.09385,-2.61626 -16.17261,-0.57913 -6.71786,1.69396 -25.4601,9.44067 -25.4601,10.52338 0,0.38829 2.5875,0.13586 5.75,-0.56097 3.1625,-0.69682 7.95384,-1.48878 10.64743,-1.7599 l 4.89742,-0.49296 -5.89742,2.85117 c -10.86,5.25036 -16.67894,12.73457 -21.33172,27.43639 -4.9566,15.66187 -11.43747,21.25718 -17.75126,15.32569 -2.27067,-2.13318 -2.31445,-2.13612 -2.31445,-0.15499 0,3.91921 6.39852,7.62293 11.5,6.65666 1.65,-0.31253 4.125,-1.14628 5.5,-1.85278 z m 128.83353,-41.15649 c 7.41641,-4.68357 6.2875,-19.04397 -2.33894,-29.75255 l -2.36389,-2.93447 -0.62491,2.93447 c -1.72892,8.1187 -3.98988,7.94352 -4.07694,-0.31588 -0.076,-7.20795 -2.7157,-14.79719 -6.57609,-18.90638 -3.32935,-3.54394 -10.90557,-6.19291 -20.94644,-7.32379 -11.8769,-1.33766 -21.90632,-3.07925 -21.90632,-3.80398 0,-0.30692 0.74773,-1.38426 1.66161,-2.39409 1.58809,-1.75481 1.51064,-1.8073 -1.75,-1.18592 -12.88509,2.45547 -12.39035,11.44374 0.70422,12.79366 18.93322,1.95183 25.86661,4.79872 29.37653,12.0622 2.8735,5.94647 3.58324,14.19528 1.62468,18.88276 -1.77289,4.24314 -1.74589,4.33338 3.10537,10.37634 4.26411,5.31159 9.16548,9.09083 14.02556,10.81453 3.99099,1.41547 6.32705,1.12665 10.08556,-1.2469 z m -41.9392,-14.84159 c 5.03203,-4.54613 7.10567,-9.03294 7.10567,-15.37475 0,-4.42171 -0.46421,-5.60981 -3.50836,-8.97932 -4.15815,-4.60257 -10.52706,-7.54763 -19.82327,-9.16649 -7.55825,-1.31622 -9.27834,-0.84415 -5.0113,1.37531 3.66106,1.90426 6.93452,5.4424 8.25157,8.91875 1.15957,3.0607 0.0742,3.64215 -2.0362,1.09086 -2.63768,-3.18867 -11.07636,-6.32081 -17.05734,-6.33109 -7.50528,-0.0129 -9.45976,0.83401 -21.09417,9.1405 -5.42434,3.87276 -10.8431,7.18409 -12.04168,7.35852 -1.19859,0.17443 -4.5702,1.26529 -7.49247,2.42412 -5.86293,2.32497 -7.57346,1.99991 -6.66758,-1.26707 0.49533,-1.78636 0.0644,-1.59364 -2.45932,1.09994 -3.97532,4.24281 -4.20527,8.84825 -0.51191,10.25246 3.75623,1.42811 9.73586,-0.23046 25.83999,-7.16726 7.76162,-3.34329 15.74707,-6.30469 17.74545,-6.58088 5.68889,-0.78625 9.86431,1.20269 19.43003,9.2554 10.65944,8.97344 13.19747,9.49218 19.33089,3.951 z"
       id="path4715"
       inkscape:connector-curvature="0" />
  </g>
</svg>
