<?xml version="1.0" encoding="UTF-8" standalone="no"?>
<!-- Created with Inkscape (http://www.inkscape.org/) -->

<svg
   xmlns:dc="http://purl.org/dc/elements/1.1/"
   xmlns:cc="http://creativecommons.org/ns#"
   xmlns:rdf="http://www.w3.org/1999/02/22-rdf-syntax-ns#"
   xmlns:svg="http://www.w3.org/2000/svg"
   xmlns="http://www.w3.org/2000/svg"
   xmlns:sodipodi="http://sodipodi.sourceforge.net/DTD/sodipodi-0.dtd"
   xmlns:inkscape="http://www.inkscape.org/namespaces/inkscape"
   width="204.377mm"
   height="273.09213mm"
   viewBox="0 0 724.17047 967.64928"
   id="svg4492"
   version="1.1"
   inkscape:version="0.91 r13725"
   sodipodi:docname="lion head 2.svg">
  <defs
     id="defs4494" />
  <sodipodi:namedview
     id="base"
     pagecolor="#ffffff"
     bordercolor="#666666"
     borderopacity="1.0"
     inkscape:pageopacity="0.0"
     inkscape:pageshadow="2"
     inkscape:zoom="0.7"
     inkscape:cx="272.44941"
     inkscape:cy="571.29077"
     inkscape:document-units="px"
     inkscape:current-layer="layer1"
     showgrid="false"
     fit-margin-top="0"
     fit-margin-left="0"
     fit-margin-right="0"
     fit-margin-bottom="0" />
  <metadata
     id="metadata4497">
    <rdf:RDF>
      <cc:Work
         rdf:about="">
        <dc:format>image/svg+xml</dc:format>
        <dc:type
           rdf:resource="http://purl.org/dc/dcmitype/StillImage" />
        <dc:title></dc:title>
      </cc:Work>
    </rdf:RDF>
  </metadata>
  <g
     inkscape:label="Layer 1"
     inkscape:groupmode="layer"
     id="layer1"
     transform="translate(-26.164167,-54.199269)">
    <path
       style="fill:#000000"
       d="m 146.61547,1011.7162 c -19.42703,-32.49576 -30.27706,-62.77676 -30.27706,-84.4992 0,-20.28696 8.55398,-56.62402 24.94418,-105.96225 3.74557,-11.275 7.59674,-22.43117 8.55815,-24.79149 0.96142,-2.36032 1.5232,-4.51631 1.24841,-4.7911 -0.8417,-0.84171 -11.77273,9.69775 -16.0176,15.44383 -12.01954,16.27025 -24.70435,51.30216 -31.73339,87.63876 -1.17032,6.05 -2.38106,11.87162 -2.69053,12.93694 -0.55656,1.91592 -0.57855,1.91592 -2.026453,0 -4.68872,-6.2043 -10.5518,-23.25267 -13.46055,-39.13992 -1.8474,-10.09033 -2.16878,-15.6308 -2.22143,-38.29702 -0.0575,-24.77104 0.73335,-36.54899 3.97545,-59.20262 l 0.61502,-4.29738 -4.08412,6.48345 c -7.37242,11.70357 -14.44567,32.46138 -17.21356,50.51655 -1.7576,11.46495 -1.49788,37.90835 0.4911,50 2.29077,13.92636 6.09822,27.03453 11.74661,40.44087 2.65116,6.29248 4.68567,11.5755 4.52113,11.74005 -0.71873,0.71872 -16.53636,-14.82965 -21.72167,-21.35191 -29.57134,-37.19586 -38.77847,-87.23463 -26.93291,-146.37458 3.08459,-15.40003 7.89169,-32.2872 13.65073,-47.95443 5.25123,-14.28579 23.7594,-51.43481 37.94907,-76.17021 6.93024,-12.08077 12.34428,-22.22121 12.03119,-22.53429 -1.16135,-1.16135 -13.42427,7.89645 -22.22,16.41242 -17.02297,16.48155 -22.33347,23.51118 -39.24022,51.94326 -3.97405,6.68315 -7.88773,12.70075 -8.69707,13.37245 -3.25745,2.70343 -1.29453,-74.23837 2.53237,-99.26322 5.09433,-33.31275 16.52798,-63.16942 37.78088,-98.65714 6.71837,-11.21821 12.21521,-20.78071 12.21521,-21.25 0,-1.12565 -0.33023,-1.1012 -8.50037,0.62937 -8.35052,1.76877 -16.97754,1.91569 -25.03425,0.42633 -6.44771,-1.19193 -13.03971,-4.13196 -13.69897,-6.10975 -0.25374,-0.76121 2.75645,-2.78854 7.65775,-5.15739 18.32446,-8.85643 33.9077,-31.71269 43.06884,-63.16997 1.43706,-4.93452 5.07885,-20.32576 8.09287,-34.20274 3.01402,-13.87699 6.82005,-29.74153 8.457843,-35.25454 3.71982,-12.5214 10.69942,-28.56796 16.56144,-38.07588 2.46505,-3.99819 4.24801,-7.87898 3.96213,-8.62397 -0.28588,-0.74499 -2.3817,-4.09633 -4.65739,-7.44742 -5.18039,-7.62847 -9.30502,-16.68944 -10.92775,-24.00602 -1.83487,-8.27313 -0.80287,-30.55018 1.7877,-38.58967 5.86465,-18.20015 20.76573,-29.15969 47.98016,-35.28873 2.8875,-0.65031 5.25,-1.67452 5.25,-2.27603 0,-1.54546 -9.56372,-10.62173 -15.50544,-14.71515 -2.74701,-1.8925 -10.26596,-6.40506 -16.70878,-10.02793 l -11.71423,-6.58703 4.07771,-4.93838 c 10.7271,-12.99124 24.75231,-21.40224 41.66484,-24.98665 10.30602,-2.18423 35.12604,-1.9101 47.02882,0.51943 8.27019,1.68807 18.46108,4.71418 25.56532,7.59143 1.74008,0.70474 1.69755,0.39795 -0.48262,-3.48113 -3.33363,-5.93139 -17.02194,-19.33052 -25.63131,-25.089817 -7.9533,-5.32041 -7.96216,-5.68912 -0.20798,-8.65042 3.62355,-1.38382 9.24511,-1.76192 31.40246,-2.11207 30.92463,-0.48869 34.72348,-0.0669 57.51121,6.38532 25.24183,7.14711 21.50463,7.63095 49.52124,-6.41128 34.56984,-17.326763 55.62976,-25.085464 77.97876,-28.728199 12.55931,-2.047082 57.00635,-2.038537 68.77201,0.01322 10.51928,1.83441 29.00336,7.370511 37.81765,11.326629 7.98916,3.58578 14.91034,7.855233 14.91034,9.197713 0,0.561762 -3.21843,0.987455 -7.46562,0.987455 -15.76769,0 -44.71073,5.362892 -62.91756,11.65807 -17.1585,5.93271 -34.57548,16.262019 -39.80565,23.607119 l -2.10674,2.95864 2.89779,-0.59805 c 1.59378,-0.32892 17.0616,-2.62928 34.37294,-5.11191 32.31089,-4.63372 40.92573,-5.17237 56.50999,-3.53336 7.85839,0.82648 9.21302,1.25781 10.80236,3.43963 2.4948,3.42481 15.63764,14.20072 24.71249,20.26196 15.5948,10.41601 35.82025,22.74192 44.39212,27.05368 14.36896,7.22778 36.63101,14.9738 55.35788,19.26163 2.8875,0.66114 5.25,1.56719 5.25,2.01344 0,1.45357 -6.16468,6.04349 -12.22753,9.10401 -9.3843,4.73718 -25.10456,9.57527 -40.08904,12.33786 -7.59912,1.40101 -14.68662,2.54728 -15.75,2.54728 -1.06339,0 -1.92562,0.3375 -1.91607,0.75 0.0538,2.32598 3.19136,15.13514 5.8228,23.77211 5.89854,19.36028 6.34795,23.60763 5.98758,56.58819 -0.32297,29.55716 -0.30016,29.96022 1.56676,27.69171 4.95828,-6.02482 8.86707,-16.80679 13.5231,-37.30201 l 0.68153,-3 4.95043,5.0602 c 13.31073,13.60587 27.18977,56.14618 32.91989,100.90197 1.53497,11.98908 6.11372,35.48638 9.65308,49.53783 3.30755,13.13112 9.78251,24.42057 21.79455,38 8.7965,9.94431 12.08292,13.99639 12.08292,14.89796 0,1.13525 -12.34945,-0.59912 -20.89253,-2.93418 -4.18411,-1.14363 -14.35747,-4.931 -22.60747,-8.41637 -17.27918,-7.29994 -25.5,-9.98682 -25.5,-8.33438 0,4.32655 29.99823,37.55819 47,52.06598 11.2974,9.6402 29,26.59296 29,27.77165 0,0.39655 -12.825,1.05267 -28.5,1.45803 -15.675,0.40537 -28.5,1.04418 -28.5,1.4196 0,1.5617 12.27938,15.36862 28.38169,31.91236 9.45349,9.71264 19.24159,20.58435 21.75134,24.15935 5.28929,7.53431 26.12362,46.6656 31.25326,58.70025 6.60232,15.48972 11.59711,34.75602 11.6099,44.7827 0.004,2.83507 -0.5291,2.45591 -10.74619,-7.64837 -10.61484,-10.49765 -19.97182,-17.63297 -29.36532,-22.39302 -2.65001,-1.34286 -5.0381,-2.44156 -5.30688,-2.44156 -0.26878,0 0.80094,3.0375 2.37716,6.75 3.55208,8.36633 7.33094,20.10327 10.06133,31.25 1.14514,4.675 2.48863,10.075 2.98553,12 1.84869,7.16193 4.98703,32.02597 6.05855,48 3.70648,55.25539 -9.45169,114.644 -33.61364,151.71314 -10.49031,16.09417 -19.73022,26.28332 -32.81794,36.18938 -6.58128,4.98135 -18.62055,12.43906 -19.17912,11.88048 -0.16532,-0.16532 1.49657,-2.99663 3.69309,-6.29179 15.49102,-23.23921 29.92991,-68.23251 28.66454,-89.32212 l -0.3073,-5.12177 -8.17176,12.22634 c -18.26603,27.32908 -29.78182,38.91286 -84.82824,85.32908 -24.05172,20.28085 -34.5,27.78145 -34.5,24.76665 0,-0.3468 1.55784,-2.7989 3.46186,-5.4492 4.0936,-5.69798 9.13782,-15.51395 13.96603,-27.17766 3.79916,-9.17782 13.57211,-37.3365 13.57211,-39.10518 0,-0.60254 -2.09029,2.49506 -4.6451,6.88356 -5.4246,9.31809 -8.96346,14.14471 -15.27466,20.83299 -16.64923,17.644 -48.11286,35.68815 -78.9386,45.27069 l -7.35837,2.2874 9.35869,-9.70597 c 29.79476,-30.90054 34.50901,-40.57262 45.1857,-92.70602 4.36264,-21.30243 4.40014,-21.20489 -2.69171,-7 -12.37476,24.78645 -26.45605,44.40116 -45.59991,63.51897 -7.10547,7.09579 -14.99723,13.95352 -18.2175,15.83052 -20.21413,11.78222 -45.52141,17.75979 -83.31854,19.6798 -12.04452,0.61184 -42.53767,-0.78645 -51.86151,-2.37815 l -3.91573,-0.66846 9.78021,-4.85515 c 34.87048,-17.31061 60.30188,-42.52989 79.28884,-78.62753 3.32688,-6.325 9.41254,-20.05 13.5237,-30.5 8.7809,-22.31989 9.17018,-23.5 7.75188,-23.5 -0.58707,0 -1.06739,0.46056 -1.06739,1.02346 0,2.91366 -33.39907,34.4269 -51,48.12036 -32.82127,25.53484 -70.30864,43.49912 -124.70166,59.75814 -22.3635,6.68484 -45.6699,13.05981 -46.11573,12.61398 -0.19776,-0.19776 13.29274,-17.29806 29.97891,-38.00066 16.68616,-20.7026 30.99837,-38.5768 31.80491,-39.72045 1.44989,-2.05591 1.39914,-2.07161 -4.5,-1.39218 -32.42871,3.73495 -59.59393,17.07166 -80.89572,39.71559 -9.48914,10.08702 -12.62673,15.42291 -16.98291,28.88176 -5.22318,16.13756 -10.37648,45.77729 -10.68748,61.47005 -0.22216,11.2103 -0.80121,11.0754 -8.62326,-2.0086 z M 499.19658,842.50912 c 11.44767,-7.26894 19.85908,-14.53574 32.14183,-27.76804 8.79378,-9.4736 45,-51.2493 45,-51.92219 0,-0.29581 -4.1625,1.66445 -9.25,4.35614 -8.97962,4.75091 -34.12664,14.45417 -35.91478,13.85813 -0.48754,-0.16252 3.00411,-7.04164 7.7592,-15.28694 4.7551,-8.24531 13.83874,-23.99147 20.18587,-34.99147 13.0476,-22.61236 26.21948,-49.17233 31.73951,-64 13.22118,-35.51422 14.90528,-69.19888 4.89554,-97.91865 -1.32626,-3.80526 -2.25149,-7.07853 -2.05609,-7.27393 0.19541,-0.19541 4.35701,1.21321 9.24802,3.13026 25.56191,10.01912 29.72847,11.55991 30.1419,11.14648 0.69091,-0.69091 -1.69563,-7.42087 -4.99446,-14.08416 -6.18876,-12.50069 -19.21936,-27.47701 -35.93788,-41.30409 -7.3318,-6.06378 -28.10417,-21.23367 -28.51738,-20.826 -0.1103,0.10882 -0.69761,5.35761 -1.30514,11.66397 -2.07304,21.51905 -6.2632,42.88051 -14.01843,71.46612 -13.69005,50.46121 -27.18257,79.54465 -56.83073,122.5 -5.50442,7.975 -13.68084,19.82054 -18.16983,26.32343 -4.48899,6.50288 -7.91182,12.07341 -7.60629,12.37894 0.90879,0.90879 15.14193,-6.25861 24.45851,-12.31659 9.92545,-6.45389 24.45863,-17.81076 28.23953,-22.06763 1.41189,-1.58963 3.42142,-4.33651 4.46561,-6.10419 1.04419,-1.76768 2.54446,-3.21396 3.33392,-3.21396 2.8578,0 0.23034,29.95834 -4.34133,49.5 -5.17978,22.14102 -10.53806,37.92977 -26.30143,77.5 -3.83425,9.625 -7.29384,18.54509 -7.68798,19.82241 -0.7144,2.31527 -0.70677,2.31733 2.48194,0.66838 1.7592,-0.90971 5.73737,-3.26611 8.84037,-5.23642 z M 458.07716,671.67739 c 6.37986,-2.58284 17.88473,-10.8257 24.86132,-17.81234 13.14572,-13.16465 19.34406,-32.55973 19.37003,-60.6103 l 0.01,-10.5 -9.11438,15.5 c -9.56489,16.26616 -16.70554,28.49134 -25.40806,43.5 -2.87018,4.95 -8.19725,14.10004 -11.83795,20.33342 -3.64096,6.23339 -6.61971,11.52946 -6.61971,11.76906 0,0.60462 4.84787,-0.60466 8.73875,-2.17984 z M 417.33841,592.7933 c 17.5994,-2.68559 27.71652,-7.18524 33.40274,-14.85606 1.60787,-2.16903 2.17238,-4.66325 2.45275,-10.83701 l 0.36418,-8.01952 -5.53683,-5.36284 c -6.57474,-6.36814 -23.22287,-14.88743 -37.18284,-19.02745 -12.12584,-3.59608 -30.6644,-4.52024 -38.63958,-1.92621 -13.66533,4.44483 -35.80627,18.16782 -39.93344,24.75081 -1.65574,2.64096 -1.9724,4.56612 -1.71333,10.41634 0.27746,6.26566 0.70799,7.66193 3.39177,11 4.22528,5.2554 11.90851,10.95704 17.89458,13.27939 4.46722,1.73309 7.71718,1.94471 30.5,1.986 17.45532,0.0316 28.49704,-0.41112 35,-1.40345 z m -85,-60.23326 c 7.425,-3.56515 17.97629,-8.05472 23.4473,-9.97683 11.27114,-3.95983 18.56399,-7.43221 20.49426,-9.75804 0.83629,-1.00767 1.26322,-4.01627 1.17132,-8.25442 -0.184,-8.48554 -2.14552,-11.21459 -13.48217,-18.75774 -17.28587,-11.50162 -36.78935,-18.55826 -51.29224,-18.55826 -5.41218,0 -9.44249,0.51955 -11.23969,1.44892 -4.33102,2.23966 -9.03507,8.21349 -12.99213,16.49914 -3.33577,6.98474 -3.63218,8.36355 -3.94661,18.35792 -0.31518,10.01835 -0.14751,11.19933 2.30036,16.20261 5.34847,10.93188 21.85786,21.79937 30.0396,19.7739 1.1,-0.27231 8.075,-3.41206 15.5,-6.9772 z m 150.63761,-7.36302 c 12.88841,-6.51887 25.00881,-20.59826 29.94072,-34.77996 2.04944,-5.89316 2.54566,-9.24694 2.58594,-17.47743 0.0782,-15.98057 -2.67629,-21.87648 -20.965,-44.87469 -10.89488,-13.70041 -14.64492,-19.08808 -15.64146,-22.47208 -0.52665,-1.78835 -0.13731,-2.27156 2.25335,-2.79663 10.20418,-2.24122 33.43163,-21.85221 39.72684,-33.54148 2.64168,-4.90521 2.95526,-6.41922 2.89966,-14 -0.0368,-5.01951 -0.81226,-11.16155 -1.89379,-15 -2.06674,-7.33502 -7.29444,-17.96705 -9.19238,-18.69536 -0.69089,-0.26512 -4.76511,1.8342 -9.05382,4.66515 -16.76081,11.06369 -30.04272,15.64251 -48.46843,16.70906 l -10.67076,0.61766 -1.48899,4.10174 c -0.81894,2.25596 -2.71891,7.89642 -4.22217,12.53435 l -2.73319,8.43259 -1.84401,-2.27726 c -3.05934,-3.77812 -4.15385,-9.83899 -3.42107,-18.94413 1.28367,-15.95005 6.72044,-27.21292 16.88208,-34.9731 6.98614,-5.33513 12.59122,-8.00823 29.66887,-14.14927 7.975,-2.86777 16.58873,-6.60245 19.14161,-8.29929 7.07659,-4.70362 8.25387,-7.42657 8.30911,-19.21827 0.0421,-8.99268 -0.23715,-10.58249 -2.76295,-15.72828 -5.53479,-11.27593 -18.83136,-20.17379 -37.70126,-25.22909 -8.56149,-2.29364 -11.31479,-2.5417 -28.23651,-2.54398 -15.68483,-0.002 -18.75,-0.23883 -18.75,-1.44805 0,-1.76519 1.80471,-25.19928 2.45645,-31.8969 0.64413,-6.61939 -0.56074,-5.43704 -10.19757,10.00702 -6.12642,9.81824 -9.86287,14.4793 -17.75888,22.1534 -14.80061,14.38465 -19.25062,18.18201 -21.30695,18.18201 -1.01841,0 -7.44096,-3.6222 -14.27235,-8.04934 -14.52584,-9.4136 -24.02834,-14.19267 -32.56504,-16.37786 -10.40464,-2.66333 -10.5119,-2.28346 -1.8322,6.48888 6.2879,6.35501 7.44729,7.94899 5.47654,7.52939 -6.73329,-1.43361 -24.72146,-3.59107 -29.94118,-3.59107 -16.27663,0 -35.8706,12.751 -42.8455,27.8822 -2.17778,4.72445 -2.41615,6.32811 -1.95047,13.12222 0.65697,9.58503 3.10663,15.31538 8.7019,20.35587 5.59641,5.04152 12.08492,7.82362 29.37688,12.596 16.57476,4.57445 18.19103,5.14295 26.15837,9.20085 12.46481,6.34854 18.11444,14.89565 21.07931,31.89011 1.69418,9.71092 1.65847,22.97491 -0.21058,78.20275 l -0.63454,18.75 2.8829,-0.0218 c 1.5856,-0.012 12.78291,-0.67465 24.88291,-1.47251 43.46147,-2.86583 64.8055,-1.34991 79.26695,5.62977 5.31561,2.56553 6.58469,4.82377 5.68927,10.12369 -1.0465,6.19419 -8.44958,12.942 -22.06898,20.11561 -12.55042,6.61055 -20.00233,12.45981 -22.01719,17.28204 -0.76654,1.83456 -1.37005,6.74828 -1.37005,11.15481 l 0,7.87585 8.48732,1.66761 c 4.66802,0.91719 14.23052,3.50492 21.25,5.75052 31.65757,10.12757 37.33037,10.68866 48.90029,4.83668 z M 205.60698,496.50475 c -1.26228,-3.30362 -9.47746,-16.75248 -13.28591,-21.75 -4.56787,-5.99407 -9.40409,-15.62156 -14.31651,-28.5 -7.11692,-18.65775 -10.40373,-36.38007 -11.35954,-61.25 -0.33292,-8.6625 -0.9514,-15.75 -1.3744,-15.75 -1.27517,0 -4.84127,6.42865 -7.01658,12.64891 -5.01319,14.33506 -6.43174,35.91213 -3.36233,51.14325 3.09482,15.35719 12.37775,30.77778 27.65039,45.93217 8.67887,8.61169 21.38253,19.24643 23.01493,19.26673 0.39523,0.005 0.41771,-0.77856 0.05,-1.74106 z m 390.39468,-24.41253 c -1.32849,-3.52945 -4.94817,-11.89011 -8.04374,-18.57922 -6.70632,-14.49147 -9.12235,-22.0528 -14.46113,-45.25825 -3.84919,-16.73079 -5.40716,-26.29589 -6.73422,-41.34443 -0.52824,-5.99017 -0.76599,-6.61255 -1.90487,-4.98657 -4.46246,6.37105 -6.6507,28.48052 -4.57868,46.26192 2.758,23.66835 14.51136,48.72795 30.22339,64.43998 3.79457,3.79457 7.12769,6.67074 7.40694,6.39149 0.27925,-0.27925 -0.57921,-3.39546 -1.90769,-6.92492 z m -312.34865,-67.4169 7.8138,-0.70807 -0.8142,-6.60625 c -0.44781,-3.63344 -0.78734,-9.75625 -0.75451,-13.60625 0.0571,-6.6981 1.67293,-11.71844 9.03605,-28.07498 0.27951,-0.62091 -2.17285,-1.80829 -5.80591,-2.81108 -12.05757,-3.3281 -19.44325,-8.41193 -37.36655,-25.72071 -14.46412,-13.9682 -16.73126,-15.32443 -24.44739,-14.62476 -6.69759,0.60732 -10.92136,2.60927 -15.54062,7.36584 -4.91343,5.05949 -5.69019,8.83227 -5.23246,25.41462 0.43932,15.91577 1.78931,21.26423 8.03553,31.83553 6.69958,11.33861 20.14262,21.91548 33.26166,26.17001 4.82739,1.56553 15.68114,2.83263 20.5004,2.39328 1.92522,-0.17551 7.01661,-0.63774 11.3142,-1.02718 z m 282.97847,-111.36694 3.20693,-6.51682 -0.0156,-17.0184 c -0.0164,-17.83526 -0.74752,-22.30289 -4.66697,-28.51841 l -2.20707,-3.5 -0.67996,4.5 c -0.37398,2.475 -0.98306,10.35 -1.35352,17.5 -0.37046,7.15 -1.09786,19.075 -1.61644,26.5 -0.51859,7.425 -0.94683,14.59094 -0.95166,15.92431 l -0.009,2.42432 2.54307,-2.3891 c 1.39869,-1.314 3.98619,-5.32165 5.75,-8.9059 z m -410.36303,-9.30363 c 1.54206,-8.09738 9.03859,-30.376 13.55894,-40.29526 1.94546,-4.26904 3.41881,-7.87209 3.27411,-8.00679 -0.1447,-0.13469 -6.68851,4.43441 -14.54181,10.15358 -7.8533,5.71916 -14.4908,10.39847 -14.75,10.39847 -1.03508,0 -0.36185,-11.82191 0.95491,-16.76834 1.96456,-7.37985 6.78473,-17.32595 12.42936,-25.6471 2.64318,-3.89651 6.4875,-9.7285 8.54293,-12.95999 l 3.73715,-5.87543 -2.81782,0.66759 c -7.58664,1.7974 -13.32212,3.72714 -14.50649,4.88081 -0.72123,0.70252 -2.99151,2.30516 -5.04508,3.56141 -5.93397,3.63005 -13.71977,13.00584 -17.51529,21.09218 -4.74788,10.11535 -5.54177,20.59018 -2.31704,30.57182 2.81225,8.70488 5.82643,14.61727 10.95449,21.48752 3.98918,5.34445 13.19162,12.98953 15.63561,12.98953 0.69773,0 1.72295,-2.66316 2.40603,-6.25 z"
       id="path4624"
       inkscape:connector-curvature="0" />
  </g>
</svg>
