<?xml version="1.0" encoding="UTF-8" standalone="no"?>
<!-- Created with Inkscape (http://www.inkscape.org/) -->

<svg
   xmlns:dc="http://purl.org/dc/elements/1.1/"
   xmlns:cc="http://creativecommons.org/ns#"
   xmlns:rdf="http://www.w3.org/1999/02/22-rdf-syntax-ns#"
   xmlns:svg="http://www.w3.org/2000/svg"
   xmlns="http://www.w3.org/2000/svg"
   xmlns:sodipodi="http://sodipodi.sourceforge.net/DTD/sodipodi-0.dtd"
   xmlns:inkscape="http://www.inkscape.org/namespaces/inkscape"
   width="159.17334mm"
   height="126.15334mm"
   viewBox="0 0 564.00002 447.00001"
   id="svg4736"
   version="1.1"
   inkscape:version="0.91 r13725"
   sodipodi:docname="lion head. - inverse 2svg.svg">
  <defs
     id="defs4738" />
  <sodipodi:namedview
     id="base"
     pagecolor="#ffffff"
     bordercolor="#666666"
     borderopacity="1.0"
     inkscape:pageopacity="0.0"
     inkscape:pageshadow="2"
     inkscape:zoom="0.98994949"
     inkscape:cx="250.71947"
     inkscape:cy="224.77689"
     inkscape:document-units="px"
     inkscape:current-layer="layer1"
     showgrid="false"
     fit-margin-top="0"
     fit-margin-left="0"
     fit-margin-right="0"
     fit-margin-bottom="0" />
  <metadata
     id="metadata4741">
    <rdf:RDF>
      <cc:Work
         rdf:about="">
        <dc:format>image/svg+xml</dc:format>
        <dc:type
           rdf:resource="http://purl.org/dc/dcmitype/StillImage" />
        <dc:title></dc:title>
      </cc:Work>
    </rdf:RDF>
  </metadata>
  <g
     inkscape:label="Layer 1"
     inkscape:groupmode="layer"
     id="layer1"
     transform="translate(-86.888302,-382.68743)">
    <path
       style="fill:#000000"
       d="m 86.888302,606.18743 0,-223.5 281.999998,0 282.00001,0 0,223.5 0,223.5 -282.00001,0 -281.999998,0 0,-223.5 z M 227.8883,799.15419 c 0,-0.29329 -1.12579,-2.75488 -2.50174,-5.47022 -4.60132,-9.08026 -5.70574,-13.72349 -5.26876,-22.15122 0.30808,-5.94166 0.91513,-8.54965 2.48391,-10.67156 1.14191,-1.54451 3.34326,-5.23141 4.89188,-8.1931 1.54863,-2.9617 4.7943,-7.43145 7.21261,-9.93278 2.41829,-2.50133 5.52699,-6.01038 6.90819,-7.79788 1.38121,-1.7875 3.13922,-3.25 3.9067,-3.25 1.65613,0 7.29584,-5.95643 7.3379,-7.75 0.0161,-0.6875 0.70431,-1.25 1.52931,-1.25 0.825,0 1.5,-0.36836 1.5,-0.81857 0,-0.45022 1.46251,-1.54644 3.25,-2.43605 l 3.25,-1.61747 -3,-0.0381 c -4.64147,-0.059 -15.47463,4.04951 -20.87769,7.91795 -2.68272,1.92075 -7.44841,5.85478 -10.59041,8.74228 -3.142,2.8875 -6.04168,5.25 -6.44374,5.25 -0.40206,0 -1.40602,0.675 -2.23102,1.5 -0.825,0.825 -2.53744,1.5 -3.80541,1.5 -1.80903,0 -2.76258,-1.06267 -4.42858,-4.93538 -3.27161,-7.60505 -2.34925,-19.42896 1.76715,-22.65379 1.16822,-0.91519 1.12828,-1.18973 -0.25,-1.71862 -0.90217,-0.34623 -1.6403,-1.3186 -1.6403,-2.16087 0,-0.84226 -0.45,-1.53138 -1,-1.53138 -0.55,0 -1,-0.79987 -1,-1.77749 0,-0.97763 -0.68227,-2.75158 -1.51617,-3.94213 -1.00535,-1.43534 -1.5739,-4.87966 -1.68754,-10.2232 -0.14707,-6.91531 0.1432,-8.48407 2.0461,-11.05787 2.12834,-2.87874 2.13925,-2.99931 0.27129,-2.99931 -1.13044,0 -6.1465,4.19152 -11.96718,10 -5.51155,5.5 -10.49924,10 -11.08375,10 -0.58451,0 -1.06275,1.37296 -1.06275,3.05103 0,2.50085 0.58972,3.29742 3.2703,4.41744 6.15564,2.57199 6.88874,4.21796 5.88289,13.20838 -0.91137,8.14599 -3.83867,15.09357 -8.49863,20.17047 -3.06206,3.33602 -9.1813,6.27114 -11.34671,5.44249 -1.00207,-0.38347 0.27207,1.68756 2.85868,4.64659 2.56658,2.93611 5.49158,6.96407 6.5,8.951 1.00841,1.98693 2.84598,5.00508 4.08347,6.70699 1.2375,1.70192 2.25,3.55124 2.25,4.10962 0,2.6082 22.40006,23.264 25.25,23.28382 0.96251,0.007 1.75,0.46217 1.75,1.01217 0,0.55 0.7875,1.01886 1.75,1.04192 0.96251,0.0231 3.325,0.90419 5.25,1.95808 3.61834,1.98096 5,2.38627 5,1.46676 z M 504.90696,756.4026 c -2.42453,-15.70246 -9.15513,-34.05706 -16.47377,-44.92463 -3.87178,-5.74926 -4.30902,-5.86364 -2.08718,-0.54599 4.09539,9.80165 6.33364,30.7549 4.18014,39.13202 -0.73814,2.87134 -0.74348,2.87308 -2.93867,0.95575 -5.88323,-5.13857 -11.09183,-6.5003 -30.03211,-7.85151 -12.50313,-0.89199 -20.19776,-1.93815 -24.68054,-3.35556 -10.02444,-3.16963 -22.43178,-12.09715 -34.34236,-24.71055 -15.34134,-16.24659 -23.94053,-28.17414 -27.86851,-38.65508 -1.8016,-4.80722 -3.53134,-8.74472 -3.84384,-8.75 -0.3125,-0.005 0.21882,3.92788 1.18068,8.74038 2.00192,10.01614 6.92199,23.54815 10.45441,28.75346 1.32565,1.95345 3.0837,4.854 3.90677,6.44565 1.9432,3.75773 20.65056,26.14655 27.05984,32.38499 18.24412,17.75784 43.04145,30.6659 58.91142,30.6659 2.23755,0 5.52779,0.41859 7.31167,0.93019 1.79757,0.51554 3.2434,0.54182 3.2434,0.059 0,-0.47917 -2.68531,-3.23493 -5.96735,-6.12391 -6.63948,-5.84431 -7.62354,-7.44833 -5.86757,-9.56416 2.80744,-3.38276 16.24679,1.58214 23.94801,8.84713 5.96572,5.62779 10.27119,12.02343 12.5581,18.6547 l 1.82881,5.30291 0.28314,-14.80291 c 0.15572,-8.1416 -0.1883,-17.85608 -0.76449,-21.58774 z m -114.51866,9.28483 c -0.33992,-0.55 -1.60398,-1.00769 -2.80902,-1.0171 -1.20504,-0.009 -5.34098,-0.84892 -9.19098,-1.86559 -31.33925,-8.27578 -38.72722,-11.50061 -50.32478,-21.9666 -6.28144,-5.66856 -8.447,-8.45878 -11.92522,-15.3651 -2.3375,-4.64131 -4.25,-9.18696 -4.25,-10.10145 0,-3.21701 -3.75696,-11.49901 -7.10775,-15.66861 -2.72236,-3.38761 -11.53066,-10.04033 -21.58777,-16.30476 -1.33185,-0.82959 1.33567,6.35849 4.32241,11.64748 0.88776,1.57205 1.67238,5.17205 1.7436,8 0.12917,5.12839 0.12085,5.14256 -3.20909,5.4617 -2.30641,0.22104 -3.79332,-0.24271 -4.80941,-1.5 -3.10071,-3.83677 -6.27654,-12.04505 -6.70119,-17.31997 -0.24353,-3.025 -0.77254,-6.31307 -1.17558,-7.30682 -0.40304,-0.99375 -0.29965,-4.49644 0.22976,-7.78377 1.18952,-7.38624 0.45212,-6.65602 -3.62589,3.59059 -4.16363,10.46175 -4.6065,14.38089 -2.74209,24.26599 3.11592,16.52053 15.27564,36.47448 27.10549,44.47973 5.09607,3.44851 5.80904,3.44925 4.10111,0.004 -3.15199,-6.35768 -3.91686,-21.25 -1.09141,-21.25 0.67836,0 2.30045,2.1375 3.60465,4.75 3.05358,6.11675 15.12718,18.01085 24.8385,24.46923 12.46584,8.29022 18.83864,9.85518 43.60466,10.70792 11.55,0.39768 21.13906,0.80176 21.30902,0.89796 0.16996,0.0965 0.0309,-0.27483 -0.30902,-0.82483 z m 5.03135,-10.09876 c 1.76244,-5.55296 -4.79788,-22.63739 -11.73461,-30.55936 -7.22501,-8.25119 -10.67335,-14.06043 -15.11417,-25.46204 -4.39487,-11.28365 -5.49887,-16.11853 -6.76568,-29.62984 -0.68326,-7.2875 -1.60871,-13.25 -2.05654,-13.25 -3.64504,0 -11.86035,27.43962 -11.86035,39.61425 0,6.72421 2.26692,17.38575 3.69667,17.38575 0.70997,0 0.98602,-0.66332 0.64543,-1.55088 -0.56641,-1.47603 3.10733,-6.44912 4.76412,-6.44912 1.59573,0 5.04917,6.17638 6.44079,11.51918 2.0716,7.9534 1.85813,10.01393 -1.29701,12.51947 -2.40912,1.91311 -3.58275,2.11558 -9.46808,1.63344 -4.73243,-0.3877 -8.05344,-1.33294 -11.23599,-3.19804 -5.04197,-2.95479 -14.54593,-13.68172 -14.54593,-16.41769 0,-2.02753 -5.39538,-9.54945 -11.39761,-15.8899 -4.5093,-4.76338 -12.69565,-10.52349 -16.60239,-11.68183 -1.375,-0.40769 -4.1875,-1.59266 -6.25,-2.63326 -2.0625,-1.04061 -3.74484,-1.54537 -3.73853,-1.12169 0.006,0.42367 1.89727,1.67032 4.20212,2.77032 5.48361,2.61707 16.24944,13.48635 19.17741,19.36166 1.27134,2.55109 2.84316,6.80855 3.49297,9.46103 2.58526,10.5531 10.18077,21.88301 18.49081,27.58197 2.26888,1.55597 9.97522,5.30933 17.12523,8.34078 12.52587,5.31071 14.35178,5.77828 35.5,9.09063 6.15382,0.96385 7.86117,0.6767 8.53135,-1.43483 z M 219.19674,736.33945 c 2.10754,-3.21652 9.78436,-10.65202 10.9977,-10.65202 0.54333,0 2.90997,-1.575 5.25917,-3.5 2.3492,-1.925 4.57243,-3.5 4.9405,-3.5 0.36807,0 3.60478,-1.64166 7.19269,-3.64813 5.68303,-3.17813 6.28524,-3.78147 4.6742,-4.68305 -1.01709,-0.56919 -2.72688,-1.85253 -3.79955,-2.85186 -1.07265,-0.99933 -2.25519,-1.81696 -2.62787,-1.81696 -1.05772,0 -8.93436,-12.12154 -9.03638,-13.90628 -0.0501,-0.87655 -0.0271,-6.09372 0.0512,-11.59372 0.12182,-8.55805 0.51281,-10.74475 2.71155,-15.16487 2.23828,-4.49961 5.68211,-7.31466 7.15123,-5.84555 0.22564,0.22565 -0.99159,2.68856 -2.70497,5.47314 -3.89695,6.33336 -5.40484,12.88271 -4.66433,20.25903 0.75106,7.48148 1.66891,9.63991 5.6995,13.40304 4.15711,3.88125 11.8272,9.37521 13.08869,9.37521 0.51796,0 -1.03775,-1.92385 -3.45714,-4.27522 -7.07319,-6.87436 -8.45991,-16.62593 -4.01369,-28.22478 3.56003,-9.28705 9.55678,-12.48415 24.15106,-12.87591 l 5.42203,-0.14554 5.58599,-10.98928 c 3.0723,-6.0441 6.1584,-12.3971 6.85801,-14.11779 1.99211,-4.89958 4.94771,-16.35149 5.70634,-22.11009 0.93833,-7.12254 -1.05439,-18.27641 -3.97161,-22.23048 -2.64975,-3.59155 -4.0992,-2.60621 -2.40533,1.63517 0.62246,1.55866 1.0752,5.66233 1.00608,9.11929 -0.19892,9.94674 -4.51763,17.37873 -18.37354,31.6186 -4.2625,4.38062 -7.75,8.31597 -7.75,8.74521 0,0.42925 -1.0125,1.31993 -2.25,1.97929 -1.2375,0.65936 -5.26349,3.60019 -8.94662,6.53518 -6.03717,4.81085 -8.80338,6.31948 -8.80338,4.80117 0,-1.72079 4.06399,-6.06271 10.80865,-11.54785 14.23955,-11.58037 24.81421,-23.76199 29.17737,-33.61124 3.10073,-6.99943 3.03647,-18.30573 -0.10402,-18.30573 -0.55,0 -0.73462,0.42939 -0.41027,0.95421 0.83109,1.34473 -4.60263,12.95617 -8.61215,18.40352 -4.66742,6.34115 -7.01675,6.19774 -8.61388,-0.5258 -0.67521,-2.84244 -2.4692,-7.07671 -3.98665,-9.40949 l -2.75901,-4.24143 -0.0419,6.15949 c -0.0273,4.01462 -0.68953,7.37828 -1.9017,9.6595 -2.11552,3.98128 -12.04424,14.11551 -21.3583,21.80039 -5.20501,4.29455 -6.97889,5.19961 -10.191,5.19961 -3.46796,0 -5.97733,1.36311 -4.7566,2.58384 0.24793,0.24792 3.10548,0.78951 6.35014,1.20352 l 5.89936,0.75275 -0.28751,3.47995 c -0.38689,4.68284 -4.01434,20.45093 -5.40881,23.51147 -1.33616,2.93255 -6.80933,6.48801 -12.20361,7.92765 -3.46626,0.92508 -4.04836,1.54121 -5.23482,5.54082 -2.74252,9.2452 -0.62538,17.11529 6.3145,23.47306 l 3.76813,3.45207 -3.14594,6.28744 c -3.31207,6.61944 -3.88353,8.24113 -4.79025,13.59378 -0.91654,5.41068 1.11728,6.93504 3.79674,2.84567 z m 265.44158,-7.40202 c -0.57747,-8.35309 -3.10036,-17.46594 -5.35304,-19.3355 -0.76834,-0.63766 -1.41089,-1.66679 -1.4279,-2.28694 -0.017,-0.62016 -2.08484,-2.6755 -4.59519,-4.56743 -4.52071,-3.40704 -4.66597,-3.44042 -15.21908,-3.49703 -7.7113,-0.0414 -13.78905,0.61748 -22.00005,2.38487 l -11.34524,2.44204 -8.95479,-1.81009 c -14.35245,-2.90115 -18.12856,-4.7351 -36.1971,-17.57992 -4.47522,-3.18141 5.01487,8.40261 13.41051,16.36946 10.08059,9.56574 21.25641,16.32979 28.4665,17.22906 4.80979,0.5999 4.89486,0.56712 2.71536,-1.04631 -3.36258,-2.48923 -2.80402,-4.37324 1.5,-5.05955 2.0625,-0.32888 5.55,-0.99515 7.75,-1.48061 12.15538,-2.68223 28.45319,-0.15664 36.11074,5.59589 7.09687,5.33133 8.00887,6.40444 11.39958,13.41339 1.85683,3.83827 3.57843,6.97867 3.82576,6.97867 0.24734,0 0.20861,-3.4875 -0.0861,-7.75 z m 20.26404,-26.63003 c -2.79782,-4.73681 -9.45805,-13.58085 -14.80051,-19.65343 -17.15846,-19.50343 -25.2934,-29.33612 -28.92909,-34.96654 -3.94434,-6.10843 -5.13483,-7.40021 -13.78446,-14.95725 -10.75165,-9.39355 -24.75977,-14.77891 -35.08615,-13.48872 -2.9447,0.36792 -5.8521,1.26911 -6.46089,2.00265 -0.60879,0.73354 -3.43475,2.07295 -6.27992,2.97647 -2.84517,0.90351 -6.52303,2.23911 -8.17304,2.96799 -3.19248,1.41026 -6.84962,2.15383 -15.15339,3.08098 -4.30285,0.48044 -6.3553,0.0704 -12.43572,-2.48431 -4.00528,-1.68284 -7.40327,-2.93877 -7.55108,-2.79095 -0.14781,0.14781 2.00375,2.22623 4.78126,4.61872 6.53473,5.62888 13.9442,8.03977 23.35893,7.60051 3.85,-0.17963 9.025,-1.09747 11.5,-2.03966 2.64478,-1.00681 8.69311,-1.92507 14.67078,-2.2273 8.96751,-0.45341 10.6901,-0.26284 14.56047,1.61077 5.49818,2.66162 8.78477,6.13236 12.35651,13.04882 3.50229,6.78197 3.32278,10.98723 -0.73923,17.31732 -1.68136,2.62018 -3.21316,4.76396 -3.40399,4.76396 -0.19083,0 -2.95642,0.68499 -6.14575,1.5222 -8.91339,2.33979 -22.97431,3.52087 -30.01669,2.52131 -7.15028,-1.01487 -16.16444,-5.28995 -24.46597,-11.60332 -5.45481,-4.14841 -5.68701,-4.22977 -4.71418,-1.65176 2.33166,6.17895 8.08113,15.1256 12.10206,18.83179 7.38969,6.81126 18.38201,13.2657 26.60835,15.62381 12.53184,3.59231 34.78276,2.29459 46.80816,-2.72994 5.36073,-2.23985 17.62246,-1.95987 25.73871,0.58771 6.26814,1.96749 15.14536,7.27223 25.62801,15.31447 2.46798,1.89342 4.6282,3.30162 4.80049,3.12933 0.1723,-0.17229 -1.97586,-4.18883 -4.77368,-8.92563 z m -164.51406,5.76695 c -1.09999,-0.85221 -2.74174,-2.08571 -3.64832,-2.74112 -0.90657,-0.65541 -3.29143,-3.99521 -5.29968,-7.42176 -3.16251,-5.396 -3.66725,-7.13341 -3.77004,-12.97707 -0.0973,-5.52927 0.3178,-7.44799 2.29969,-10.63112 9.77248,-15.69569 29.75107,-27.96581 47.79797,-29.35576 6.64471,-0.51177 7.14264,-0.69154 5,-1.80516 -4.67669,-2.43066 -14.90988,-3.33452 -21.87962,-1.93255 -10.7297,2.1583 -25.41783,8.56521 -26.82435,11.70068 -0.1784,0.39769 -3.1034,2.90674 -6.5,5.57568 -7.74745,6.08769 -21.07449,11.56809 -30.67565,12.61457 -12.92034,1.40826 -15.76245,2.71444 -8.47833,3.89649 1.96363,0.31866 7.19786,2.06258 11.63162,3.87538 8.2254,3.36308 8.39905,3.50584 20.94499,17.21917 5.97403,6.52991 16.05636,13.61319 19.30676,13.56385 2.08593,-0.0317 2.08634,-0.0385 0.095,-1.58128 z m 255.06059,-3.76184 c 4.98333,-1.5812 9.92915,-3.51001 10.99071,-4.28625 1.85357,-1.35535 1.79168,-1.51837 -1.5606,-4.11051 -1.91988,-1.48455 -7.5407,-6.31207 -12.4907,-10.72782 -13.56461,-12.10058 -24.59581,-21.01119 -28.47666,-23.00243 -3.05557,-1.56779 -12.77079,-4.36341 -15.50774,-4.46245 -0.54142,-0.0196 0.43917,0.75188 2.17908,1.71438 3.99637,2.21075 8.94718,6.02226 12.01494,9.25 3.59533,3.78283 9.29039,12.63105 9.29039,14.43417 0,0.87737 -1.4625,2.48693 -3.25,3.57679 -5.02638,3.06464 -15.9688,2.68321 -31.53801,-1.09937 -17.46419,-4.24296 -33.41097,-11.96452 -53.07404,-25.69885 -6.96822,-4.86719 -8.26121,-3.76288 -1.96747,1.68035 2.29377,1.9838 6.45627,5.79777 9.25,8.4755 15.14869,14.51962 37.11643,27.15648 57.57952,33.12238 13.1107,3.82236 15.04957,4.11376 27,4.05801 8.70825,-0.0406 12.04611,-0.53956 19.56059,-2.9239 z m -423.3807,-1.79712 c 4.2672,-1.27849 9.67353,-6.18987 17.11164,-15.54512 2.63536,-3.31458 7.02198,-7.54669 9.74807,-9.40468 2.72609,-1.85799 4.9574,-3.66107 4.95848,-4.00684 0.003,-0.85701 -4.61288,-2.63256 -9.69265,-3.7287 -4.70771,-1.01585 -11.99737,0.0264 -16.12062,2.30496 -4.32216,2.38844 -9.16239,3.24283 -17.47117,3.08399 -4.45667,-0.0852 -8.15356,0.30385 -8.64503,0.90979 -1.38212,1.704 -7.06861,19.44785 -7.06861,22.05652 0,3.15872 0.89377,3.58741 9.33165,4.47582 10.91702,1.14943 13.59843,1.12753 17.84824,-0.14574 z M 346.0228,677.18743 c 0.877,-1.65 2.36264,-5.475 3.30143,-8.5 0.93878,-3.025 2.20043,-6.51182 2.80365,-7.74849 1.80757,-3.70572 0.46579,-3.40941 -5.39653,1.19172 -5.31295,4.16996 -12.9062,15.27203 -12.803,18.71925 0.022,0.73564 0.71138,0.10002 1.53192,-1.41248 2.13768,-3.94035 3.07013,-3.41971 3.72123,2.07777 0.31447,2.65527 1.38965,6.42749 2.38929,8.38272 l 1.81751,3.55496 0.51998,-6.63273 c 0.28599,-3.64799 1.23752,-7.98272 2.11452,-9.63272 z m -121.52778,-6.25 c -0.39964,-0.4125 -3.92507,-2.1 -7.83428,-3.75 -10.74852,-4.53673 -10.24729,-5.91039 1.85143,-5.07405 l 9.87613,0.6827 -5.05529,-2.96335 c -2.78042,-1.62985 -6.94292,-3.47164 -9.25,-4.09287 -2.49755,-0.67252 -4.19471,-1.72082 -4.19471,-2.59097 0,-1.19089 1.98098,-1.46146 10.7,-1.46146 5.885,0 10.2725,-0.35921 9.75,-0.79825 -0.97905,-0.82265 -7.73473,-3.10198 -15.2,-5.12839 -2.3375,-0.6345 -4.25,-1.50295 -4.25,-1.92988 0,-0.42692 5.7375,-2.86368 12.75,-5.415 l 12.75,-4.63877 -11,-0.0442 c -14.5458,-0.0584 -41.61387,4.6467 -47.79545,8.3081 -7.37473,4.3681 -13.30785,11.4165 -15.62453,18.56154 -1.14401,3.52834 -2.08002,6.56534 -2.08002,6.74889 0,0.18356 1.85427,-1.46576 4.12059,-3.66515 2.26632,-2.19939 4.62882,-4.02762 5.25,-4.06273 0.62118,-0.0351 2.70441,-0.24847 4.62941,-0.47414 2.4556,-0.28787 5.29041,0.46005 9.5,2.50642 7.55485,3.67256 30.40749,9.82828 36.91667,9.94409 2.70416,0.0481 4.58969,-0.25003 4.19006,-0.66253 z m -68.47732,-9.94514 c 1.02883,-2.30732 1.8706,-4.45174 1.8706,-4.76538 0,-0.31364 1.64553,-3.04858 3.65672,-6.07766 5.56619,-8.38329 14.12338,-12.94025 32.7407,-17.4354 5.9002,-1.42461 6.69822,-1.84479 4.71402,-2.48204 -1.31371,-0.42191 -5.13871,-2.535 -8.5,-4.69574 -6.25666,-4.02199 -11.07734,-9.33701 -14.74103,-16.2527 l -2.06824,-3.90406 -9.99571,10.40406 c -10.67346,11.10951 -20.80646,23.88134 -20.80646,26.22488 0,0.785 1.08917,3.39645 2.42038,5.80323 1.3312,2.40677 3.18657,7.07595 4.12304,10.37595 2.18648,7.7049 3.61669,10.56205 4.25354,8.49734 0.25401,-0.82354 1.30361,-3.38515 2.33244,-5.69248 z m 143.3706,4.69514 c 0.33992,-0.55 2.16649,-1 4.05903,-1 1.89253,0 3.44097,-0.39375 3.44097,-0.875 0,-0.48125 1.0125,-0.89304 2.25,-0.91509 1.2375,-0.022 5.85,-2.08107 10.25,-4.57561 4.40001,-2.49454 9.35,-5.28374 11,-6.19824 4.89627,-2.71369 12.1526,-12.56653 18.16017,-24.65833 3.41681,-6.87721 4.11091,-9.77773 2.33983,-9.77773 -0.55,0 -1,0.6791 -1,1.5091 0,0.83001 -1.35,2.92175 -3,4.64832 -1.65,1.72656 -3,3.45132 -3,3.83279 0,1.48844 -13.17205,14.02585 -17.2195,16.38985 -5.24626,3.0642 -20.64798,8.81988 -21.76082,8.1321 -0.44534,-0.27524 -0.37125,-2.41557 0.16466,-4.7563 1.15252,-5.03399 0.49516,-15.86556 -1.47208,-24.25586 -1.27522,-5.43883 -1.46289,-5.71942 -2.0066,-3 -0.3299,1.65 -0.89641,5.475 -1.25891,8.5 -0.62237,5.19367 -6.15056,17.91708 -10.42771,24 -0.96683,1.375 -2.7303,4.42138 -3.91884,6.76972 -2.49018,4.92019 -2.45152,4.9592 6.15835,6.21579 2.8828,0.42074 5.5524,0.82112 5.93243,0.88973 0.38005,0.0686 0.96911,-0.32524 1.30903,-0.87524 z m 116.85566,-1.55163 c 8.28914,-2.09326 19.64434,-6.42147 19.64434,-7.48775 0,-0.97558 -5.94268,-5.20985 -13.88085,-9.89037 -5.92928,-3.49603 -15.23109,-6.03299 -22.20248,-6.05547 -5.06142,-0.0163 -6.41483,0.68005 -4.89074,2.51646 3.49696,4.21358 -6.75702,9.19506 -19.35926,9.40492 -4.87455,0.0812 -4.46312,1.62007 1.40956,5.27243 11.99351,7.45905 25.7792,9.64899 39.27944,6.23978 z m 116.59879,-9.77075 c 1.95006,-0.79297 6.24555,-2.22021 9.54556,-3.17164 9.64503,-2.78079 25.33412,-10.89642 32.5,-16.81154 0.82499,-0.681 2.54554,-1.96886 3.82344,-2.86191 3.93656,-2.75102 0.81125,-2.90106 -6.93659,-0.33301 -12.9778,4.30154 -25.46842,2.85503 -34.82519,-4.03304 -5.8266,-4.2893 -12.06166,-11.95599 -12.06166,-14.83114 0,-1.65714 -10.05551,-14.58785 -14.61641,-18.79574 -6.86178,-6.33066 -19.34565,-9.91968 -28.8836,-8.30382 l -5,0.84706 5,0.60632 c 6.98934,0.84755 13.00357,4.28132 20.02621,11.43377 5.9,6.00906 11.46415,14.12745 11.48357,16.75514 0.0177,2.40149 5.07024,12.27357 7.68319,15.01223 4.18056,4.38167 2.73787,5.45062 -8.42445,6.24199 -9.05326,0.64184 -10.83052,0.45123 -20.83307,-2.23437 -6.0145,-1.61484 -12.65198,-3.9036 -14.74996,-5.08614 -2.09798,-1.18254 -4.22226,-1.89807 -4.72062,-1.59006 -1.3051,0.80659 -5.65124,-1.72317 -11.95777,-6.96027 -3.0211,-2.5088 -6.43815,-4.56145 -7.59345,-4.56145 -1.1553,0 -4.75849,-0.93657 -8.00709,-2.08126 -4.69655,-1.6549 -7.41902,-1.97593 -13.28949,-1.56707 -4.06062,0.28282 -7.86312,0.99439 -8.45,1.58127 -0.75608,0.75608 -0.29738,1.06706 1.57392,1.06706 1.45254,0 2.9191,0.45 3.25902,1 0.33992,0.55 1.96934,1 3.62094,1 5.37554,0 13.69426,4.85803 21.22596,12.39569 7.99643,8.00277 11.54027,10.7624 19.89082,15.48921 8.66874,4.90693 24.59906,9.91243 36.26228,11.39406 6.09108,0.77377 21.01718,-0.20363 24.45444,-1.60134 z M 317.57282,642.68743 c 2.43603,0 7.69577,-3.14825 10.67442,-6.38925 1.57242,-1.71091 5.05401,-5.58575 7.73686,-8.61075 2.68285,-3.025 6.0842,-6.71001 7.55852,-8.18892 l 2.68061,-2.68891 -2.41746,-0.51517 c -1.32961,-0.28334 -5.34247,-0.66662 -8.91747,-0.85173 -3.575,-0.1851 -7.85,-1.04964 -9.5,-1.92119 -1.65,-0.87156 -4.41515,-2.32511 -6.14478,-3.23011 -1.72962,-0.90501 -3.70272,-2.31776 -4.38467,-3.13945 -1.06962,-1.28882 -1.71397,-1.00585 -4.69204,2.06057 -3.27467,3.37183 -3.42955,3.8481 -3.01276,9.26473 0.24165,3.1406 0.74151,6.83518 1.1108,8.21018 0.36928,1.375 0.87301,5.65 1.1194,9.5 0.24639,3.85 0.51685,7.1125 0.60102,7.25 0.14188,0.23178 0.48107,1.46231 0.77803,2.82258 0.0687,0.31492 1.31069,-0.36008 2.75986,-1.5 1.44918,-1.13992 3.27152,-2.07258 4.04966,-2.07258 z M 160.64951,611.51006 c 6.19366,-6.46325 11.74005,-13.0049 12.32532,-14.537 2.19531,-5.74686 7.14011,-25.39233 6.54187,-25.99057 -0.34242,-0.34242 -3.22013,2.03862 -6.39491,5.29118 -7.05143,7.22419 -28.16527,24.34634 -36.11935,29.2908 -3.20552,1.99263 -6.89538,4.41235 -8.19969,5.37717 l -2.37147,1.7542 3.4042,6.2458 c 1.87232,3.43518 5.00741,8.22304 6.96688,10.63968 l 3.56268,4.39389 4.51163,-5.35689 c 2.4814,-2.94629 9.57918,-10.64501 15.77284,-17.10826 z m 52.12684,13.42737 c -0.74626,-0.9625 -3.3084,-3.97181 -5.69365,-6.68734 -5.18003,-5.89735 -7.59343,-10.19801 -6.20452,-11.05641 0.87578,-0.54125 5.50296,3.96524 8.6852,8.45866 3.08681,4.35868 8.74566,6.91989 17.24463,7.80498 l 8.41969,0.87682 -3.05874,-2.57335 c -5.66235,-4.76382 -9.08648,-13.23371 -10.33853,-25.57336 -0.61385,-6.05 -1.41447,-12.42796 -1.77911,-14.17325 l -0.66302,-3.17325 -6.5,3.88557 c -3.575,2.13706 -8.01683,4.1878 -9.87073,4.55719 l -3.37072,0.67162 0.45535,7.86606 c 0.32996,5.6999 0.12526,7.86606 -0.74335,7.86606 -1.20404,0 -2.47055,-6.4206 -2.47055,-12.52453 l 0,-3.24539 -8.09767,-1.18403 c -4.45372,-0.65122 -8.32433,-0.95738 -8.60136,-0.68035 -0.27703,0.27704 0.0404,3.72959 0.70545,7.67236 1.93219,11.45528 8.88208,22.71952 16.46622,26.68806 2.31999,1.21399 14.5084,5.82144 16.39981,6.19945 0.20484,0.0409 -0.23814,-0.71307 -0.9844,-1.67557 z m 175.11513,-2.12741 c 3.57325,-1.03258 8.97182,-3.01007 11.99682,-4.39442 3.025,-1.38435 7.71752,-3.26134 10.42783,-4.17109 2.7103,-0.90976 6.0853,-2.28273 7.5,-3.05106 1.41469,-0.76834 7.29717,-2.48205 13.07217,-3.80826 9.69347,-2.22608 11.19495,-2.32339 19.54741,-1.26687 6.49096,0.82104 9.95236,1.78878 12.25,3.42486 4.83711,3.44431 3.83947,1.02882 -1.67185,-4.04798 -6.13914,-5.6551 -10.94081,-7.57877 -21.01441,-8.41888 -7.08014,-0.59046 -8.94874,-0.35263 -16.4815,2.09775 -10.54769,3.43111 -12.54978,3.02109 -17.2597,-3.53479 -1.97594,-2.75036 -4.55501,-5.50515 -5.73129,-6.12176 -2.06823,-1.08419 -2.08103,-1.0561 -0.38866,0.85314 1.17241,1.32265 1.75,3.63222 1.75,6.99763 0,9.00391 -4.96442,13.49442 -20.38027,18.4347 -7.18611,2.30292 -9.89987,2.34906 -15.99579,0.27197 -2.60278,-0.88686 -4.89615,-1.44865 -5.09638,-1.24843 -1.71238,1.71238 12.93789,9.70017 17.97562,9.80087 1.65175,0.033 5.92675,-0.78481 9.5,-1.81738 z m 212.34792,-4.93951 c 1.7319,-1.0203 7.19714,-3.38607 12.14496,-5.25729 l 8.99606,-3.40221 -4.85871,-0.695 c -4.5941,-0.65716 -8.50924,-2.80902 -18.72448,-10.29146 -1.97508,-1.44671 -8.27508,-4.28547 -14,-6.30836 l -10.40892,-3.67797 -20.00642,-0.0658 c -11.00352,-0.0362 -20.45352,-0.34122 -21,-0.67781 -0.54647,-0.33659 -3.39296,-0.9159 -6.32552,-1.28735 -2.93256,-0.37145 -7.54507,-1.24945 -10.25,-1.9511 -11.1367,-2.88882 -2.12001,3.04243 12.08194,7.9476 10.44189,3.6065 15.70448,4.3905 33.26856,4.95624 14.23239,0.45842 19.87909,2.1347 25.5514,7.58515 4.9332,4.74026 5.20609,6.98399 1.69269,13.91734 l -2.48734,4.90854 5.58844,-1.92271 c 3.07364,-1.05748 7.00545,-2.75749 8.73734,-3.77778 z m -359.53997,-0.43308 c -3.75606,-11.63414 -5.84128,-35.83649 -3.92623,-45.57048 1.46533,-7.44811 3.64594,-11.37491 22.31235,-40.17952 1.96031,-3.025 4.29173,-7.64986 5.18093,-10.27746 2.04386,-6.03962 3.13778,-26.74086 2.16486,-40.96753 l -0.73482,-10.74498 -2.65411,0.62264 c -6.55335,1.53738 -18.89438,12.09681 -22.66927,19.39666 -1.76241,3.40812 -3.05412,20.97067 -1.54239,20.97067 0.43331,0 1.93702,-0.90395 3.34158,-2.00878 4.07464,-3.2051 8.1206,-3.58659 10.69847,-1.00873 1.63583,1.63584 2.02553,2.86552 1.53836,4.85417 -0.908,3.70643 -2.65512,5.22086 -8.15299,7.06716 -3.94538,1.32494 -5.65996,2.7857 -10.08985,8.59618 -8.02598,10.5273 -8.78647,13.92299 -8.73444,39 0.0608,29.28468 2.63022,40.08305 12.31388,51.75 2.02032,2.4341 2.15528,2.22185 0.95367,-1.5 z m 11.2569,-23.05711 c 1.35465,-13.1313 4.82773,-21.4601 13.63903,-32.70777 8.04693,-10.27197 13.88676,-19.81394 16.67063,-27.23896 1.28803,-3.43539 2.68716,-7.14616 3.10917,-8.24616 0.42202,-1.1 -0.60347,0.025 -2.27886,2.5 -5.97416,8.82544 -8.41117,11.0207 -28.03596,25.25472 -6.56659,4.76281 -10.728,9.09543 -13.16918,13.71099 -2.88225,5.44951 -2.18369,28.22756 0.99778,32.53429 0.40629,0.55 1.30918,2.8 2.00641,5 0.69723,2.2 2.21838,6.025 3.38032,8.5 l 2.11263,4.5 0.22657,-6.5 c 0.12461,-3.575 0.72827,-11.3632 1.34146,-17.30711 z m 100.48065,16.38587 c -0.31315,-0.50668 -2.70221,-1.71465 -5.30902,-2.68436 -9.7326,-3.62046 -14.5514,-8.27506 -19.66195,-18.99191 -0.81241,-1.70363 -1.93401,-6.7413 -2.49243,-11.19482 -1.0005,-7.97908 -4.89896,-18.36992 -8.5195,-22.70767 -1.65107,-1.97811 -1.66255,-1.97537 -1.05016,0.25 1.00058,3.63607 -1.45491,2.63954 -3.08006,-1.25 -0.80431,-1.925 -1.98343,-3.5 -2.62023,-3.5 -0.63682,0 -1.93453,-0.70289 -2.88382,-1.56198 -1.54112,-1.39469 -2.56703,-1.41 -9.57874,-0.14291 -8.48267,1.53291 -16.66873,4.30856 -19.77433,6.70489 -3.70936,2.8622 -8.57844,8.28645 -8.57844,9.55655 0,0.70223 -0.3375,1.42678 -0.75,1.61012 -2.85318,1.26808 -9.39564,15.55996 -10.40997,22.74038 -0.62226,4.40494 1.76425,3.20879 4.22836,-2.1193 2.65433,-5.7394 14.81198,-19.30358 18.27198,-20.38587 1.1878,-0.37155 3.461,-1.76366 5.05155,-3.09357 2.46307,-2.05944 3.79776,-2.38213 9,-2.17597 3.35946,0.13314 6.67059,0.66293 7.35809,1.17731 1.42361,1.06513 1.72566,8.69035 0.34424,8.69035 -0.49817,0 -2.3121,2.1375 -4.03095,4.75 -1.71885,2.6125 -4.76642,5.9875 -6.77238,7.5 -2.00595,1.5125 -3.29753,2.75 -2.87018,2.75 0.91236,0 7.41274,-2.76372 9.57927,-4.07275 3.20716,-1.93778 8.94684,-4.92725 9.46016,-4.92725 1.77103,0 -0.0104,2.99999 -3.63073,6.11408 l -4.20153,3.61409 1.30445,6.9133 c 0.71745,3.80232 1.13543,9.03848 0.92884,11.63592 -0.20658,2.59743 -0.1032,4.72261 0.22973,4.72261 0.33293,0 1.411,-1.78666 2.39571,-3.97036 3.55664,-7.88721 4.09401,-7.96089 15.73255,-2.15717 5.89369,2.93897 12.62784,5.5037 15.78082,6.0102 7.54914,1.2127 17.248,1.32762 16.54868,0.19609 z m -76.53279,-4.32876 c 0.5315,-1.2375 1.90024,-3.40983 3.04163,-4.82739 2.20425,-2.73762 3.87876,-8.47219 3.91942,-13.42261 0.0244,-2.97306 0.8888,-4.17055 11.18847,-15.5 4.72839,-5.20115 3.7871,-6.08171 -3.7616,-3.51886 -10.82223,3.67424 -22.48491,16.31197 -22.35967,24.22902 0.063,3.98305 2.24032,11.72273 3.84006,13.65031 1.8492,2.22813 2.98455,2.06038 4.13169,-0.61047 z m 95.0659,0.25 c 2.15501,0 3.91821,-0.45 3.91821,-1 0,-0.55 -1.24108,-1 -2.75796,-1 -5.22376,0 -18.00079,-7.91058 -21.15532,-13.0978 -2.09003,-3.43678 -2.61896,-12.21189 -1.08048,-17.92538 1.62651,-6.04038 7.401,-13.00507 13.85799,-16.71431 6.68244,-3.83875 8.35126,-3.95685 13.63577,-0.96497 4.41,2.49676 5.93549,5.04128 6.89963,11.50859 0.57868,3.88166 0.34238,4.60571 -2.39719,7.34528 -2.71075,2.71075 -3.57701,3.00183 -8.01686,2.69387 -4.89204,-0.33934 -4.93906,-0.31554 -2.73165,1.38231 4.17028,3.20761 8.83349,4.91859 14.05243,5.15596 4.78737,0.21775 5.44787,-0.038 8.44364,-3.26908 3.47366,-3.74653 3.85112,-5.40321 2.21284,-9.71221 -0.749,-1.97001 -0.71427,-3.02999 0.125,-3.8151 0.84177,-0.78745 1.29016,-0.73763 1.62645,0.1807 0.25535,0.69732 1.01657,1.82232 1.69159,2.5 0.67502,0.67768 2.06462,2.51241 3.088,4.07718 1.5122,2.3122 13.02437,11.77538 18.2327,14.98757 3.16486,1.95189 29.65622,3.47505 30.71256,1.76586 0.44543,-0.72071 -0.56638,-1.09847 -2.94223,-1.09847 -3.94835,0 -13.19875,-2.70855 -14.07112,-4.12007 -0.2991,-0.48396 -1.41727,-0.87993 -2.48481,-0.87993 -1.06754,0 -1.94098,-0.35298 -1.94098,-0.78439 0,-0.43142 -1.4625,-1.63499 -3.25,-2.6746 -3.61982,-2.1053 -12.0758,-8.65684 -12.56461,-9.73483 -0.17303,-0.38161 -0.90229,-0.46831 -1.62057,-0.19268 -0.73246,0.28107 -2.77828,-1.39038 -4.65868,-3.80618 -1.84399,-2.36903 -7.09448,-8.6862 -11.66775,-14.03817 -7.31731,-8.56324 -9.21117,-10.16188 -15.78327,-13.32293 -10.2945,-4.95146 -15.82142,-5.38627 -25.80771,-2.03036 -9.71713,3.26546 -12.48584,4.68596 -15.57172,7.98913 -1.33338,1.42725 -2.76401,2.59501 -3.17919,2.59501 -0.41519,0 -3.31438,-2.68337 -6.44266,-5.96305 -6.35609,-6.66369 -10.5069,-8.39319 -22.95384,-9.56406 -9.58094,-0.90127 -16.76687,1.75327 -22.56807,8.33683 -4.29896,4.87872 -7.42822,10.02732 -6.59868,10.85686 0.2644,0.2644 2.36173,-0.88187 4.66073,-2.54726 6.56851,-4.7582 19.3503,-8.15096 23.50602,-6.23935 1.1,0.50599 4.58103,1.67984 7.73561,2.60855 6.03631,1.7771 9.55115,4.88314 11.4617,10.12862 1.2095,3.32071 3.96314,15.01789 4.91604,20.88286 1.84411,11.35007 14.81924,24.49133 27.9649,28.32293 3.80696,1.10963 7.52105,1.82841 8.25355,1.59729 0.73248,-0.23112 3.09498,-0.42022 5.25,-0.42022 z M 492.64704,580.8577 c 0.82889,-0.52622 -1.97425,-2.48049 -8.20858,-5.72281 -13.53321,-7.03827 -30.51181,-22.41551 -36.03841,-32.6394 -6.75439,-12.4952 -13.93469,-17.43722 -27.17175,-18.70162 -4.07314,-0.38906 -7.6044,-0.5087 -7.84725,-0.26585 -0.24284,0.24284 2.56427,1.49185 6.23803,2.77556 9.32319,3.25778 16.97901,8.74703 19.25891,13.80871 3.12749,6.94346 4.23357,11.57158 3.58796,15.01295 -0.54093,2.88342 -1.09851,3.38648 -4.34906,3.92382 -5.60271,0.92617 -11.26823,0.75502 -15.6956,-0.47413 -5.49041,-1.52428 -16.88349,-9.03968 -23.89854,-15.76456 -3.22607,-3.09262 -5.38813,-4.68593 -4.8046,-3.5407 0.58353,1.14524 1.76054,2.66284 2.61556,3.37245 0.85503,0.70961 1.5546,1.7047 1.5546,2.21132 0,1.20227 5.67504,7.60295 14.48224,16.33399 10.90499,10.81071 23.15003,16.3064 42.05408,18.87429 11.11325,1.5096 36.27301,2.03355 38.22242,0.79598 z m 70.24127,-0.72299 c 5.23448,-0.31849 7.51342,-0.59632 16.33934,-1.99194 5.40932,-0.85536 11.37395,-3.08466 14.19919,-5.30699 l 2.40841,-1.89445 -7.72347,-0.49289 c -8.76735,-0.55952 -16.80493,-3.58828 -27.03748,-10.1884 -6.34272,-4.09113 -13.72602,-12.67345 -19.41905,-22.57261 -5.14928,-8.95366 -16.76694,-31.19077 -16.76694,-32.09321 0,-1.93388 -11.07584,-19.99606 -17.07587,-27.84684 -3.44651,-4.50965 -8.17721,-9.51402 -10.51263,-11.12084 -3.87924,-2.66899 -15.17771,-6.50623 -16.18658,-5.49737 -0.23308,0.23309 1.75846,1.53887 4.42565,2.90174 4.88861,2.49796 8.84085,6.1743 13.66593,12.71196 2.70651,3.66713 12.6835,25.95858 12.6835,28.33857 0,0.73661 0.8533,3.53679 1.89622,6.22264 1.04294,2.68584 2.81515,8.82525 3.93827,13.64314 1.6919,7.25779 8.23332,23.87114 12.1969,30.97664 1.50862,2.70452 1.19481,3.42723 -2.07653,4.78226 -6.54181,2.70971 -29.6052,-1.34497 -41.69521,-7.33027 -3.71781,-1.84054 -8.33466,-3.97089 -10.25966,-4.7341 -6.01557,-2.38502 -15.03214,-9.32546 -25.59858,-19.70432 -4.45758,-4.37845 -8.41399,-6.06613 -4.68859,-2 1.13381,1.2375 2.97936,4.0801 4.10123,6.3169 1.12187,2.23679 2.73913,4.64732 3.59391,5.35672 0.85479,0.70941 4.51178,5.02202 8.12665,9.58358 3.61487,4.56157 9.8109,10.88338 13.76894,14.04848 10.07239,8.05452 25.60731,15.12372 35.19644,16.01622 4.51471,0.4202 11.66535,1.62969 17,2.87546 1.79602,0.41941 21.11475,-0.12482 35.5,-1.00008 z m -371.57567,-5.57628 c 4.44161,-2.27095 8.18582,-4.21859 8.32043,-4.3281 0.13464,-0.10951 0.38858,-4.66396 0.56435,-10.121 0.41215,-12.79673 3.35027,-22.04474 11.09478,-34.9219 1.01372,-1.68557 -1.0543,-0.0303 -4.71996,3.778 -5.48268,5.69596 -7.84245,9.40559 -14.78173,23.23732 -5.58278,11.12791 -8.46581,18.083 -8.90058,21.472 -0.35369,2.75697 -0.42029,5.01268 -0.14801,5.01268 0.27228,0 4.1291,-1.85805 8.57072,-4.129 z m 30.28081,-16.95204 c 1.40479,-19.13886 2.17531,-22.74579 6.83622,-32.00111 1.90225,-3.77736 3.45863,-7.10416 3.45863,-7.39289 0,-0.28873 -1.91249,-0.50878 -4.25,-0.489 -5.47406,0.0463 -8.66841,2.6449 -13.57704,11.04482 -6.83333,11.69358 -9.24071,19.1359 -9.88816,30.56872 -0.47154,8.32703 -0.31533,10.37966 0.81599,10.72132 0.76957,0.2324 4.09921,1.32339 7.39921,2.4244 3.3,1.10102 6.45,1.89854 7,1.77227 0.55469,-0.12734 1.53667,-7.54114 2.20515,-16.64853 z m 299.29486,-4.55093 c 0,-4.31056 -9.55276,-15.76014 -16.5,-19.7763 -2.20001,-1.27181 -8.05001,-3.79655 -13.00001,-5.61055 -9.92819,-3.63832 -15.74111,-8.15169 -17.54726,-13.62437 -0.93212,-2.82437 -0.77304,-3.68086 1.17246,-6.31228 2.85557,-3.86236 5.70412,-3.87589 9.3748,-0.0445 4.25652,4.44285 4.82791,3.65779 1.63765,-2.25 -3.05941,-5.66547 -5.87791,-7.75567 -14.58433,-10.81573 -7.38132,-2.59432 -10.19327,-1.89164 -10.36173,2.58932 -0.18923,5.03371 -2.40507,9.52407 -7.56889,15.33826 -2.54249,2.8627 -4.6227,5.4133 -4.6227,5.66799 0,1.1188 9.97444,9.96463 14.79751,13.12317 7.61589,4.98749 11.80159,6.17959 25.64484,7.30369 6.77227,0.54993 13.58501,1.4834 15.13943,2.07439 3.75524,1.42774 13.13757,9.50931 13.92682,11.99601 0.75632,2.38295 2.4914,2.62038 2.4914,0.34093 z M 269.97394,534.96042 c 3.78434,-3.98392 8.28649,-9.73457 10.00479,-12.77921 5.00988,-8.87702 13.9382,-15.03331 30.66416,-21.14368 9.41778,-3.44053 10.07482,-3.5396 19.54367,-2.94698 10.38276,0.64983 18.56986,2.94266 23.79641,6.66429 l 3.13679,2.23359 -1.26476,-2.4005 c -0.69561,-1.32027 -4.23296,-6.85979 -7.86076,-12.31003 -5.73135,-8.61051 -7.25209,-10.21505 -11.60097,-12.24023 -7.14418,-3.32688 -14.5031,-3.12776 -25.63261,0.69359 -8.27236,2.84033 -22.06249,9.71838 -33.12236,16.52031 l -4.75,2.9213 0,9.78579 c 0,8.9683 -0.2605,10.30186 -3.11832,15.96315 -3.13759,6.21554 -6.75229,11.38417 -12.35208,17.66213 l -3.0296,3.39651 4.35252,-2.38827 c 2.39388,-1.31355 7.44879,-5.64784 11.23312,-9.63176 z m 63.45623,-2.90149 c -0.34179,-1.82194 -1.78607,-4.6967 -3.2095,-6.38834 -2.50047,-2.97166 -2.5245,-3.12384 -0.7102,-4.49792 4.67479,-3.54049 16.57982,-2.93716 24.86042,1.25988 9.95353,5.04496 18.30122,7.26187 26.94256,7.1552 4.44117,-0.0548 9.19985,-0.45997 10.57485,-0.90032 l 2.5,-0.80064 -2.5,-0.1767 c -8.68696,-0.61397 -12.36573,-1.54625 -19.5,-4.9417 -4.4,-2.09411 -11.66029,-6.26296 -16.13397,-9.2641 -14.36683,-9.6379 -28.01803,-11.9836 -41.86602,-7.19392 -9.33828,3.22989 -20.37056,11.64637 -22.12236,16.87706 -0.3684,1.1 -1.72298,3.66889 -3.01017,5.70865 l -2.34035,3.70865 4.71223,-2.0199 c 6.55171,-2.80839 17.30986,-4.92595 21.53919,-4.23962 5.71278,0.92705 14.93392,6.55471 17.72146,10.81539 l 2.5,3.82118 0.33166,-2.80511 c 0.18242,-1.54281 0.052,-4.29579 -0.28979,-6.11774 z m 64.45813,-9.8796 c 0,-0.27945 -1.79094,-1.22469 -3.97986,-2.10052 -2.88848,-1.15574 -5.3107,-3.4159 -8.83291,-8.2419 -5.70937,-7.8228 -7.14444,-11.12588 -7.35951,-16.93933 -0.19072,-5.155 2.12659,-8.71876 7.7663,-11.9437 4.6457,-2.65654 8.4964,-2.81328 16.76164,-0.68226 12.7102,3.27707 25.64434,12.59188 25.64434,18.46836 0,1.54949 -0.43886,3.97155 -0.97525,5.38235 -1.19652,3.14709 -0.58151,3.20007 3.65755,0.3151 4.41443,-3.00433 5.2182,-7.31924 2.72805,-14.64514 -2.49172,-7.33051 -8.52307,-15.16245 -19.89773,-25.83795 -17.39785,-16.32845 -18.65271,-23.69704 -5.39032,-31.65203 8.23371,-4.93871 18.29936,-8.61488 23.58822,-8.61488 3.38547,0 4.38628,-0.3032 3.59909,-1.09038 -1.69477,-1.69478 -27.53431,-1.32877 -35.84183,0.50769 -3.83228,0.84716 -8.09278,1.74462 -9.46778,1.99435 -16.22824,2.94745 -43.92908,15.75898 -48.65146,22.50112 -0.80407,1.14797 -1.95646,2.08722 -2.56085,2.08722 -1.82178,0 -7.86845,5.06031 -7.24741,6.06518 0.31777,0.51415 1.49423,0.93482 2.61437,0.93482 5.52336,0 11.455,8.06012 14.22872,19.33449 2.08319,8.46754 9.48265,23.40457 14.15734,28.57889 3.859,4.27145 16.27991,13.0661 18.53261,13.12206 0.78468,0.0195 2.55168,0.67854 3.92668,1.46456 2.31478,1.32325 13,2.13853 13,0.9919 z m 107.26582,-12.11935 c 0.10226,-7.25757 -0.18764,-8.45843 -3.7111,-15.37255 -6.47617,-12.70822 -13.7753,-21.93866 -24.27789,-30.70165 -2.76966,-2.3109 -5.33168,-5.38077 -5.69339,-6.82193 -1.9989,-7.96424 12.93844,-17.46825 25.30045,-16.09763 l 5.61612,0.62268 -2.50001,-1.95357 c -4.24216,-3.31494 -27.23227,-4.83272 -35.5,-2.34368 -21.26725,6.40263 -39.39805,9.83152 -54.25,10.25974 -2.69951,0.0778 -0.89946,2.73036 7.5,11.05194 9.80851,9.71756 15.61828,16.86339 19.1054,23.49902 1.95772,3.72535 2.36819,6.0455 2.43121,13.7422 0.10179,12.43319 -2.27717,16.16696 -11.28661,17.7143 l -3.5,0.60111 2.96365,1.96373 c 3.64948,2.41818 13.39611,2.44088 17.06071,0.0397 5.34696,-3.50346 11.28754,-14.71697 13.2845,-25.07599 0.76023,-3.94363 0.83871,-4.00435 5.56885,-4.30837 8.25036,-0.53029 24.67111,5.70081 29.19665,11.07911 3.11042,3.69656 10.42565,18.01531 10.42565,20.40709 0,1.23066 0.30751,1.41468 1.07745,0.64475 0.59259,-0.5926 1.12735,-4.6201 1.18836,-8.95 z m -106.23064,5.69319 c -1.32117,-2.46863 -1.34406,-7.06574 -0.0352,-7.06574 0.55,0 1,-0.62686 1,-1.39301 0,-3.25851 8.83403,-3.57342 13.19201,-0.47026 l 3.00076,2.13672 -1.51788,-2.93524 c -2.56708,-4.9642 -9.29063,-11.1377 -13.36106,-12.268 -4.7843,-1.32854 -7.0237,-1.34866 -7.81383,-0.0702 -0.33992,0.55 0.12659,1 1.03669,1 2.21659,0 7.46331,3.16095 7.46331,4.49637 0,0.58584 -1.31434,1.56126 -2.92075,2.16762 -2.13879,0.8073 -3.19543,2.09725 -3.94671,4.81814 -1.0481,3.79594 -0.51545,5.67259 2.77245,9.76787 1.85939,2.31598 2.41942,2.22468 1.13019,-0.18426 z m -165.2343,-11.42523 c 0.14683,-10.05643 2.61296,-17.45427 8.15631,-24.46714 5.92251,-7.49253 15.29616,-14.17337 19.88616,-14.17337 2.42479,0 3.27814,-2.00481 3.83085,-9 1.29869,-16.43637 7.17856,-29.8205 17.7408,-40.38274 3.9989,-3.9989 9.70394,-8.68877 12.67786,-10.42193 l 5.40714,-3.15121 -3.78916,-0.0221 c -2.09399,-0.0122 -9.19687,2.00082 -15.87688,4.49964 -12.44347,4.65477 -23.3891,11.1054 -28.41464,16.74572 -3.07907,3.45572 -10.92327,17.46613 -13.98505,24.97847 -1.06385,2.61025 -2.38264,4.59829 -2.93065,4.41788 -2.22722,-0.73323 -4.05944,-18.23891 -2.48395,-23.73237 0.47129,-1.64324 2.34715,-4.87235 4.16861,-7.1758 l 3.31172,-4.18809 -4.64173,3.18979 c -8.91677,6.12761 -15.22264,15.61477 -23.75722,35.7427 -6.07469,14.32656 -6.01511,28.83139 0.17197,41.85961 3.86153,8.13129 5.0296,9.09685 14.22698,11.76035 3.3,0.95565 6.04023,1.76961 6.0894,1.8088 0.0492,0.0392 0.14434,-3.69053 0.21148,-8.28825 z m 45.69069,-13.05448 c 7.79656,-5.43658 23.40088,-13.77355 30.00843,-16.0327 2.494,-0.85271 13.45751,-1.97467 19.67362,-2.01333 3.32618,-0.0207 5.56057,0.62668 7.75,2.24541 l 3.07638,2.27447 -0.004,-2.27994 c -0.009,-5.75625 -8.01537,-12.81157 -16.24601,-14.31674 -2.66481,-0.48733 -3.75,-1.19867 -3.75,-2.45813 0,-2.42661 6.27029,-7.88815 15.03284,-13.09389 4.0176,-2.38681 8.33332,-5.36825 9.59049,-6.62542 1.25717,-1.25717 2.89311,-2.28576 3.63543,-2.28576 0.74233,0 3.50352,-1.36592 6.13598,-3.03539 2.63247,-1.66946 7.78307,-3.7269 11.44579,-4.57209 3.66271,-0.84519 9.20299,-2.82507 12.31174,-4.39975 3.10876,-1.57468 7.60876,-3.40613 10,-4.06989 l 4.34773,-1.20683 -2.98143,-0.83343 c -5.33878,-1.49242 -27.86174,-3.11815 -34.21701,-2.46982 -6.10561,0.62286 -30.10785,5.49547 -37.68296,7.64988 -5.80229,1.6502 -14.3674,6.56807 -20.36882,11.69524 -6.77341,5.7867 -8.05484,5.01152 -6.31707,-3.8214 1.38544,-7.04207 3.59637,-12.42101 6.44608,-15.68258 1.07933,-1.23533 1.72261,-2.48587 1.4295,-2.77898 -0.73732,-0.73732 -11.30408,9.94971 -15.84469,16.02504 -2.06951,2.769 -4.70474,8.1234 -5.90594,12 -1.19296,3.85 -2.61412,8.43768 -3.15813,10.19485 -1.78844,5.77675 -2.1951,19.77771 -0.91863,31.62779 0.8735,8.10919 1.59894,11.4521 2.38699,10.99955 0.62266,-0.35757 2.47831,-1.58884 4.12368,-2.73616 z"
       id="path4857"
       inkscape:connector-curvature="0" />
  </g>
</svg>
