<?xml version="1.0" encoding="UTF-8" standalone="no"?>
<!-- Created with Inkscape (http://www.inkscape.org/) -->

<svg
   xmlns:dc="http://purl.org/dc/elements/1.1/"
   xmlns:cc="http://creativecommons.org/ns#"
   xmlns:rdf="http://www.w3.org/1999/02/22-rdf-syntax-ns#"
   xmlns:svg="http://www.w3.org/2000/svg"
   xmlns="http://www.w3.org/2000/svg"
   xmlns:sodipodi="http://sodipodi.sourceforge.net/DTD/sodipodi-0.dtd"
   xmlns:inkscape="http://www.inkscape.org/namespaces/inkscape"
   width="33.302223mm"
   height="41.681232mm"
   viewBox="0 0 118 147.68941"
   id="svg4401"
   version="1.1"
   inkscape:version="0.91 r13725"
   sodipodi:docname="lion head (modified 01).svg">
  <defs
     id="defs4403" />
  <sodipodi:namedview
     id="base"
     pagecolor="#ffffff"
     bordercolor="#666666"
     borderopacity="1.0"
     inkscape:pageopacity="0.0"
     inkscape:pageshadow="2"
     inkscape:zoom="3.959798"
     inkscape:cx="55.352636"
     inkscape:cy="54.387166"
     inkscape:document-units="px"
     inkscape:current-layer="layer4"
     showgrid="false"
     fit-margin-top="0"
     fit-margin-left="0"
     fit-margin-right="0"
     fit-margin-bottom="0"
     showguides="true"
     inkscape:guide-bbox="true"
     inkscape:snap-global="true">
    <sodipodi:guide
       position="38.816964,118.08861"
       orientation="0,1"
       id="guide4190" />
    <sodipodi:guide
       position="25.474785,115.25954"
       orientation="1,0"
       id="guide4192" />
    <sodipodi:guide
       position="36.996837,84.860265"
       orientation="0,1"
       id="guide4214" />
    <sodipodi:guide
       position="17.611607,70.722546"
       orientation="1,0"
       id="guide4216" />
  </sodipodi:namedview>
  <metadata
     id="metadata4406">
    <rdf:RDF>
      <cc:Work
         rdf:about="">
        <dc:format>image/svg+xml</dc:format>
        <dc:type
           rdf:resource="http://purl.org/dc/dcmitype/StillImage" />
        <dc:title></dc:title>
      </cc:Work>
    </rdf:RDF>
  </metadata>
  <g
     inkscape:label="mane"
     inkscape:groupmode="layer"
     id="layer1"
     transform="translate(-225.14289,-324.55221)"
     style="display:inline"
     sodipodi:insensitive="true">
    <path
       style="fill:#000000"
       d="m 320.98793,387.89925 c 0.25678,-11.19841 -0.0268,-19.05695 -0.81466,-22.57758 -0.6647,-2.97017 -1.0109,-5.59795 -0.76934,-5.83951 0.24155,-0.24156 3.79982,2.83086 7.90725,6.82759 7.29874,7.10204 15.83171,18.80192 15.83171,21.70748 0,2.27514 -9.21064,10.35992 -15.80962,13.87715 -3.28369,1.75018 -6.14333,3.18215 -6.35477,3.18215 -0.21144,0 -0.2072,-7.72977 0.009,-17.17728 z"
       id="path4155"
       inkscape:connector-curvature="0" />
    <path
       style="fill:#000000"
       d="m 239.09008,398.52227 c -8.43961,-4.50298 -13.94719,-9.07049 -13.94719,-11.56658 0,-2.87544 6.35441,-12.35081 12.84888,-19.15957 9.20705,-9.65263 8.65112,-10.51223 8.65112,13.37673 0,11.49526 -0.225,20.88815 -0.5,20.87308 -0.275,-0.0151 -3.44877,-1.60071 -7.05281,-3.52366 z"
       id="path4153"
       inkscape:connector-curvature="0" />
    <path
       style="fill:#000000"
       d="m 335.71304,363.59763 c -9.84775,-8.07203 -13.20327,-9.50975 -25.45101,-10.90489 l -10.61914,-1.20963 5,-1.19135 c 13.76884,-3.28071 31.40235,-4.32398 33.2165,-1.96523 1.31117,1.70477 5.61127,18.2667 5.12302,19.73143 -0.22531,0.67593 -3.31911,-1.22236 -7.26937,-4.46033 z"
       id="path4151"
       inkscape:connector-curvature="0" />
    <path
       style="fill:#000000"
       d="m 226.14289,364.47087 c 0,-2.64904 3.10143,-13.80072 4.21185,-15.14434 2.10955,-2.5526 37.78815,-0.85549 37.78815,1.79745 0,0.38596 -3.7523,0.89869 -8.33845,1.1394 -6.98097,0.36641 -9.58477,1.02954 -15.99414,4.07333 -4.21062,1.99962 -9.6519,5.0091 -12.09172,6.68774 -5.10435,3.51189 -5.57569,3.63416 -5.57569,1.44642 z"
       id="path4149"
       inkscape:connector-curvature="0" />
    <path
       style="fill:#000000"
       d="m 273.7777,349.39297 c -2.67586,-1.38883 -8.52586,-3.17984 -13,-3.98002 -4.47415,-0.80019 -9.93481,-1.77832 -12.13481,-2.17364 l -4,-0.71875 8.5,-2.64187 c 13.68728,-4.25412 13.89258,-4.24807 18.33616,0.54075 6.51751,7.0239 9.92208,11.66244 8.49787,11.57788 -0.73372,-0.0436 -3.52337,-1.21552 -6.19922,-2.60435 z"
       id="path4147"
       inkscape:connector-curvature="0" />
    <path
       style="fill:#000000"
       d="m 281.25999,345.32653 c -1.82169,-3.7125 -4.89756,-9.37322 -6.83526,-12.57938 -2.69281,-4.45558 -3.24689,-6.10525 -2.3511,-7 1.55404,-1.55223 24.53039,-1.61084 26.07393,-0.0665 0.80481,0.80522 0.11075,2.79803 -2.5639,7.36164 -2.0171,3.44165 -4.97092,9.1323 -6.56406,12.6459 -1.59314,3.51359 -3.24556,6.38835 -3.67203,6.38835 -0.42648,0 -2.26589,-3.0375 -4.08758,-6.75 z"
       id="path4145"
       inkscape:connector-curvature="0" />
    <path
       style="fill:#000000"
       d="m 296.14289,344.98095 7.5,-7.0085 6.05951,0.56037 c 3.33273,0.30821 8.04979,1.13662 10.48236,1.84091 l 4.42286,1.28054 -5.98237,1.32803 c -3.2903,0.73041 -10.89545,3.07542 -16.90034,5.21113 -6.00489,2.1357 -11.40489,3.86351 -12,3.83956 -0.59511,-0.0239 2.29298,-3.19736 6.41798,-7.05204 z"
       id="path4471"
       inkscape:connector-curvature="0" />
  </g>
  <g
     inkscape:groupmode="layer"
     id="layer4"
     inkscape:label="bottom mane"
     style="display:inline"
     transform="translate(0,-2.476012e-6)">
    <path
       inkscape:connector-curvature="0"
       style="fill:#000000"
       d="m 53.742781,147.29029 c -3.56579,-0.8718 -3.55747,-1.67919 0.19402,-18.83218 1.61906,-7.40281 3.4818,-16.48807 4.13944,-20.18947 0.65764,-3.7014 1.54719,-6.98094 1.97676,-7.28785 0.94085,-0.67219 1.30941,1.08341 3.95199,18.82469 1.12891,7.57906 2.48799,15.34729 3.02017,17.26274 1.5654,5.63413 1.26004,8.8702 -0.90714,9.61359 -2.98862,1.02515 -9.38469,1.33964 -12.37524,0.60848 z"
       id="path4169" />
    <path
       inkscape:connector-curvature="0"
       style="fill:#000000"
       d="m 71.437671,131.98325 c 1.23675,-8.74742 1.68602,-27.45591 0.77726,-32.367242 -0.52181,-2.82012 -0.80951,-5.232121 -0.63934,-5.360007 1.45523,-1.093577 10.02336,13.593769 12.51901,21.459869 1.23604,3.8959 1.22051,3.95368 -2.32557,8.65263 -1.96345,2.6018 -5.22377,6.31686 -7.24515,8.25569 l -3.67523,3.52514 0.58902,-4.16608 z"
       id="path4167" />
    <path
       inkscape:connector-curvature="0"
       style="fill:#000000"
       d="m 44.546471,132.4946 c -2.02621,-1.51504 -5.25236,-4.78632 -7.16921,-7.26949 -3.25322,-4.21437 -3.41575,-4.7135 -2.44183,-7.4989 1.1355,-3.24748 11.7283,-22.300572 12.72086,-22.880772 0.33583,-0.196306 0.35727,5.699922 0.0476,13.102732 -0.30961,7.40281 -0.18502,16.48807 0.27688,20.18947 0.4619,3.7014 0.70704,6.81572 0.54474,6.9207 -0.16229,0.10498 -1.95288,-1.0487 -3.97909,-2.56374 z"
       id="path4165" />
    <g
       id="g4276"
       transform="matrix(1,0,0,1.1472202,0,-18.10893)">
      <path
         id="path4163"
         d="m 84.949681,109.41416 c -0.0237,-0.10127 -0.22431,-8.1157 -0.44578,-17.80985 -0.30936,-13.540801 -0.13488,-17.32864 0.75285,-16.343856 0.63554,0.70503 4.18126,6.906081 7.87938,13.780114 7.751919,14.409212 7.848809,13.597102 -2.1409,17.945132 -3.30135,1.43692 -6.02185,2.52972 -6.04555,2.42846 z"
         style="fill:#000000"
         inkscape:connector-curvature="0" />
      <path
         id="path4161"
         d="m 27.666101,105.6453 c -2.56826,-1.09033 -5.65848,-2.87254 -6.86714,-3.96048 l -2.19758,-1.978062 2.80691,-5.17286 c 3.14747,-5.800473 10.55073,-16.22552 13.10444,-18.45327 1.63696,-1.428024 1.66141,-1.395798 1.07988,1.423101 -1.54853,7.506335 -2.51406,21.275075 -1.78657,25.477191 0.93686,5.4115 0.6372,5.54153 -6.13994,2.66438 z"
         style="fill:#000000"
         inkscape:connector-curvature="0" />
    </g>
  </g>
  <g
     inkscape:groupmode="layer"
     id="layer3"
     inkscape:label="face"
     style="display:inline"
     sodipodi:insensitive="true"
     transform="translate(0,-2.476012e-6)">
    <path
       inkscape:connector-curvature="0"
       style="fill:#000000"
       d="m 56.479592,98.156068 c -1.65021,-0.7192 -3.6392,-2.07736 -4.41998,-3.01815 -1.25176,-1.50827 -1.13348,-1.99646 1.00038,-4.129 3.44674,-3.44462 7.69231,-3.99776 11.66999,-1.52045 3.99528,2.48828 4.03797,3.41939 0.32692,7.13043 -3.25269,3.252695 -4.23646,3.429002 -8.57731,1.53717 z"
       id="path4159" />
    <path
       inkscape:connector-curvature="0"
       style="fill:#000000"
       d="m 44.274932,87.036928 c -2.55327,-2.55327 -3.29681,-3.97889 -2.73816,-5.25 3.16397,-7.19916 0.79869,-15.48438 -8.10338,-28.38488 -3.55244,-5.14804 -6.93354,-10.79502 -7.51354,-12.54884 -1.53121,-4.63007 0.88205,-8.89005 5.81173,-10.25909 4.64531,-1.29007 4.85548,-1.28889 9.69373,0.0544 3.51267,0.97524 3.732,1.20893 2,2.13099 -2.5409,1.35269 -6.44533,4.90488 -6.44533,5.86385 0,0.414 2.55077,-0.78326 5.66838,-2.66059 11.18969,-6.73808 19.56923,-6.25005 39.24566,2.28569 3.47144,1.50592 -0.44503,-1.95798 -4.60302,-4.07113 l -4.55143,-2.31311 3.13908,-1.30025 c 4.26824,-1.76796 11.10298,-0.75815 13.30918,1.96639 2.6276,3.24495 3.22368,8.25648 1.40121,11.78074 -0.86236,1.66763 -4.01647,6.4448 -7.00911,10.61592 -7.17482,10.0002 -8.1268,13.00298 -6.63274,20.92122 1.35275,7.1693 0.45975,10.69268 -3.34133,13.18323 -2.30273,1.50882 -2.73217,1.47695 -6.58493,-0.48858 -6.42779,-3.27921 -7.62297,-10.34946 -1.89347,-11.20105 1.18353,-0.17591 3.04291,-1.51788 4.13197,-2.98215 1.83011,-2.46064 1.88691,-3.15622 0.74978,-9.18279 -1.31841,-6.98728 -0.95329,-8.6549 1.89493,-8.6549 1.91405,0 7.07584,-3.60042 7.07584,-4.9355 0,-0.93971 -8.89751,1.77591 -10.87983,3.32065 -1.06967,0.83354 -1.23901,2.9073 -0.75337,9.22539 0.70334,9.1502 0.22228,10.09505 -5.62278,11.04357 -2.21363,0.35923 -4.57881,-0.0344 -6.65381,-1.10746 -3.18355,-1.64628 -3.21178,-1.72544 -2.53815,-7.11703 1.00302,-8.02788 -0.46414,-10.73573 -7.2169,-13.31987 -6.94723,-2.65855 -7.18243,-2.64053 -4.38603,0.3361 1.26376,1.34521 3.7047,2.58271 5.42431,2.75 l 3.12656,0.30415 0.13141,7.71978 c 0.16418,9.64403 0.43437,10.3168 4.71015,11.72793 4.29786,1.41842 4.90375,2.83567 2.94303,6.88412 -1.34343,2.77386 -6.70905,7.16817 -8.75262,7.16817 -0.40259,0 -2.30924,-1.57727 -4.23702,-3.50505 z"
       id="path4157" />
  </g>
</svg>
