<?xml version="1.0" encoding="UTF-8" standalone="no"?>
<!-- Created with Inkscape (http://www.inkscape.org/) -->

<svg
   xmlns:dc="http://purl.org/dc/elements/1.1/"
   xmlns:cc="http://creativecommons.org/ns#"
   xmlns:rdf="http://www.w3.org/1999/02/22-rdf-syntax-ns#"
   xmlns:svg="http://www.w3.org/2000/svg"
   xmlns="http://www.w3.org/2000/svg"
   xmlns:sodipodi="http://sodipodi.sourceforge.net/DTD/sodipodi-0.dtd"
   xmlns:inkscape="http://www.inkscape.org/namespaces/inkscape"
   width="27.685999mm"
   height="38.099998mm"
   viewBox="0 0 98.099996 134.99999"
   id="svg4203"
   version="1.1"
   inkscape:version="0.91 r13725"
   sodipodi:docname="rampant lion 2.svg">
  <defs
     id="defs4205" />
  <sodipodi:namedview
     id="base"
     pagecolor="#ffffff"
     bordercolor="#666666"
     borderopacity="1.0"
     inkscape:pageopacity="0.0"
     inkscape:pageshadow="2"
     inkscape:zoom="5.6"
     inkscape:cx="42.706407"
     inkscape:cy="63.291993"
     inkscape:document-units="px"
     inkscape:current-layer="layer1"
     showgrid="false"
     fit-margin-top="0"
     fit-margin-left="0"
     fit-margin-right="0"
     fit-margin-bottom="0" />
  <metadata
     id="metadata4208">
    <rdf:RDF>
      <cc:Work
         rdf:about="">
        <dc:format>image/svg+xml</dc:format>
        <dc:type
           rdf:resource="http://purl.org/dc/dcmitype/StillImage" />
        <dc:title></dc:title>
      </cc:Work>
    </rdf:RDF>
  </metadata>
  <g
     inkscape:label="Layer 1"
     inkscape:groupmode="layer"
     id="layer1"
     transform="translate(-276.66425,-393.43362)">
    <path
       style="fill:#000000"
       d="m 311.4238,520.92194 c -0.64713,-0.72726 -1.02788,-0.88862 -2.1,-0.88999 -1.90624,-0.002 -3.49968,-0.52807 -4.02328,-1.32717 -0.60118,-0.91753 -0.60538,-3.45717 -0.009,-5.70919 0.32056,-1.21139 0.47316,-3.11011 0.47316,-5.8875 0,-2.25471 0.0883,-4.54084 0.19616,-5.08028 0.12454,-0.62271 0.87607,-1.70434 2.05836,-2.9625 1.02421,-1.08993 2.09214,-2.43057 2.37318,-2.97919 0.7659,-1.49514 0.89657,-4.59088 0.3188,-7.5525 -0.27361,-1.4025 -0.56886,-3.70709 -0.65612,-5.12131 l -0.15864,-2.5713 -1.60028,1.60029 c -1.82912,1.82911 -3.51165,2.64984 -6.36761,3.10608 -5.30841,0.84803 -11.44229,-1.2024 -15.41253,-5.15209 -5.29318,-5.26579 -6.76383,-13.65847 -3.87084,-22.09003 1.13042,-3.29459 2.4791,-5.52218 4.7239,-7.80235 3.069,-3.11737 6.8534,-4.37457 11.21816,-3.72674 4.22184,0.62661 7.28699,2.79547 8.93382,6.32145 0.67832,1.45234 0.78667,2.08097 0.78184,4.536 -0.005,2.49748 -0.1045,3.03947 -0.80506,4.38177 -0.86259,1.65277 -2.44144,3.44298 -4.16146,4.71855 -1.39324,1.03323 -1.52976,1.00772 -0.93798,-0.17532 0.30331,-0.60635 0.4852,-1.7123 0.48107,-2.925 -0.008,-2.26058 -0.60794,-3.64683 -2.55128,-5.89219 -1.51571,-1.75125 -2.06349,-2.98242 -2.06349,-4.63775 0,-1.04258 0.1763,-1.41548 1.06583,-2.25442 l 1.06583,-1.00521 -0.98106,-0.59661 c -1.15749,-0.70392 -3.16026,-1.05567 -4.64177,-0.81525 -3.26691,0.53014 -7.08351,3.90931 -9.03723,8.00143 -5.49857,11.51692 -0.25463,23.62784 10.93696,25.25904 4.39465,0.64052 7.58166,-0.44869 9.42399,-3.22079 0.43434,-0.65354 1.35047,-2.72643 2.03585,-4.60643 2.3934,-6.56506 4.80105,-10.13237 8.93322,-13.23594 4.08937,-3.07144 4.8908,-4.42596 4.89545,-8.27391 0.004,-3.60062 1.12718,-6.50327 3.55767,-9.19697 0.55829,-0.61875 1.11799,-1.125 1.24377,-1.125 0.12578,0 0.39671,0.40562 0.60206,0.90138 0.5034,1.21531 2.13264,2.59636 3.51623,2.98058 1.17142,0.32531 4.2832,0.44039 4.2832,0.1584 0,-0.0878 -0.2025,-0.64428 -0.45,-1.23663 -1.33552,-3.19635 0.24436,-5.33124 4.40724,-5.9555 2.88914,-0.43325 6.36858,1.36437 7.5793,3.91578 0.27402,0.57746 0.61276,0.97913 0.75276,0.89261 0.4573,-0.28264 1.2107,-2.9336 1.2107,-4.26006 0,-1.40536 0.195,-1.5214 1.4586,-0.86797 0.79689,0.41209 0.87033,0.38452 1.90686,-0.71614 0.77945,-0.82767 1.64673,-1.33174 3.13129,-1.81993 2.95016,-0.97013 3.97436,-1.55899 5.5541,-3.19329 l 1.40085,-1.44923 -0.0189,-2.56504 c -0.022,-2.98287 0.36072,-4.37915 1.49914,-5.46956 1.00424,-0.9619 2.743,-1.7154 3.95842,-1.7154 l 0.90964,0 -0.6,0.6 c -0.68232,0.68232 -0.73405,1.10837 -0.27967,2.30347 0.27989,0.73617 0.22735,0.92251 -0.41617,1.47604 -1.03713,0.8921 -1.4077,1.70381 -1.38134,3.02577 l 0.0228,1.14472 0.35218,-0.9 c 0.65874,-1.68343 1.14908,-2.30021 2.16669,-2.7254 1.36495,-0.57031 1.36557,-0.56989 0.8791,0.59441 -0.36922,0.88366 -0.36729,1.23234 0.0145,2.625 1.00748,3.6749 1.11746,4.40432 0.91199,6.04882 -0.25991,2.0803 -1.19066,2.98794 -3.81108,3.71648 -1.4416,0.4008 -2.19411,0.87449 -3.99007,2.51163 -3.0188,2.75185 -5.01087,4.19843 -7.66897,5.56895 -1.96996,1.01572 -2.47388,1.15136 -4.04876,1.08982 -3.71475,-0.14516 -9.16141,-1.62772 -12.37552,-3.36856 -0.92291,-0.49986 -1.73176,-0.85512 -1.79743,-0.78944 -0.21789,0.2179 2.67343,2.25918 4.26933,3.01416 2.00782,0.94986 6.11242,2.141 8.33439,2.41862 0.94926,0.1186 1.79874,0.33345 1.88774,0.47746 0.29714,0.48078 -0.44643,3.58445 -1.2364,5.1607 -2.13159,4.25325 -7.45424,8.90888 -14.49805,12.68117 -3.99884,2.14157 -5.88007,5.10128 -6.94482,10.92618 -0.98583,5.39313 -1.70532,7.9783 -2.86706,10.30152 -2.00898,4.01755 -4.75092,7.11303 -8.83653,9.97589 -1.48189,1.03839 -2.49325,1.9908 -2.79963,2.63646 -0.70468,1.48496 -1.38727,5.04818 -1.38727,7.24164 l 0,1.91629 1.125,0.31243 c 0.61875,0.17183 1.34476,0.31318 1.61336,0.3141 0.94246,0.003 2.59738,0.88869 3.36421,1.80001 0.85003,1.01021 1.39316,2.61602 1.39576,4.12666 0.002,0.975 0.002,0.975 -0.59833,0.375 -0.33,-0.33 -0.8025,-0.6 -1.05,-0.6 -0.2475,0 -0.45,-0.21289 -0.45,-0.47308 0,-0.6333 -1.62257,-2.22692 -2.26738,-2.22692 -0.4003,0 -0.34403,0.13333 0.2552,0.60469 0.84356,0.66354 1.27171,1.75593 1.58554,4.04531 l 0.20562,1.5 -0.7569,-0.80529 c -0.4163,-0.44291 -1.25175,-0.89813 -1.85656,-1.01159 -0.91953,-0.17251 -1.17553,-0.39593 -1.56286,-1.36395 -0.26977,-0.67422 -0.87251,-1.41061 -1.44334,-1.76341 -1.47171,-0.90957 -1.69931,-0.73209 -0.58134,0.4533 1.2326,1.30694 1.6783,2.76196 1.28374,4.19094 -0.15946,0.5775 -0.31733,1.04474 -0.35082,1.03832 -0.0335,-0.006 -0.4166,-0.41143 -0.85135,-0.9 z m 28.35688,-25.78234 c -1.39253,-0.56265 -1.85499,-1.63387 -1.84865,-4.28212 0.004,-1.55664 -0.17458,-2.96057 -0.48093,-3.78658 -0.26777,-0.72199 -0.48795,-1.73449 -0.48929,-2.25 -0.002,-0.93232 -0.0114,-0.93754 -1.68866,-0.98709 -1.89851,-0.0561 -5.78858,-1.19817 -6.00537,-1.76312 -0.21982,-0.57283 0.44433,-3.94424 1.26807,-6.43707 1.44038,-4.35897 3.45442,-5.94063 8.47882,-6.65855 4.10208,-0.58614 7.29697,0.564 8.10997,2.91952 0.55962,1.62139 0.0777,6.02785 -1.18006,10.78903 -0.52304,1.98 -1.01124,3.87 -1.0849,4.2 -0.1123,0.50313 0.1719,0.70899 1.76032,1.27506 3.49643,1.24604 6.84825,0.75537 10.01171,-1.46559 2.58003,-1.81136 3.92405,-2.34531 5.92244,-2.35288 1.87738,-0.007 3.30358,0.54698 3.80121,1.47679 0.43223,0.80764 0.40401,0.8516 -0.44284,0.68971 -0.41344,-0.079 -0.95917,0.0285 -1.21271,0.23889 -0.34917,0.28979 -0.54523,0.29835 -0.80828,0.0353 -0.41976,-0.41977 -3.1978,-0.45409 -3.82728,-0.0473 -0.32355,0.20909 -0.0262,0.2921 1.05825,0.29541 1.78134,0.005 2.73441,0.57443 3.32344,1.98416 0.6224,1.48961 0.56166,2.01826 -0.18589,1.61818 -1.21219,-0.64874 -2.68895,-0.0312 -4.47375,1.87065 -2.63172,2.80438 -3.92997,3.20296 -6.44797,1.97962 l -1.34198,-0.65198 -4.14105,0.80329 c -4.16772,0.80847 -6.90287,0.98009 -8.07462,0.50665 z m 22.93827,-0.91353 c -0.0854,-0.60523 -0.29876,-0.76026 -1.1547,-0.83884 -1.5542,-0.14267 -1.64985,-0.45989 -0.45496,-1.50901 1.33864,-1.17535 2.16606,-1.21747 2.57902,-0.13131 0.34731,0.91349 0.20961,1.75286 -0.43133,2.62916 -0.42238,0.57749 -0.43597,0.57371 -0.53803,-0.15 z m -4.72498,-30.75674 c -4.09309,-1.04048 -7.91259,-2.35438 -8.65985,-2.979 -0.0441,-0.0368 0.40034,-0.86341 0.98758,-1.83684 0.58724,-0.97343 1.3452,-2.68112 1.68435,-3.79487 0.33915,-1.11375 0.65232,-2.025 0.69593,-2.025 0.0436,0 1.0092,0.42281 2.14577,0.93957 2.26716,1.03081 5.10309,2.06043 5.67512,2.06043 0.20058,0 0.44654,-0.50625 0.54657,-1.125 0.23094,-1.42848 1.45487,-3.23551 2.58851,-3.82174 0.49558,-0.25628 1.63265,-0.44911 2.6164,-0.44372 1.54709,0.008 1.67916,0.0556 1.1918,0.42497 -0.30145,0.22847 -0.52216,0.66293 -0.49045,0.96545 0.13925,1.32874 -0.006,1.60004 -0.85916,1.60004 -1.19232,0 -2.76987,1.84507 -2.74055,3.20528 0.007,0.34707 0.15964,0.20491 0.41933,-0.39179 0.52081,-1.19664 1.55583,-1.91921 2.71068,-1.8924 0.91309,0.0212 2.44588,0.51842 1.71961,0.55782 -0.21375,0.0116 -0.72,0.35246 -1.125,0.75745 -0.66824,0.66824 -0.73636,0.97629 -0.73636,3.32967 0,5.2621 -1.69415,6.16676 -8.37028,4.46968 z m -37.92781,-13.56071 c -0.82761,-1.90319 -1.20007,-5.06093 -0.99407,-8.4278 l 0.19133,-3.12707 -0.62794,0.79831 c -0.34537,0.43906 -1.14319,1.06116 -1.77294,1.38243 -1.24609,0.63571 -3.60062,1.25292 -3.59446,0.94224 0.002,-0.10621 0.33961,-1.2445 0.75,-2.52954 1.07592,-3.36894 1.02267,-6.33273 -0.19614,-10.9183 -0.72243,-2.718 -0.94994,-4.22278 -0.975,-6.44873 -0.0307,-2.72896 -0.0638,-2.87534 -0.55012,-2.43536 -0.80381,0.72719 -1.73208,2.8692 -1.73716,4.00854 -0.003,0.7756 -0.0765,0.91904 -0.29541,0.58028 -0.48173,-0.74542 -0.35765,-6.59483 0.17861,-8.42055 1.58165,-5.38473 5.98502,-9.49888 12.35815,-11.54642 1.51354,-0.48626 1.56367,-0.53531 1.08629,-1.0628 -0.53939,-0.59603 -1.09931,-2.97023 -0.70047,-2.97023 0.1331,0 0.32664,0.13693 0.43007,0.30429 0.4015,0.64964 2.62551,1.50742 6.15182,2.3727 5.07687,1.24576 6.59553,2.41563 6.59553,5.0807 0,1.16958 0.0422,1.22241 1.125,1.40952 1.44587,0.24984 7.38551,2.08003 8.85,2.72695 0.61875,0.27333 1.1341,0.64521 1.14522,0.8264 0.36582,5.95979 0.40144,5.87944 -2.60655,5.87944 -2.2858,0 -3.49601,0.52863 -4.32582,1.88956 -0.66689,1.09375 -0.76884,2.84825 -0.20991,3.61263 0.34989,0.47851 0.46699,0.45138 1.57781,-0.36552 2.1619,-1.58988 4.54179,-1.47732 5.08703,0.24059 0.42455,1.33764 -0.88567,4.09643 -2.30668,4.85693 -0.56535,0.30257 -0.60082,0.26451 -0.42102,-0.45189 0.24729,-0.98526 0.0686,-0.98545 -2.77815,-0.003 -2.45034,0.84575 -3.89103,0.82662 -4.87598,-0.0647 -0.72787,-0.65872 -0.97723,-0.39809 -0.5391,0.56348 0.43306,0.95047 1.25823,1.32728 3.79343,1.73228 2.41407,0.38565 3.57772,0.90302 4.86773,2.16424 1.5652,1.53028 2.4907,3.6707 2.65223,6.13391 0.19972,3.04552 -0.0288,3.46626 -1.08851,2.00434 -0.96983,-1.33789 -3.22754,-2.65705 -5.05819,-2.95545 -1.63145,-0.26594 -4.39719,0.3007 -6.01187,1.23169 -2.15899,1.24483 -2.6735,3.03688 -1.57008,5.4686 0.32637,0.71927 0.59341,1.34036 0.59341,1.3802 0,0.0398 -0.662,-0.0322 -1.47111,-0.16011 -3.08982,-0.48844 -4.85541,-2.19536 -4.93328,-4.76937 -0.0251,-0.8293 -0.11772,-1.50797 -0.20586,-1.50815 -0.24661,-6e-4 -3.07749,3.00333 -4.09923,4.34967 -1.47052,1.93771 -2.24626,3.73723 -2.41547,5.60329 -0.0871,0.96069 -0.25413,1.74671 -0.37115,1.74671 -0.11703,0 -0.43292,-0.50625 -0.70199,-1.125 z m 17.62206,-37.05327 c 0.54997,-0.28291 0.54396,-0.31791 -0.14378,-0.83667 -1.43754,-1.08434 -3.28019,-0.89606 -3.28019,0.33516 0,1.07416 1.79867,1.33761 3.42397,0.50151 z m 2.87603,9.20855 c 0,-0.78211 0.59613,-1.64366 1.33047,-1.92286 0.46058,-0.17511 1.22678,-0.10767 2.27804,0.2005 1.20084,0.35201 1.82686,0.38982 2.58776,0.15629 1.08417,-0.33274 1.28222,-0.0856 0.5323,0.66436 -0.33528,0.33528 -1.05518,0.47143 -2.49266,0.47143 -1.31277,0 -2.22535,0.15439 -2.60357,0.44046 -0.7701,0.58247 -1.63234,0.57709 -1.63234,-0.0102 z"
       id="path4273"
       inkscape:connector-curvature="0" />
  </g>
</svg>
