<?xml version="1.0" encoding="UTF-8" standalone="no"?>
<!-- Created with Inkscape (http://www.inkscape.org/) -->

<svg
   xmlns:dc="http://purl.org/dc/elements/1.1/"
   xmlns:cc="http://creativecommons.org/ns#"
   xmlns:rdf="http://www.w3.org/1999/02/22-rdf-syntax-ns#"
   xmlns:svg="http://www.w3.org/2000/svg"
   xmlns="http://www.w3.org/2000/svg"
   xmlns:sodipodi="http://sodipodi.sourceforge.net/DTD/sodipodi-0.dtd"
   xmlns:inkscape="http://www.inkscape.org/namespaces/inkscape"
   width="66.604446mm"
   height="90.028893mm"
   viewBox="0 0 236.00001 319.00001"
   id="svg4294"
   version="1.1"
   inkscape:version="0.91 r13725"
   sodipodi:docname="rampant lion 3.svg">
  <defs
     id="defs4296" />
  <sodipodi:namedview
     id="base"
     pagecolor="#ffffff"
     bordercolor="#666666"
     borderopacity="1.0"
     inkscape:pageopacity="0.0"
     inkscape:pageshadow="2"
     inkscape:zoom="1.979899"
     inkscape:cx="110.61421"
     inkscape:cy="160.09065"
     inkscape:document-units="px"
     inkscape:current-layer="layer1"
     showgrid="false"
     fit-margin-top="0"
     fit-margin-left="0"
     fit-margin-right="0"
     fit-margin-bottom="0" />
  <metadata
     id="metadata4299">
    <rdf:RDF>
      <cc:Work
         rdf:about="">
        <dc:format>image/svg+xml</dc:format>
        <dc:type
           rdf:resource="http://purl.org/dc/dcmitype/StillImage" />
        <dc:title></dc:title>
      </cc:Work>
    </rdf:RDF>
  </metadata>
  <g
     inkscape:label="Layer 1"
     inkscape:groupmode="layer"
     id="layer1"
     transform="translate(-253.4286,-341.43362)">
    <path
       style="fill:#000000"
       d="m 375.30085,659.16303 c -2.16708,-2.16711 -3.57705,-16.17526 -1.83889,-18.2696 0.80927,-0.97512 0.85053,-1.45981 0.12427,-1.45981 -1.86883,0 -3.21114,3.76912 -2.92873,8.22369 0.23212,3.6614 -0.0165,4.29697 -1.7289,4.42001 -1.1,0.079 -2.48646,0.19154 -3.08102,0.25 -0.59456,0.0585 -1.70106,1.26486 -2.45889,2.68087 -1.28223,2.39587 -1.46748,2.45202 -2.66898,0.80887 -1.7778,-2.43129 -1.62201,-12.34723 0.26493,-16.86333 1.19813,-2.86751 1.25563,-3.6248 0.25,-3.29225 -0.71832,0.23754 -1.9436,2.87095 -2.72283,5.85202 -0.77924,2.98106 -1.56398,5.60486 -1.74387,5.83066 -0.17989,0.22579 -1.23455,-0.41072 -2.34369,-1.41447 -1.95845,-1.77238 -2.08465,-1.76109 -4.37591,0.39144 l -2.35929,2.21644 -0.61657,-2.30197 c -1.01961,-3.80673 -0.74055,-5.516 1.30069,-7.96703 1.06952,-1.28422 3.31952,-3.96936 5,-5.96697 4.34635,-5.16654 3.78221,-5.98355 -0.94457,-1.36798 -2.76952,2.70436 -4,3.40401 -4,2.27438 0,-2.39819 -3.01715,-5.00316 -5.14908,-4.44565 -1.018,0.26622 -1.85092,0.0762 -1.85092,-0.42235 0,-1.80569 4.0566,-4.90638 6.41896,-4.90638 1.33043,0 3.79916,-0.7875 5.48608,-1.75 2.99073,-1.70642 3.26147,-1.68151 10.87068,1 8.61301,3.03525 14.90825,3.48268 19.02394,1.35211 3.03084,-1.56897 12.73118,-11.28319 19.57412,-19.60211 l 4.52417,-5.5 -3.19898,-0.68292 c -2.63476,-0.56247 -3.55171,-0.2594 -5.19897,1.71839 -1.77421,2.1302 -6.18833,4.46453 -8.44226,4.46453 -0.44664,0 -0.5849,-2.01538 -0.30726,-4.47863 0.44329,-3.93287 0.007,-5.30378 -3.58239,-11.25 -7.15861,-11.85987 -7.61655,-13.78923 -7.64378,-32.20479 l -0.0243,-16.43341 -7.75095,-6.60587 c -13.87194,-11.82259 -26.33925,-18.01128 -36.57452,-18.15536 -6.41466,-0.0903 -9.53698,1.06827 -11.1868,4.15098 -1.4415,2.69347 0.12614,5.36739 4.11554,7.01985 l 3.1797,1.31708 -2.64313,2.27353 c -4.67097,4.01779 -11.03734,4.72507 -17.66232,1.96219 -0.99737,-0.41594 -3.01406,0.88489 -5.84718,3.77162 -4.28895,4.37012 -4.31058,4.42809 -2.61728,7.01239 1.21025,1.84709 1.48229,3.40871 0.93428,5.36313 -0.42522,1.51651 -0.67179,3.35599 -0.54793,4.08772 0.26641,1.57389 -2.56853,6.16957 -3.80583,6.16957 -0.47318,0 -1.08806,-0.87088 -1.36641,-1.93529 -0.36841,-1.40883 -1.08916,-1.78281 -2.64951,-1.37477 -1.28051,0.33486 -2.88873,-0.11397 -3.99472,-1.11488 -1.75691,-1.58999 -2.09503,-1.41795 -6.63278,3.37477 -4.61466,4.87395 -8.47092,6.44363 -9.95016,4.05017 -0.9306,-1.50575 -3.61798,-1.20321 -5.65041,0.63612 -1.55114,1.40376 -1.88766,1.42825 -2.36956,0.17245 -0.30891,-0.80502 -0.13854,-2.57655 0.3786,-3.93674 0.51714,-1.36018 0.71361,-3.65867 0.4366,-5.10775 -0.4221,-2.20807 0.15478,-3.09047 3.56261,-5.44939 2.23644,-1.54808 4.08333,-3.39302 4.10421,-4.09987 0.0446,-1.50959 -1.64776,-0.71735 -6.96205,3.25915 l -3.5,2.61893 -2,-2.43807 c -1.58795,-1.93578 -2.46355,-2.26102 -4.25,-1.57868 -1.87337,0.71555 -2.25,0.52202 -2.25,-1.15612 0,-1.10854 1.125,-3.05814 2.5,-4.33245 1.375,-1.27431 2.5,-2.77272 2.5,-3.32981 0,-2.57249 3.00365,-3.52207 8.0098,-2.53223 2.74461,0.54268 4.9902,0.61727 4.9902,0.16576 0,-1.45079 -3.76202,-2.8913 -7.55089,-2.8913 -3.3006,0 -3.62278,-0.22788 -3.10759,-2.19796 0.70887,-2.71075 -0.88906,-4.79114 -3.71396,-4.83531 -2.09369,-0.0327 -2.08998,-0.0646 0.23322,-2 1.29844,-1.0817 3.46552,-1.96673 4.81574,-1.96673 1.35023,0 3.32131,-0.46366 4.38019,-1.03035 2.22406,-1.19028 6.2487,0.50037 9.35064,3.92797 1.04644,1.15631 2.7679,2.10238 3.82545,2.10238 1.09137,0 6.51323,-4.48602 12.53849,-10.37427 l 10.61566,-10.37427 -3.44348,-1.7314 c -3.15931,-1.58852 -14.94347,-12.23649 -14.94347,-13.50268 0,-0.29987 2.35686,-1.66396 5.23746,-3.0313 5.20383,-2.47012 11.53848,-8.29711 26.77553,-24.62974 9.66454,-10.35944 17.44471,-14.34148 33.74741,-17.27257 6.19321,-1.11349 12.04321,-2.44654 13,-2.96233 3.15296,-1.69972 6.19847,-5.66579 6.84921,-8.91951 0.59359,-2.96792 0.44374,-3.20193 -2.05035,-3.20193 -3.85043,0 -6.10151,1.48067 -7.54343,4.96178 -0.69216,1.67102 -1.60726,3.03822 -2.03356,3.03822 -1.22734,0 -6.73469,-6.64457 -7.49632,-9.04426 -0.41495,-1.30741 0.003,-3.71301 1.04661,-6.02795 1.63606,-3.62814 1.85862,-3.76721 3.8248,-2.39004 1.14821,0.80424 3.57217,1.46225 5.38659,1.46225 4.60672,0 6.10481,-3.32895 4.41687,-9.81485 -1.26665,-4.86707 -4.14346,-8.18515 -7.09664,-8.18515 -1.74875,0 -4.11807,1.98421 -6.46955,5.41797 -1.23011,1.79629 -1.47476,1.63767 -3.856,-2.5 -3.73257,-6.48577 -4.36739,-10.5111 -1.86856,-11.84844 1.09915,-0.58824 3.15303,-1.06953 4.56419,-1.06953 1.41116,0 2.56574,-0.45 2.56574,-1 0,-0.55 -2.025,-1 -4.5,-1 -4.80088,0 -5.79935,-1.23424 -2.449,-3.0273 2.63501,-1.41021 20.90763,-4.0486 32.19897,-4.64921 20.07744,-1.06796 30.5158,6.8604 35.69163,27.10925 1.13414,4.43699 2.91525,9.73904 3.95802,11.78232 1.79268,3.51271 1.80025,3.74542 0.13904,4.27267 -0.9663,0.30669 -2.45376,0.29021 -3.30547,-0.0366 -1.39441,-0.53509 -1.39775,-0.16404 -0.0335,3.72733 1.51202,4.31287 1.4102,9.38546 -0.52531,26.16962 l -0.67438,5.84806 -2.75,-2.17064 -2.75,-2.17064 0,2.43822 c 0,4.44871 -6.74049,16.14778 -12.86572,22.33029 l -5.88663,5.94166 16.12618,16.49734 c 8.86939,9.07354 20.62617,21.36829 26.12617,27.32168 13.42334,14.52986 19.69577,17.9867 28.38927,15.64579 6.14674,-1.65515 9.61073,-6.74493 9.61073,-14.12141 0,-6.37258 -2.0972,-9.6705 -7.59878,-11.94932 -6.06011,-2.51019 -12.21574,3.45327 -9.88699,9.57833 1.34328,3.5331 -0.52282,3.15399 -4.61423,-0.93742 -4.03786,-4.03786 -4.45443,-8.16228 -1.4,-13.86118 1.1,-2.05237 2,-3.94094 2,-4.19683 0,-0.25589 -4.62279,-0.37002 -10.27287,-0.25362 -9.24365,0.19043 -10.76255,-0.0402 -15.16054,-2.30169 -6.08926,-3.13119 -11.00549,-9.96689 -12.56261,-17.46752 -0.92946,-4.47717 -0.8467,-6.58446 0.45869,-11.67991 2.19118,-8.55299 8.53733,-18.439 8.53733,-13.29941 0,0.84691 0.94247,3.38723 2.09438,5.64515 1.69183,3.31627 1.88403,4.56697 1,6.50722 -0.60191,1.32104 -1.09438,4.79001 -1.09438,7.70882 0,4.25268 0.48902,5.83459 2.46169,7.96313 3.43732,3.70893 6.5028,4.63527 15.35341,4.63958 5.89626,0.003 8.44133,0.46494 10.9349,1.9853 1.7875,1.08986 3.25,1.62628 3.25,1.19204 0,-2.64316 -6.76325,-10.73034 -12.05878,-14.41933 -8.91916,-6.21328 -15.87521,-12.71203 -17.94121,-16.76173 -6.73734,-13.20628 -3.83835,-30.36371 6.78492,-40.15589 5.52464,-5.09244 10.85624,-7.44665 20.26208,-8.94689 8.31833,-1.32678 10.45085,-2.63654 11.31321,-6.94835 0.81325,-4.06622 4.81574,-4.04254 8.63978,0.0511 1.54133,1.65 3.28777,3 3.88097,3 2.84635,0 9.3583,3.52729 11.14542,6.03706 1.6944,2.37957 1.8192,3.20772 0.8154,5.41082 -1.31182,2.87914 -5.78488,5.92735 -10.24408,6.98094 -1.59626,0.37715 -4.13931,2.00996 -5.65121,3.62846 -3.19579,3.4211 -7.9465,4.0889 -7.9465,1.11703 0,-2.50452 -3.96378,-6.01707 -7.61384,-6.74708 -6.99741,-1.39948 -16.55988,4.07265 -20.45333,11.70443 -1.24322,2.43692 -2.03394,6.0162 -2.07423,9.38922 -0.0911,7.63136 3.104,12.65311 12.84561,20.18914 8.80378,6.81053 15.32342,13.50895 17.78892,18.2767 l 1.66277,3.21544 2.27866,-2.14068 c 4.60104,-4.32246 13.77372,-3.27786 16.5358,1.88313 1.43445,2.6803 1.47276,2.6505 -2.87447,2.23593 -3.01119,-0.28717 -4.40729,0.13086 -6.10417,1.82774 -2.8299,2.8299 -2.22011,6.20011 2.5077,13.85977 4.42709,7.17246 5.50058,10.93145 5.50058,19.26116 0,12.21275 -7.51812,21.93059 -19.70794,25.47426 -11.4096,3.31686 -20.9987,0.34431 -31.95667,-9.90633 l -6.42098,-6.00652 -3.54232,3.40469 c -10.90227,10.47868 -12.41772,26.63984 -3.22352,34.37625 4.50388,3.78976 8.40479,3.39975 11.06331,-1.1061 2.12723,-3.60539 2.15167,-3.61541 3.04589,-1.25 0.4958,1.3115 0.74935,5.53454 0.56345,9.38454 -0.41399,8.57387 -3.499,15.31187 -11.06352,24.16392 -4.42824,5.18195 -5.45581,7.15542 -6.45015,12.38761 -1.32203,6.95653 -2.62814,9.02788 -4.50755,7.14847 -1.72145,-1.72145 -6.31839,-1.47908 -7.92756,0.41798 -0.75484,0.88989 -2.94744,4.78724 -4.87244,8.66077 -4.24899,8.54991 -6.87638,10.64658 -14.3019,11.41296 -5.86463,0.60528 -7.22701,1.42837 -7.84049,4.73688 -0.33035,1.78159 -0.48169,1.80452 -1.98536,0.30082 z m 24.7357,-256.47941 c 1.97401,-2.60043 1.69668,-8.65267 -0.52187,-11.38922 -2.4899,-3.07124 -3.75348,-1.80899 -1.55221,1.55057 1.64274,2.50714 1.64294,5.99835 5.7e-4,9.83865 -0.41163,0.9625 -0.41238,1.75 -0.002,1.75 0.41071,0 1.34454,-0.7875 2.07518,-1.75 z m -23.22397,-10.41858 c 6.42137,-1.82309 6.53391,-2.83142 0.31602,-2.83142 -5.03333,0 -5.7,0.23392 -5.7,2 0,2.34421 0.036,2.34977 5.38398,0.83142 z m -72.0991,222.01184 c -1.62047,-1.95255 -1.43931,-12.26401 0.25474,-14.49981 1.68539,-2.22437 1.8224,-3.34345 0.40935,-3.34345 -0.57806,0 -1.75035,1.6875 -2.60509,3.75 -2.0291,4.89626 -1.99534,4.8754 -4.38785,2.71021 -1.72774,-1.56358 -2.52749,-1.68298 -5.00613,-0.7474 -2.73207,1.03124 -2.9499,0.94431 -2.9499,-1.17723 0,-1.25988 0.675,-2.85089 1.5,-3.53558 0.825,-0.68469 1.5,-1.95587 1.5,-2.82484 0,-0.86897 1.43174,-3.05713 3.18165,-4.86257 1.7499,-1.80545 2.83298,-3.62687 2.40683,-4.04761 -0.42616,-0.42074 -2.1954,0.92254 -3.93165,2.98506 -3.38728,4.0238 -4.65683,4.63719 -4.65683,2.24996 0,-2.17083 -3.90709,-5.74963 -5.57732,-5.1087 -0.78247,0.30026 -1.42268,-0.0249 -1.42268,-0.72268 0,-1.85001 2.11743,-3.66862 4.27143,-3.66862 1.02928,0 2.59385,-0.72242 3.4768,-1.60538 1.24516,-1.24515 2.70726,-1.4592 6.51605,-0.95395 5.97336,0.79239 5.67769,-1.1065 -0.32167,-2.06584 -3.75472,-0.6004 -5.18635,-2.48812 -2.93991,-3.8765 0.67028,-0.41425 0.67028,-1.24086 0,-2.49328 -1.54456,-2.88605 -1.24315,-3.28122 1.9973,-2.61855 1.65,0.33743 4.4625,0.88747 6.25,1.22233 2.06215,0.38631 5.26021,2.56311 8.75,5.95578 5.83033,5.66809 9.78793,7.7648 16.8536,8.92891 4.67753,0.77065 17.1464,-0.20485 17.1464,-1.34144 0,-0.37881 -1.84143,-2.91712 -4.09206,-5.6407 -5.4343,-6.57626 -7.89475,-11.60437 -8.60245,-17.57977 -0.45569,-3.84763 -0.9762,-4.93161 -2.36806,-4.93161 -2.5959,0 -7.5826,-4.54337 -8.79083,-8.00931 l -1.04256,-2.99069 4.48756,0 c 4.13927,0 5.01622,-0.49651 11.29906,-6.39731 11.01304,-10.34337 15.31111,-11.58436 24.80781,-7.1628 5.04442,2.34863 5.18186,2.52267 4.63812,5.87337 -0.52717,3.24857 -0.23553,3.69825 4.92585,7.59513 l 5.48619,4.14212 -0.50737,4.72474 c -0.60468,5.63096 -0.75657,5.8719 -2.69005,4.26725 -2.43082,-2.0174 -8.51374,-1.52442 -10.92343,0.88528 -3.00936,3.00935 -2.84479,10.07489 0.38598,16.57222 1.36743,2.75 5.91923,8.46027 10.11511,12.68948 l 7.62888,7.68948 -2.14252,2.01279 c -3.74265,3.51603 -9.81962,5.34432 -20.32126,6.11375 -9.09797,0.66659 -10.71798,1.08688 -14.92144,3.87114 -2.59348,1.71785 -4.97577,3.11362 -5.29398,3.10172 -0.3182,-0.0119 -1.25355,-1.47441 -2.07855,-3.25 -2.24533,-4.83249 -5.47094,-4.7378 -11.85858,0.34811 -4.77114,3.79884 -5.63538,4.12796 -9.65115,3.67532 -4.44023,-0.50048 -6.58651,0.65258 -7.64633,4.10786 -0.35009,1.14136 -0.6004,1.13873 -1.55906,-0.0164 z m 159.2178,-134.83107 c -1.06319,-4.84065 -4.23822,-6.5679 -12.60137,-6.85528 -5.24502,-0.18024 -7.8885,-0.73996 -9.23182,-1.95473 -2.37089,-2.14401 -5.79054,-8.74779 -4.95998,-9.57836 0.3431,-0.3431 5.65408,-0.62382 11.80217,-0.62382 12.20556,0 13.60427,-0.58207 15.01882,-6.25 0.48512,-1.94385 1.32217,-2.75 2.8554,-2.75 2.74747,0 6.6141,2.66387 6.6141,4.5567 0,0.81722 0.9475,1.4433 2.18428,1.4433 3.68701,0 10.26155,3.79185 12.16679,7.01718 l 1.80739,3.05965 -3.8319,3.8319 c -2.724,2.72401 -5.0599,4.03937 -8.07923,4.54948 -2.33603,0.39467 -4.24733,1.12803 -4.24733,1.62969 0,1.81103 -4.05336,4.9121 -6.42054,4.9121 -1.87421,0 -2.56867,-0.67437 -3.07678,-2.98781 z m -174.4531,-8.58037 c -4.58518,-4.6375 -8.69144,-8.43182 -9.12504,-8.43182 -0.43359,0 -1.74964,1.35 -2.92454,3 -1.99095,2.79604 -2.56947,3 -8.50908,3 -7.05066,0 -8.74275,-1.16575 -5.50159,-3.79027 1.82428,-1.47722 1.98623,-2.14381 1.09214,-4.49544 -0.87979,-2.31403 -0.72851,-3.03608 0.93439,-4.4599 2.95795,-2.53268 2.48286,-3.64542 -3.01586,-7.06361 -4.86026,-3.02131 -5.43906,-4.05967 -5.02857,-9.0213 0.10604,-1.28179 -0.54846,-3.14961 -1.45446,-4.15072 -2.04417,-2.25879 -0.8795,-3.10301 4.19263,-3.03906 2.08472,0.0263 4.6858,0.0218 5.78018,-0.01 1.09438,-0.0318 3.11938,1.31606 4.5,2.99527 2.33326,2.83787 5.01022,4.04694 5.01022,2.26291 0,-0.42468 -1.28498,-2.33718 -2.8555,-4.25 -2.07666,-2.52926 -2.99181,-4.91563 -3.35527,-8.74929 -0.47364,-4.99585 -0.3897,-5.23779 1.6055,-4.62761 1.1579,0.35411 2.67313,1.09831 3.36717,1.65377 0.69405,0.55547 2.71905,1.73789 4.5,2.62761 2.31238,1.15521 3.65811,2.83269 4.70727,5.86768 1.86341,5.39049 3.46235,5.50391 2.75029,0.19509 -0.34007,-2.53544 -0.017,-5.06482 0.86217,-6.75 0.77333,-1.4823 1.40882,-3.50915 1.41221,-4.50411 0.009,-2.49309 1.36795,-1.42667 4.95295,3.88528 3.31903,4.91787 3.63819,7.21495 1.93966,13.96042 -0.61246,2.43228 -0.82057,5.58968 -0.46247,7.01646 0.3581,1.42678 4.47767,6.56362 9.15461,11.4152 l 8.50352,8.82106 -5.60109,6.60224 c -3.08059,3.63124 -6.38716,7.02294 -7.34792,7.53713 -1.42011,0.76002 -3.30614,-0.64222 -10.08352,-7.49695 z m 27.89202,-42.39556 c -4.52907,-1.34684 -6.8865,-3.02902 -8.43125,-6.01624 -4.19619,-8.11455 0.74872,-17.02002 9.45065,-17.02002 3.05789,0 3.10574,0.0666 1.5957,2.22251 -2.06572,2.94923 -1.96641,6.04995 0.28273,8.82752 2.55649,3.15714 8.46786,2.90452 20.26836,-0.86617 9.23534,-2.95102 12.94359,-3.55117 19.89221,-3.21937 3.30651,0.15789 3.20412,0.24673 -1.85203,1.60694 -2.94362,0.79189 -9.44417,3.91864 -14.44568,6.94833 -5.0015,3.02969 -10.69309,5.90724 -12.64797,6.39455 -5.96848,1.48782 -11.42396,1.92153 -14.11272,1.12195 z m 29.69858,-61.35464 c -0.36026,-5.12511 -1.32668,-11.89706 -2.1476,-15.04879 -0.82092,-3.15172 -1.49258,-6.14732 -1.49258,-6.65687 0,-1.70813 4.42262,0.71834 9,4.93784 l 4.5,4.14817 -2.393,1.83118 c -1.87619,1.43571 -2.25002,2.40087 -1.73095,4.46902 0.52486,2.09122 1.26249,2.63783 3.55967,2.63783 1.59369,0 3.16011,-0.5625 3.48095,-1.25 0.46666,-1 0.7,-1 1.16666,0 0.32084,0.6875 1.86551,1.25 3.43262,1.25 3.87981,0 4.96153,-3.33062 2.07844,-6.39953 -2.61998,-2.78883 -2.64347,-4.24062 -0.0944,-5.83254 1.1,-0.68696 2,-1.98009 2,-2.87362 0,-1.84537 3.68629,-6.89431 5.03363,-6.89431 1.46472,0 4.96637,4.25411 4.96637,6.03357 0,0.91105 0.9,2.47094 2,3.46643 2.39228,2.16498 2.60477,5.05395 0.43303,5.88733 -2.53464,0.97263 -1.45525,6.03864 1.37201,6.43943 1.26778,0.17972 2.87598,-0.14707 3.5738,-0.7262 0.88894,-0.73776 1.58633,-0.73539 2.32962,0.008 1.52372,1.52372 5.39845,0.70176 6.68941,-1.41905 0.90773,-1.49123 0.59739,-2.24934 -1.75943,-4.29799 -2.75747,-2.39693 -2.7973,-2.5584 -1.09501,-4.43941 0.9716,-1.07361 2.32366,-1.95201 3.00457,-1.95201 0.68091,0 1.48802,-0.65147 1.79356,-1.44771 0.56389,-1.46946 6.52169,-5.02238 7.23155,-4.31252 0.21298,0.21299 -0.25043,3.95867 -1.0298,8.32374 -0.77937,4.36507 -1.70885,11.42399 -2.0655,15.68649 l -0.64845,7.75 -26.26708,0 -26.26708,0 -0.65502,-9.31838 z"
       id="path4380"
       inkscape:connector-curvature="0" />
  </g>
</svg>
