<?xml version="1.0" encoding="UTF-8" standalone="no"?>
<!-- Created with Inkscape (http://www.inkscape.org/) -->

<svg
   xmlns:dc="http://purl.org/dc/elements/1.1/"
   xmlns:cc="http://creativecommons.org/ns#"
   xmlns:rdf="http://www.w3.org/1999/02/22-rdf-syntax-ns#"
   xmlns:svg="http://www.w3.org/2000/svg"
   xmlns="http://www.w3.org/2000/svg"
   xmlns:sodipodi="http://sodipodi.sourceforge.net/DTD/sodipodi-0.dtd"
   xmlns:inkscape="http://www.inkscape.org/namespaces/inkscape"
   width="37.676666mm"
   height="45.37846mm"
   viewBox="0 0 133.5 160.78982"
   id="svg2"
   version="1.1"
   inkscape:version="0.91 r13725"
   sodipodi:docname="rampant lion.svg">
  <defs
     id="defs4" />
  <sodipodi:namedview
     id="base"
     pagecolor="#ffffff"
     bordercolor="#666666"
     borderopacity="1.0"
     inkscape:pageopacity="0.0"
     inkscape:pageshadow="2"
     inkscape:zoom="1.4"
     inkscape:cx="85.669168"
     inkscape:cy="15.810455"
     inkscape:document-units="px"
     inkscape:current-layer="layer1"
     showgrid="false"
     fit-margin-top="0"
     fit-margin-left="0"
     fit-margin-right="0"
     fit-margin-bottom="0" />
  <metadata
     id="metadata7">
    <rdf:RDF>
      <cc:Work
         rdf:about="">
        <dc:format>image/svg+xml</dc:format>
        <dc:type
           rdf:resource="http://purl.org/dc/dcmitype/StillImage" />
        <dc:title></dc:title>
      </cc:Work>
    </rdf:RDF>
  </metadata>
  <g
     inkscape:label="Layer 1"
     inkscape:groupmode="layer"
     id="layer1"
     transform="translate(-274.6588,-427.34832)">
    <path
       style="fill:#000000"
       d="m 304.6588,587.70405 c 0,-0.23874 1.18382,-3.16374 2.63071,-6.5 2.82011,-6.50263 2.91382,-6.54884 10.36544,-5.11162 5.05369,0.97472 5.96391,0.31239 5.98854,-4.35767 0.0111,-2.11454 -1.30953,-4.3042 -4.86092,-8.05927 -3.78824,-4.0055 -5.12462,-6.31406 -5.98945,-10.34662 -1.69435,-7.90048 0.0612,-14.68255 5.03217,-19.44073 2.15475,-2.0625 4.68628,-3.7456 5.62562,-3.74023 2.98883,0.0171 11.58976,4.62775 15.03006,8.05708 3.76768,3.75567 5.63306,7.02107 6.61358,11.57723 0.6297,2.92599 0.37793,3.30885 -3.62956,5.51951 -5.69308,3.14048 -5.94913,6.20043 -0.55619,6.64678 2.0625,0.1707 3.75,0.50362 3.75,0.73982 0,0.2362 -2.80416,6.05904 -6.23148,12.93963 l -6.23147,12.51018 -13.76853,0 c -7.57268,0 -13.76852,-0.19534 -13.76852,-0.43409 z m 53.56341,-6.72772 c 1.34013,-3.41958 2.43659,-6.38742 2.43659,-6.59519 0,-0.20778 0.7875,-0.15532 1.75,0.11656 0.9625,0.27189 3.6218,0.78489 5.90956,1.14001 3.61188,0.56065 4.2446,0.37774 4.8054,-1.38918 1.0161,-3.20143 -1.1053,-5.90007 -6.44313,-8.19635 -6.80283,-2.92649 -14.23233,-11.0708 -18.35823,-20.1245 -3.78944,-8.31537 -9.74749,-14.34033 -18.4051,-18.6118 l -5.24151,-2.58604 2.43846,-2.54585 c 2.07457,-2.16594 5.54455,-8.7568 5.54455,-10.53129 0,-0.30232 -1.91262,1.44644 -4.25027,3.88615 -5.97769,6.23866 -7.73534,6.44125 -22.44645,2.58719 -12.77322,-3.34637 -13.26974,-3.33306 -14.57989,0.3907 -0.43338,1.23176 -16.72339,-2.42489 -16.72339,-3.75393 0,-0.59731 0.98281,-3.45721 2.18401,-6.35534 l 2.18402,-5.26933 12.56598,-0.011 c 6.9113,-0.006 14.20587,-0.2822 16.21016,-0.61366 l 3.64417,-0.60267 -0.0544,-5.77506 c -0.0695,-7.38213 2.85385,-12.59959 11.05777,-19.73514 5.47513,-4.76213 12.20829,-13.31661 12.20829,-15.51064 0,-0.4979 -1.21471,0.53831 -2.69934,2.30271 -1.48464,1.76439 -5.64714,4.52886 -9.25,6.14325 -3.60287,1.6144 -7.50484,3.82898 -8.67105,4.92129 l -2.12039,1.98603 -1.62961,-4.07279 c -2.19066,-5.47499 -2.06863,-6.51126 0.92754,-7.8764 1.83227,-0.83484 3.11859,-0.86464 4.53777,-0.10512 3.90717,2.09105 7.89079,-1.31852 6.32077,-5.40992 -0.73522,-1.91594 -4.6747,-2.14375 -9.28412,-0.5369 -1.74178,0.60719 -4.29789,0.82011 -5.68024,0.47316 -2.57446,-0.64615 -6.4409,-5.83327 -6.44759,-8.64994 -0.002,-0.9637 3.46991,-3.40431 8.96573,-6.30201 7.72703,-4.07413 9.79017,-4.73314 14.89428,-4.75755 3.5366,-0.0169 7.17668,0.61903 9.03053,1.57769 4.14457,2.14324 4.0281,0.10656 -0.14428,-2.52291 -2.70933,-1.70744 -4.45612,-1.97952 -10.5,-1.63549 -8.10628,0.46144 -9.11486,-0.51298 -4.89684,-4.731 5.21373,-5.21373 23.9109,-5.88062 34.05906,-1.21481 6.97272,3.20584 10.65672,6.549 14.13383,12.82616 2.74613,4.95754 2.95386,6.07145 2.95272,15.83272 l -0.001,10.5 -5.39651,10.5 c -3.77849,7.35183 -5.58211,12.14904 -6.01556,16 l -0.61905,5.5 -2.90503,-5.86133 c -2.2353,-4.51003 -3.02471,-7.73764 -3.42415,-14 -0.61055,-9.57226 -1.82594,-6.60251 -2.01894,4.93319 -0.17431,10.41934 1.9686,15.66946 9.46048,23.17814 5.57509,5.58759 6.66036,6.25 10.23972,6.25 3.24312,0 4.49552,-0.58449 6.5926,-3.07673 3.59389,-4.2711 3.28901,-7.20076 -1.26916,-12.19561 -5.16522,-5.65981 -6.14217,-7.76128 -6.14217,-13.21158 0,-7.83731 4.02283,-12.82971 11.74068,-14.57036 7.36222,-1.66045 15.23823,3.50198 17.3264,11.3568 1.70863,6.42717 4.66406,10.56319 8.25899,11.5582 l 3.17393,0.87848 -2.8151,1.1304 c -8.06289,3.23764 -13.42763,-0.65673 -15.12881,-10.98231 -0.70373,-4.27143 -3.00976,-6.62802 -7.33164,-7.4924 -2.62163,-0.52433 -3.64968,-0.1235 -6.18439,2.4112 -4.33439,4.33439 -3.95025,7.0374 1.95994,13.79131 4.67586,5.34336 5,6.06347 5,11.10785 0,5.80225 -1.4938,9.62244 -5.00403,12.79711 -5.88728,5.32448 -8.02251,15.83278 -4.7746,23.49764 1.77635,4.19208 6.90832,9.39687 10.89271,11.04725 3.46992,1.43729 3.46622,1.31686 0.58152,18.95275 l -2.2082,13.5 -13.68029,0.27781 -13.68029,0.2778 2.43659,-6.21742 z m -37.06341,-133.36428 4,-2.46366 -5.35699,-0.005 c -4.47521,-0.004 -5.25708,0.25524 -4.75,1.57666 0.33385,0.86998 0.60699,1.99498 0.60699,2.5 0,1.40861 1.14675,1.07337 5.5,-1.60787 z m -30.18395,38.27609 c -4.96119,-12.10981 -5.05453,-12.24833 -8.15672,-12.10371 -2.8081,0.13091 -3.24141,-0.23714 -4.12061,-3.5 -0.54039,-2.00546 -1.6653,-5.89629 -2.4998,-8.64629 -0.8345,-2.75 -1.52214,-5.1125 -1.5281,-5.25 -0.006,-0.1375 3.07657,-0.25 6.85004,-0.25 l 6.86086,0 8.74346,12.59172 c 8.71315,12.54807 8.75506,12.58955 12.08879,11.96413 l 3.34533,-0.62758 -2.57969,4.61556 c -1.57758,2.8226 -2.62629,6.33031 -2.69965,9.02977 l -0.11996,4.41419 -5.58267,0.006 -5.58266,0.006 -5.01862,-12.25 z"
       id="path4182"
       inkscape:connector-curvature="0" />
  </g>
</svg>
